<?xml version="1.0" encoding="UTF-8"?><svg id="Calque_2" xmlns="http://www.w3.org/2000/svg" xmlns:xlink="http://www.w3.org/1999/xlink" viewBox="0 0 608.36 675.51"><defs><style>.cls-1{fill:#fff;}.cls-2{fill:url(#Dégradé_sans_nom_2);}.cls-3{fill:url(#Dégradé_sans_nom_6);}.cls-4{fill:url(#Dégradé_sans_nom_9);}.cls-5{fill:url(#Dégradé_sans_nom_9-40);}.cls-6{fill:url(#Dégradé_sans_nom_9-30);}.cls-7{fill:url(#Dégradé_sans_nom_9-34);}.cls-8{fill:url(#Dégradé_sans_nom_9-39);}.cls-9{fill:url(#Dégradé_sans_nom_9-31);}.cls-10{fill:url(#Dégradé_sans_nom_9-32);}.cls-11{fill:url(#Dégradé_sans_nom_9-37);}.cls-12{fill:url(#Dégradé_sans_nom_9-36);}.cls-13{fill:url(#Dégradé_sans_nom_9-35);}.cls-14{fill:url(#Dégradé_sans_nom_9-38);}.cls-15{fill:url(#Dégradé_sans_nom_9-15);}.cls-16{fill:url(#Dégradé_sans_nom_9-18);}.cls-17{fill:url(#Dégradé_sans_nom_9-19);}.cls-18{fill:url(#Dégradé_sans_nom_9-17);}.cls-19{fill:url(#Dégradé_sans_nom_9-12);}.cls-20{fill:url(#Dégradé_sans_nom_9-16);}.cls-21{fill:url(#Dégradé_sans_nom_9-14);}.cls-22{fill:url(#Dégradé_sans_nom_9-33);}.cls-23{fill:url(#Dégradé_sans_nom_9-20);}.cls-24{fill:url(#Dégradé_sans_nom_9-23);}.cls-25{fill:url(#Dégradé_sans_nom_9-22);}.cls-26{fill:url(#Dégradé_sans_nom_9-28);}.cls-27{fill:url(#Dégradé_sans_nom_9-27);}.cls-28{fill:url(#Dégradé_sans_nom_9-29);}.cls-29{fill:url(#Dégradé_sans_nom_9-24);}.cls-30{fill:url(#Dégradé_sans_nom_9-25);}.cls-31{fill:url(#Dégradé_sans_nom_9-21);}.cls-32{fill:url(#Dégradé_sans_nom_9-26);}.cls-33{fill:url(#Dégradé_sans_nom_9-11);}.cls-34{fill:url(#Dégradé_sans_nom_9-13);}.cls-35{fill:url(#Dégradé_sans_nom_9-10);}.cls-36{fill:url(#Dégradé_sans_nom_6-38);}.cls-37{fill:url(#Dégradé_sans_nom_6-37);}.cls-38{fill:url(#Dégradé_sans_nom_6-36);}.cls-39{fill:url(#Dégradé_sans_nom_6-39);}.cls-40{fill:url(#Dégradé_sans_nom_6-20);}.cls-41{fill:url(#Dégradé_sans_nom_6-21);}.cls-42{fill:url(#Dégradé_sans_nom_6-26);}.cls-43{fill:url(#Dégradé_sans_nom_6-22);}.cls-44{fill:url(#Dégradé_sans_nom_6-23);}.cls-45{fill:url(#Dégradé_sans_nom_6-29);}.cls-46{fill:url(#Dégradé_sans_nom_6-28);}.cls-47{fill:url(#Dégradé_sans_nom_6-27);}.cls-48{fill:url(#Dégradé_sans_nom_6-24);}.cls-49{fill:url(#Dégradé_sans_nom_6-25);}.cls-50{fill:url(#Dégradé_sans_nom_6-31);}.cls-51{fill:url(#Dégradé_sans_nom_6-34);}.cls-52{fill:url(#Dégradé_sans_nom_6-30);}.cls-53{fill:url(#Dégradé_sans_nom_6-33);}.cls-54{fill:url(#Dégradé_sans_nom_6-32);}.cls-55{fill:url(#Dégradé_sans_nom_6-35);}.cls-56{fill:url(#Dégradé_sans_nom_6-19);}.cls-57{fill:url(#Dégradé_sans_nom_6-18);}.cls-58{fill:url(#Dégradé_sans_nom_6-13);}.cls-59{fill:url(#Dégradé_sans_nom_6-12);}.cls-60{fill:url(#Dégradé_sans_nom_6-11);}.cls-61{fill:url(#Dégradé_sans_nom_6-10);}.cls-62{fill:url(#Dégradé_sans_nom_6-17);}.cls-63{fill:url(#Dégradé_sans_nom_6-16);}.cls-64{fill:url(#Dégradé_sans_nom_6-15);}.cls-65{fill:url(#Dégradé_sans_nom_6-14);}.cls-66{fill:url(#Dégradé_sans_nom_6-40);}.cls-67{fill:url(#Dégradé_sans_nom_2-16);}.cls-68{fill:url(#Dégradé_sans_nom_2-15);}.cls-69{fill:url(#Dégradé_sans_nom_2-14);}.cls-70{fill:url(#Dégradé_sans_nom_2-13);}.cls-71{fill:url(#Dégradé_sans_nom_2-19);}.cls-72{fill:url(#Dégradé_sans_nom_2-12);}.cls-73{fill:url(#Dégradé_sans_nom_2-11);}.cls-74{fill:url(#Dégradé_sans_nom_2-10);}.cls-75{fill:url(#Dégradé_sans_nom_2-18);}.cls-76{fill:url(#Dégradé_sans_nom_2-17);}.cls-77{fill:url(#Dégradé_sans_nom_2-40);}.cls-78{fill:url(#Dégradé_sans_nom_2-38);}.cls-79{fill:url(#Dégradé_sans_nom_2-37);}.cls-80{fill:url(#Dégradé_sans_nom_2-32);}.cls-81{fill:url(#Dégradé_sans_nom_2-31);}.cls-82{fill:url(#Dégradé_sans_nom_2-34);}.cls-83{fill:url(#Dégradé_sans_nom_2-39);}.cls-84{fill:url(#Dégradé_sans_nom_2-33);}.cls-85{fill:url(#Dégradé_sans_nom_2-36);}.cls-86{fill:url(#Dégradé_sans_nom_2-35);}.cls-87{fill:url(#Dégradé_sans_nom_2-30);}.cls-88{fill:url(#Dégradé_sans_nom_2-28);}.cls-89{fill:url(#Dégradé_sans_nom_2-21);}.cls-90{fill:url(#Dégradé_sans_nom_2-26);}.cls-91{fill:url(#Dégradé_sans_nom_2-27);}.cls-92{fill:url(#Dégradé_sans_nom_2-20);}.cls-93{fill:url(#Dégradé_sans_nom_2-25);}.cls-94{fill:url(#Dégradé_sans_nom_2-23);}.cls-95{fill:url(#Dégradé_sans_nom_2-22);}.cls-96{fill:url(#Dégradé_sans_nom_2-29);}.cls-97{fill:url(#Dégradé_sans_nom_2-24);}.cls-98{fill:url(#Dégradé_sans_nom_6-3);}.cls-99{fill:url(#Dégradé_sans_nom_6-2);}.cls-100{fill:url(#Dégradé_sans_nom_6-4);}.cls-101{fill:url(#Dégradé_sans_nom_6-9);}.cls-102{fill:url(#Dégradé_sans_nom_6-6);}.cls-103{fill:url(#Dégradé_sans_nom_6-7);}.cls-104{fill:url(#Dégradé_sans_nom_6-5);}.cls-105{fill:url(#Dégradé_sans_nom_6-8);}.cls-106{fill:url(#Dégradé_sans_nom_9-9);}.cls-107{fill:url(#Dégradé_sans_nom_9-2);}.cls-108{fill:url(#Dégradé_sans_nom_9-5);}.cls-109{fill:url(#Dégradé_sans_nom_9-6);}.cls-110{fill:url(#Dégradé_sans_nom_9-3);}.cls-111{fill:url(#Dégradé_sans_nom_9-4);}.cls-112{fill:url(#Dégradé_sans_nom_9-7);}.cls-113{fill:url(#Dégradé_sans_nom_9-8);}.cls-114{fill:url(#Dégradé_sans_nom_2-5);}.cls-115{fill:url(#Dégradé_sans_nom_2-8);}.cls-116{fill:url(#Dégradé_sans_nom_2-6);}.cls-117{fill:url(#Dégradé_sans_nom_2-4);}.cls-118{fill:url(#Dégradé_sans_nom_2-3);}.cls-119{fill:url(#Dégradé_sans_nom_2-2);}.cls-120{fill:url(#Dégradé_sans_nom_2-7);}.cls-121{fill:url(#Dégradé_sans_nom_2-9);}</style><linearGradient id="Dégradé_sans_nom_2" x1="0" y1="377.26" x2="42.35" y2="377.26" gradientUnits="userSpaceOnUse"><stop offset="0" stop-color="#dcdc40"/><stop offset=".16" stop-color="#ccce3c"/><stop offset=".47" stop-color="#b5ba37"/><stop offset=".75" stop-color="#a7ae34"/><stop offset="1" stop-color="#a3aa34"/></linearGradient><linearGradient id="Dégradé_sans_nom_9" x1="35.23" y1="346.28" x2="79.35" y2="346.28" gradientUnits="userSpaceOnUse"><stop offset="0" stop-color="#971952"/><stop offset=".16" stop-color="#a42752"/><stop offset=".46" stop-color="#ba3e53"/><stop offset=".75" stop-color="#c74c53"/><stop offset="1" stop-color="#cc5154"/></linearGradient><linearGradient id="Dégradé_sans_nom_6" x1="44.33" y1="389.43" x2="88.39" y2="389.43" gradientUnits="userSpaceOnUse"><stop offset="0" stop-color="#e6bf3a"/><stop offset=".12" stop-color="#e9c431"/><stop offset=".69" stop-color="#f6dc0d"/><stop offset="1" stop-color="#fce500"/></linearGradient><linearGradient id="Dégradé_sans_nom_2-2" x1="68.1" y1="414.68" x2="110.45" y2="414.68" xlink:href="#Dégradé_sans_nom_2"/><linearGradient id="Dégradé_sans_nom_9-2" x1="103.34" y1="383.71" x2="147.46" y2="383.71" xlink:href="#Dégradé_sans_nom_9"/><linearGradient id="Dégradé_sans_nom_6-2" x1="112.44" y1="426.86" x2="156.5" y2="426.86" xlink:href="#Dégradé_sans_nom_6"/><linearGradient id="Dégradé_sans_nom_2-3" x1="136.21" y1="452.11" x2="178.55" y2="452.11" xlink:href="#Dégradé_sans_nom_2"/><linearGradient id="Dégradé_sans_nom_9-3" x1="171.44" y1="421.14" x2="215.56" y2="421.14" xlink:href="#Dégradé_sans_nom_9"/><linearGradient id="Dégradé_sans_nom_6-3" x1="180.54" y1="464.29" x2="224.6" y2="464.29" xlink:href="#Dégradé_sans_nom_6"/><linearGradient id="Dégradé_sans_nom_2-4" x1="204.31" y1="489.54" x2="246.66" y2="489.54" xlink:href="#Dégradé_sans_nom_2"/><linearGradient id="Dégradé_sans_nom_9-4" x1="239.54" y1="458.57" x2="283.66" y2="458.57" xlink:href="#Dégradé_sans_nom_9"/><linearGradient id="Dégradé_sans_nom_6-4" x1="248.65" y1="501.72" x2="292.7" y2="501.72" xlink:href="#Dégradé_sans_nom_6"/><linearGradient id="Dégradé_sans_nom_2-5" x1="272.41" y1="526.97" x2="314.76" y2="526.97" xlink:href="#Dégradé_sans_nom_2"/><linearGradient id="Dégradé_sans_nom_9-5" x1="307.65" y1="496" x2="351.77" y2="496" xlink:href="#Dégradé_sans_nom_9"/><linearGradient id="Dégradé_sans_nom_6-5" x1="316.75" y1="539.15" x2="360.81" y2="539.15" xlink:href="#Dégradé_sans_nom_6"/><linearGradient id="Dégradé_sans_nom_2-6" x1="340.52" y1="564.4" x2="382.87" y2="564.4" xlink:href="#Dégradé_sans_nom_2"/><linearGradient id="Dégradé_sans_nom_9-6" x1="375.75" y1="533.43" x2="419.87" y2="533.43" xlink:href="#Dégradé_sans_nom_9"/><linearGradient id="Dégradé_sans_nom_6-6" x1="384.85" y1="576.58" x2="428.91" y2="576.58" xlink:href="#Dégradé_sans_nom_6"/><linearGradient id="Dégradé_sans_nom_2-7" x1="408.62" y1="601.83" x2="450.97" y2="601.83" xlink:href="#Dégradé_sans_nom_2"/><linearGradient id="Dégradé_sans_nom_9-7" x1="443.85" y1="570.85" x2="487.97" y2="570.85" xlink:href="#Dégradé_sans_nom_9"/><linearGradient id="Dégradé_sans_nom_6-7" x1="452.96" y1="614.01" x2="497.01" y2="614.01" xlink:href="#Dégradé_sans_nom_6"/><linearGradient id="Dégradé_sans_nom_2-8" x1="476.73" y1="639.26" x2="519.07" y2="639.26" xlink:href="#Dégradé_sans_nom_2"/><linearGradient id="Dégradé_sans_nom_9-8" x1="511.96" y1="608.28" x2="556.08" y2="608.28" xlink:href="#Dégradé_sans_nom_9"/><linearGradient id="Dégradé_sans_nom_6-8" x1="521.06" y1="651.43" x2="565.12" y2="651.43" xlink:href="#Dégradé_sans_nom_6"/><linearGradient id="Dégradé_sans_nom_2-9" x1="10.81" y1="296.05" x2="53.16" y2="296.05" xlink:href="#Dégradé_sans_nom_2"/><linearGradient id="Dégradé_sans_nom_9-9" x1="46.04" y1="265.07" x2="90.16" y2="265.07" xlink:href="#Dégradé_sans_nom_9"/><linearGradient id="Dégradé_sans_nom_6-9" x1="55.15" y1="308.22" x2="99.2" y2="308.22" xlink:href="#Dégradé_sans_nom_6"/><linearGradient id="Dégradé_sans_nom_2-10" x1="78.91" y1="333.47" x2="121.26" y2="333.47" xlink:href="#Dégradé_sans_nom_2"/><linearGradient id="Dégradé_sans_nom_9-10" x1="114.15" y1="302.5" x2="158.27" y2="302.5" xlink:href="#Dégradé_sans_nom_9"/><linearGradient id="Dégradé_sans_nom_6-10" x1="123.25" y1="345.65" x2="167.31" y2="345.65" xlink:href="#Dégradé_sans_nom_6"/><linearGradient id="Dégradé_sans_nom_2-11" x1="147.02" y1="370.9" x2="189.37" y2="370.9" xlink:href="#Dégradé_sans_nom_2"/><linearGradient id="Dégradé_sans_nom_9-11" x1="182.25" y1="339.93" x2="226.37" y2="339.93" xlink:href="#Dégradé_sans_nom_9"/><linearGradient id="Dégradé_sans_nom_6-11" x1="191.35" y1="383.08" x2="235.41" y2="383.08" xlink:href="#Dégradé_sans_nom_6"/><linearGradient id="Dégradé_sans_nom_2-12" x1="215.12" y1="408.33" x2="257.47" y2="408.33" xlink:href="#Dégradé_sans_nom_2"/><linearGradient id="Dégradé_sans_nom_9-12" x1="250.36" y1="377.36" x2="294.47" y2="377.36" xlink:href="#Dégradé_sans_nom_9"/><linearGradient id="Dégradé_sans_nom_6-12" x1="259.46" y1="420.51" x2="303.51" y2="420.51" xlink:href="#Dégradé_sans_nom_6"/><linearGradient id="Dégradé_sans_nom_2-13" x1="283.23" y1="445.76" x2="325.57" y2="445.76" xlink:href="#Dégradé_sans_nom_2"/><linearGradient id="Dégradé_sans_nom_9-13" x1="318.46" y1="414.79" x2="362.58" y2="414.79" xlink:href="#Dégradé_sans_nom_9"/><linearGradient id="Dégradé_sans_nom_6-13" x1="327.56" y1="457.94" x2="371.62" y2="457.94" xlink:href="#Dégradé_sans_nom_6"/><linearGradient id="Dégradé_sans_nom_2-14" x1="351.33" y1="483.19" x2="393.68" y2="483.19" xlink:href="#Dégradé_sans_nom_2"/><linearGradient id="Dégradé_sans_nom_9-14" x1="386.56" y1="452.22" x2="430.68" y2="452.22" xlink:href="#Dégradé_sans_nom_9"/><linearGradient id="Dégradé_sans_nom_6-14" x1="395.66" y1="495.37" x2="439.72" y2="495.37" xlink:href="#Dégradé_sans_nom_6"/><linearGradient id="Dégradé_sans_nom_2-15" x1="419.43" y1="520.62" x2="461.78" y2="520.62" xlink:href="#Dégradé_sans_nom_2"/><linearGradient id="Dégradé_sans_nom_9-15" x1="454.67" y1="489.64" x2="498.78" y2="489.64" xlink:href="#Dégradé_sans_nom_9"/><linearGradient id="Dégradé_sans_nom_6-15" x1="463.77" y1="532.8" x2="507.82" y2="532.8" xlink:href="#Dégradé_sans_nom_6"/><linearGradient id="Dégradé_sans_nom_2-16" x1="487.54" y1="558.05" x2="529.88" y2="558.05" xlink:href="#Dégradé_sans_nom_2"/><linearGradient id="Dégradé_sans_nom_9-16" x1="522.77" y1="527.07" x2="566.89" y2="527.07" xlink:href="#Dégradé_sans_nom_9"/><linearGradient id="Dégradé_sans_nom_6-16" x1="531.87" y1="570.22" x2="575.93" y2="570.22" xlink:href="#Dégradé_sans_nom_6"/><linearGradient id="Dégradé_sans_nom_2-17" x1="21.62" y1="214.84" x2="63.97" y2="214.84" xlink:href="#Dégradé_sans_nom_2"/><linearGradient id="Dégradé_sans_nom_9-17" x1="56.86" y1="183.86" x2="100.97" y2="183.86" xlink:href="#Dégradé_sans_nom_9"/><linearGradient id="Dégradé_sans_nom_6-17" x1="65.96" y1="227.01" x2="110.01" y2="227.01" xlink:href="#Dégradé_sans_nom_6"/><linearGradient id="Dégradé_sans_nom_2-18" x1="89.73" y1="252.26" x2="132.07" y2="252.26" xlink:href="#Dégradé_sans_nom_2"/><linearGradient id="Dégradé_sans_nom_9-18" x1="124.96" y1="221.29" x2="169.08" y2="221.29" xlink:href="#Dégradé_sans_nom_9"/><linearGradient id="Dégradé_sans_nom_6-18" x1="134.06" y1="264.44" x2="178.12" y2="264.44" xlink:href="#Dégradé_sans_nom_6"/><linearGradient id="Dégradé_sans_nom_2-19" x1="157.83" y1="289.69" x2="200.18" y2="289.69" xlink:href="#Dégradé_sans_nom_2"/><linearGradient id="Dégradé_sans_nom_9-19" x1="193.06" y1="258.72" x2="237.18" y2="258.72" xlink:href="#Dégradé_sans_nom_9"/><linearGradient id="Dégradé_sans_nom_6-19" x1="202.16" y1="301.87" x2="246.22" y2="301.87" xlink:href="#Dégradé_sans_nom_6"/><linearGradient id="Dégradé_sans_nom_2-20" x1="225.93" y1="327.12" x2="268.28" y2="327.12" xlink:href="#Dégradé_sans_nom_2"/><linearGradient id="Dégradé_sans_nom_9-20" x1="261.17" y1="296.15" x2="305.28" y2="296.15" xlink:href="#Dégradé_sans_nom_9"/><linearGradient id="Dégradé_sans_nom_6-20" x1="270.27" y1="339.3" x2="314.32" y2="339.3" xlink:href="#Dégradé_sans_nom_6"/><linearGradient id="Dégradé_sans_nom_2-21" x1="294.04" y1="364.55" x2="336.38" y2="364.55" xlink:href="#Dégradé_sans_nom_2"/><linearGradient id="Dégradé_sans_nom_9-21" x1="329.27" y1="333.58" x2="373.39" y2="333.58" xlink:href="#Dégradé_sans_nom_9"/><linearGradient id="Dégradé_sans_nom_6-21" x1="338.37" y1="376.73" x2="382.43" y2="376.73" xlink:href="#Dégradé_sans_nom_6"/><linearGradient id="Dégradé_sans_nom_2-22" x1="362.14" y1="401.98" x2="404.49" y2="401.98" xlink:href="#Dégradé_sans_nom_2"/><linearGradient id="Dégradé_sans_nom_9-22" x1="397.37" y1="371.01" x2="441.49" y2="371.01" xlink:href="#Dégradé_sans_nom_9"/><linearGradient id="Dégradé_sans_nom_6-22" x1="406.47" y1="414.16" x2="450.53" y2="414.16" xlink:href="#Dégradé_sans_nom_6"/><linearGradient id="Dégradé_sans_nom_2-23" x1="430.24" y1="439.41" x2="472.59" y2="439.41" xlink:href="#Dégradé_sans_nom_2"/><linearGradient id="Dégradé_sans_nom_9-23" x1="465.48" y1="408.43" x2="509.6" y2="408.43" xlink:href="#Dégradé_sans_nom_9"/><linearGradient id="Dégradé_sans_nom_6-23" x1="474.58" y1="451.59" x2="518.64" y2="451.59" xlink:href="#Dégradé_sans_nom_6"/><linearGradient id="Dégradé_sans_nom_2-24" x1="498.35" y1="476.84" x2="540.69" y2="476.84" xlink:href="#Dégradé_sans_nom_2"/><linearGradient id="Dégradé_sans_nom_9-24" x1="533.58" y1="445.86" x2="577.7" y2="445.86" xlink:href="#Dégradé_sans_nom_9"/><linearGradient id="Dégradé_sans_nom_6-24" x1="542.68" y1="489.01" x2="586.74" y2="489.01" xlink:href="#Dégradé_sans_nom_6"/><linearGradient id="Dégradé_sans_nom_2-25" x1="32.43" y1="133.63" x2="74.78" y2="133.63" xlink:href="#Dégradé_sans_nom_2"/><linearGradient id="Dégradé_sans_nom_9-25" x1="67.67" y1="102.65" x2="111.78" y2="102.65" xlink:href="#Dégradé_sans_nom_9"/><linearGradient id="Dégradé_sans_nom_6-25" x1="76.77" y1="145.8" x2="120.82" y2="145.8" xlink:href="#Dégradé_sans_nom_6"/><linearGradient id="Dégradé_sans_nom_2-26" x1="100.54" y1="171.05" x2="142.88" y2="171.05" xlink:href="#Dégradé_sans_nom_2"/><linearGradient id="Dégradé_sans_nom_9-26" x1="135.77" y1="140.08" x2="179.89" y2="140.08" xlink:href="#Dégradé_sans_nom_9"/><linearGradient id="Dégradé_sans_nom_6-26" x1="144.87" y1="183.23" x2="188.93" y2="183.23" xlink:href="#Dégradé_sans_nom_6"/><linearGradient id="Dégradé_sans_nom_2-27" x1="168.64" y1="208.48" x2="210.99" y2="208.48" xlink:href="#Dégradé_sans_nom_2"/><linearGradient id="Dégradé_sans_nom_9-27" x1="203.87" y1="177.51" x2="247.99" y2="177.51" xlink:href="#Dégradé_sans_nom_9"/><linearGradient id="Dégradé_sans_nom_6-27" x1="212.97" y1="220.66" x2="257.03" y2="220.66" xlink:href="#Dégradé_sans_nom_6"/><linearGradient id="Dégradé_sans_nom_2-28" x1="236.74" y1="245.91" x2="279.09" y2="245.91" xlink:href="#Dégradé_sans_nom_2"/><linearGradient id="Dégradé_sans_nom_9-28" x1="271.98" y1="214.94" x2="316.1" y2="214.94" xlink:href="#Dégradé_sans_nom_9"/><linearGradient id="Dégradé_sans_nom_6-28" x1="281.08" y1="258.09" x2="325.14" y2="258.09" xlink:href="#Dégradé_sans_nom_6"/><linearGradient id="Dégradé_sans_nom_2-29" x1="304.85" y1="283.34" x2="347.19" y2="283.34" xlink:href="#Dégradé_sans_nom_2"/><linearGradient id="Dégradé_sans_nom_9-29" x1="340.08" y1="252.37" x2="384.2" y2="252.37" xlink:href="#Dégradé_sans_nom_9"/><linearGradient id="Dégradé_sans_nom_6-29" x1="349.18" y1="295.52" x2="393.24" y2="295.52" xlink:href="#Dégradé_sans_nom_6"/><linearGradient id="Dégradé_sans_nom_2-30" x1="372.95" y1="320.77" x2="415.3" y2="320.77" xlink:href="#Dégradé_sans_nom_2"/><linearGradient id="Dégradé_sans_nom_9-30" x1="408.18" y1="289.8" x2="452.3" y2="289.8" xlink:href="#Dégradé_sans_nom_9"/><linearGradient id="Dégradé_sans_nom_6-30" x1="417.28" y1="332.95" x2="461.34" y2="332.95" xlink:href="#Dégradé_sans_nom_6"/><linearGradient id="Dégradé_sans_nom_2-31" x1="441.05" y1="358.2" x2="483.4" y2="358.2" xlink:href="#Dégradé_sans_nom_2"/><linearGradient id="Dégradé_sans_nom_9-31" x1="476.29" y1="327.22" x2="520.41" y2="327.22" xlink:href="#Dégradé_sans_nom_9"/><linearGradient id="Dégradé_sans_nom_6-31" x1="485.39" y1="370.38" x2="529.45" y2="370.38" xlink:href="#Dégradé_sans_nom_6"/><linearGradient id="Dégradé_sans_nom_2-32" x1="509.16" y1="395.63" x2="551.51" y2="395.63" xlink:href="#Dégradé_sans_nom_2"/><linearGradient id="Dégradé_sans_nom_9-32" x1="544.39" y1="364.65" x2="588.51" y2="364.65" xlink:href="#Dégradé_sans_nom_9"/><linearGradient id="Dégradé_sans_nom_6-32" x1="553.49" y1="407.8" x2="597.55" y2="407.8" xlink:href="#Dégradé_sans_nom_6"/><linearGradient id="Dégradé_sans_nom_2-33" x1="43.24" y1="52.42" x2="85.59" y2="52.42" xlink:href="#Dégradé_sans_nom_2"/><linearGradient id="Dégradé_sans_nom_9-33" x1="78.48" y1="21.44" x2="122.6" y2="21.44" xlink:href="#Dégradé_sans_nom_9"/><linearGradient id="Dégradé_sans_nom_6-33" x1="87.58" y1="64.59" x2="131.64" y2="64.59" xlink:href="#Dégradé_sans_nom_6"/><linearGradient id="Dégradé_sans_nom_2-34" x1="111.35" y1="89.84" x2="153.69" y2="89.84" xlink:href="#Dégradé_sans_nom_2"/><linearGradient id="Dégradé_sans_nom_9-34" x1="146.58" y1="58.87" x2="190.7" y2="58.87" xlink:href="#Dégradé_sans_nom_9"/><linearGradient id="Dégradé_sans_nom_6-34" x1="155.68" y1="102.02" x2="199.74" y2="102.02" xlink:href="#Dégradé_sans_nom_6"/><linearGradient id="Dégradé_sans_nom_2-35" x1="179.45" y1="127.27" x2="221.8" y2="127.27" xlink:href="#Dégradé_sans_nom_2"/><linearGradient id="Dégradé_sans_nom_9-35" x1="214.68" y1="96.3" x2="258.8" y2="96.3" xlink:href="#Dégradé_sans_nom_9"/><linearGradient id="Dégradé_sans_nom_6-35" x1="223.78" y1="139.45" x2="267.84" y2="139.45" xlink:href="#Dégradé_sans_nom_6"/><linearGradient id="Dégradé_sans_nom_2-36" x1="247.55" y1="164.7" x2="289.9" y2="164.7" xlink:href="#Dégradé_sans_nom_2"/><linearGradient id="Dégradé_sans_nom_9-36" x1="282.79" y1="133.73" x2="326.91" y2="133.73" xlink:href="#Dégradé_sans_nom_9"/><linearGradient id="Dégradé_sans_nom_6-36" x1="291.89" y1="176.88" x2="335.95" y2="176.88" xlink:href="#Dégradé_sans_nom_6"/><linearGradient id="Dégradé_sans_nom_2-37" x1="315.66" y1="202.13" x2="358.01" y2="202.13" xlink:href="#Dégradé_sans_nom_2"/><linearGradient id="Dégradé_sans_nom_9-37" x1="350.89" y1="171.16" x2="395.01" y2="171.16" xlink:href="#Dégradé_sans_nom_9"/><linearGradient id="Dégradé_sans_nom_6-37" x1="359.99" y1="214.31" x2="404.05" y2="214.31" xlink:href="#Dégradé_sans_nom_6"/><linearGradient id="Dégradé_sans_nom_2-38" x1="383.76" y1="239.56" x2="426.11" y2="239.56" xlink:href="#Dégradé_sans_nom_2"/><linearGradient id="Dégradé_sans_nom_9-38" x1="418.99" y1="208.59" x2="463.11" y2="208.59" xlink:href="#Dégradé_sans_nom_9"/><linearGradient id="Dégradé_sans_nom_6-38" x1="428.1" y1="251.74" x2="472.15" y2="251.74" xlink:href="#Dégradé_sans_nom_6"/><linearGradient id="Dégradé_sans_nom_2-39" x1="451.86" y1="276.99" x2="494.21" y2="276.99" xlink:href="#Dégradé_sans_nom_2"/><linearGradient id="Dégradé_sans_nom_9-39" x1="487.1" y1="246.02" x2="531.22" y2="246.02" xlink:href="#Dégradé_sans_nom_9"/><linearGradient id="Dégradé_sans_nom_6-39" x1="496.2" y1="289.17" x2="540.26" y2="289.17" xlink:href="#Dégradé_sans_nom_6"/><linearGradient id="Dégradé_sans_nom_2-40" x1="519.97" y1="314.42" x2="562.32" y2="314.42" xlink:href="#Dégradé_sans_nom_2"/><linearGradient id="Dégradé_sans_nom_9-40" x1="555.2" y1="283.44" x2="599.32" y2="283.44" xlink:href="#Dégradé_sans_nom_9"/><linearGradient id="Dégradé_sans_nom_6-40" x1="564.3" y1="326.59" x2="608.36" y2="326.59" xlink:href="#Dégradé_sans_nom_6"/></defs><g id="Calque_1-2"><path class="cls-1" d="m38.41,366.02l-34.65-11.82L0,365.22l25.13,8.57-20.24,17.76,7.68,8.75,27.8-24.4c1.56-1.37,2.27-3.47,1.87-5.51-.4-2.03-1.87-3.71-3.83-4.38Z"/><path class="cls-2" d="m4.38,355.48l33.7,11.49c1.62.55,2.84,1.94,3.17,3.62.33,1.68-.26,3.43-1.55,4.56l-27.05,23.74-6.36-7.24,19.49-17.1,1.3-1.14-1.64-.56-24.19-8.25,3.11-9.12m-.62-1.27l-3.76,11.01,25.13,8.57-20.24,17.76,7.68,8.75,27.8-24.4c1.56-1.37,2.27-3.47,1.87-5.51-.4-2.03-1.87-3.71-3.83-4.38l-34.65-11.82h0Z"/><path class="cls-1" d="m71.93,333.84l-20.75,17.17-4.48-26.17-11.47,1.96,6.18,36.09c.35,2.04,1.77,3.76,3.71,4.47.93.34,1.92.45,2.9.3.09-.01.17-.03.26-.05.94-.19,1.83-.61,2.57-1.22l28.49-23.58-7.42-8.96Z"/><path class="cls-4" d="m45.89,325.99l4.31,25.19.29,1.7,1.33-1.1,19.98-16.53,6.15,7.42-27.72,22.95c-.61.51-1.35.86-2.13,1.01-.07.01-.15.03-.22.04-.24.04-.48.06-.73.06-.57,0-1.13-.1-1.67-.3-1.61-.6-2.79-2.01-3.07-3.71l-6.01-35.1,9.5-1.63m.82-1.15l-11.47,1.96,6.18,36.09c.35,2.04,1.77,3.76,3.71,4.47.65.24,1.33.36,2.02.36.29,0,.59-.02.88-.07.09-.01.17-.03.26-.05.94-.19,1.83-.61,2.57-1.22l28.49-23.58-7.42-8.96-20.75,17.17-4.48-26.17h0Z"/><path class="cls-1" d="m49.44,370.31c-2.82.34-5.05,2.86-5.06,5.76l-.05,37.43h11.64s.04-32.32.04-32.32l32.38-4.28-1.53-11.54-37.43,4.95Z"/><path class="cls-3" d="m86.01,366.48l1.26,9.56-31.39,4.15-.87.11v.88s-.04,31.33-.04,31.33h-9.64s.05-36.44.05-36.44c0-2.39,1.84-4.49,4.19-4.77l36.44-4.82m.86-1.12l-37.43,4.95c-2.82.34-5.05,2.86-5.06,5.76l-.05,37.43h11.64s.04-32.32.04-32.32l32.38-4.28-1.53-11.54h0Z"/><path class="cls-1" d="m106.51,403.45l-34.65-11.82-3.76,11.01,25.13,8.57-20.24,17.76,7.68,8.75,27.8-24.4c1.56-1.37,2.27-3.47,1.87-5.51-.4-2.03-1.87-3.71-3.83-4.38Z"/><path class="cls-119" d="m72.48,392.91l33.7,11.49c1.62.55,2.84,1.94,3.17,3.62.33,1.68-.26,3.43-1.55,4.56l-27.05,23.74-6.36-7.24,19.49-17.1,1.3-1.14-1.64-.56-24.19-8.25,3.11-9.12m-.62-1.27l-3.76,11.01,25.13,8.57-20.24,17.76,7.68,8.75,27.8-24.4c1.56-1.37,2.27-3.47,1.87-5.51-.4-2.03-1.87-3.71-3.83-4.38l-34.65-11.82h0Z"/><path class="cls-1" d="m140.03,371.27l-20.75,17.17-4.48-26.17-11.47,1.96,6.18,36.09c.35,2.04,1.77,3.76,3.71,4.47.93.34,1.92.45,2.9.3.09-.01.17-.03.26-.05.94-.19,1.83-.61,2.57-1.22l28.49-23.58-7.42-8.96Z"/><path class="cls-107" d="m113.99,363.42l4.31,25.19.29,1.7,1.33-1.1,19.97-16.53,6.15,7.42-27.72,22.95c-.61.51-1.35.86-2.13,1.01-.07.01-.15.03-.22.04-.24.04-.48.06-.73.06-.57,0-1.13-.1-1.67-.3-1.61-.6-2.79-2.01-3.07-3.71l-6.01-35.1,9.5-1.63m.82-1.15l-11.47,1.96,6.18,36.09c.35,2.04,1.77,3.76,3.71,4.47.65.24,1.33.36,2.02.36.29,0,.59-.02.88-.07.09-.01.17-.03.26-.05.94-.19,1.83-.61,2.57-1.22l28.49-23.58-7.42-8.96-20.75,17.17-4.48-26.17h0Z"/><path class="cls-1" d="m117.54,407.73c-2.82.34-5.05,2.86-5.06,5.76l-.05,37.43h11.64s.04-32.32.04-32.32l32.38-4.28-1.53-11.54-37.43,4.95Z"/><path class="cls-99" d="m154.11,403.91l1.26,9.56-31.39,4.15-.87.11v.88s-.04,31.33-.04,31.33h-9.64s.05-36.44.05-36.44c0-2.39,1.84-4.49,4.19-4.77l36.44-4.82m.86-1.12l-37.43,4.95c-2.82.34-5.05,2.86-5.06,5.76l-.05,37.43h11.64s.04-32.32.04-32.32l32.38-4.28-1.53-11.54h0Z"/><path class="cls-1" d="m174.61,440.88l-34.65-11.82-3.76,11.01,25.13,8.57-20.24,17.76,7.68,8.75,27.8-24.4c1.56-1.37,2.27-3.47,1.87-5.51-.4-2.03-1.87-3.71-3.83-4.38Z"/><path class="cls-118" d="m140.59,430.33l33.7,11.49c1.62.55,2.84,1.94,3.17,3.62.33,1.68-.26,3.43-1.55,4.56l-27.05,23.74-6.36-7.24,19.49-17.1,1.3-1.14-1.64-.56-24.19-8.25,3.11-9.12m-.62-1.27l-3.76,11.01,25.13,8.57-20.24,17.76,7.68,8.75,27.8-24.4c1.56-1.37,2.27-3.47,1.87-5.51-.4-2.03-1.87-3.71-3.83-4.38l-34.65-11.82h0Z"/><path class="cls-1" d="m208.14,408.7l-20.75,17.17-4.48-26.17-11.47,1.96,6.18,36.09c.35,2.04,1.77,3.76,3.71,4.47.93.34,1.92.45,2.9.3.09-.01.17-.03.26-.05.94-.19,1.83-.61,2.57-1.22l28.49-23.58-7.42-8.96Z"/><path class="cls-110" d="m182.1,400.85l4.31,25.19.29,1.7,1.33-1.1,19.98-16.53,6.15,7.42-27.72,22.95c-.61.51-1.35.86-2.13,1.01-.07.01-.15.03-.22.04-.24.04-.48.06-.73.06-.57,0-1.13-.1-1.67-.3-1.61-.6-2.79-2.01-3.07-3.71l-6.01-35.1,9.5-1.63m.82-1.15l-11.47,1.96,6.18,36.09c.35,2.04,1.77,3.76,3.71,4.47.65.24,1.33.36,2.02.36.29,0,.59-.02.88-.07.09-.01.17-.03.26-.05.94-.19,1.83-.61,2.57-1.22l28.49-23.58-7.42-8.96-20.75,17.17-4.48-26.17h0Z"/><path class="cls-1" d="m185.65,445.16c-2.82.34-5.05,2.86-5.06,5.76l-.05,37.43h11.64s.04-32.32.04-32.32l32.38-4.28-1.53-11.54-37.43,4.95Z"/><path class="cls-98" d="m222.21,441.34l1.26,9.56-31.39,4.15-.87.11v.88s-.04,31.33-.04,31.33h-9.64s.05-36.44.05-36.44c0-2.39,1.84-4.49,4.19-4.77l36.44-4.82m.86-1.12l-37.43,4.95c-2.82.34-5.05,2.86-5.06,5.76l-.05,37.43h11.64s.04-32.32.04-32.32l32.38-4.28-1.53-11.54h0Z"/><path class="cls-1" d="m242.72,478.31l-34.65-11.82-3.76,11.01,25.13,8.57-20.24,17.76,7.68,8.75,27.8-24.4c1.56-1.37,2.27-3.47,1.87-5.51-.4-2.03-1.87-3.71-3.83-4.38Z"/><path class="cls-117" d="m208.69,467.76l33.7,11.49c1.62.55,2.84,1.94,3.17,3.62.33,1.68-.26,3.43-1.55,4.56l-27.05,23.74-6.36-7.24,19.49-17.1,1.3-1.14-1.64-.56-24.19-8.25,3.11-9.12m-.62-1.27l-3.76,11.01,25.13,8.57-20.24,17.76,7.68,8.75,27.8-24.4c1.56-1.37,2.27-3.47,1.87-5.51-.4-2.03-1.87-3.71-3.83-4.38l-34.65-11.82h0Z"/><path class="cls-1" d="m276.24,446.13l-20.75,17.17-4.48-26.17-11.47,1.96,6.18,36.09c.35,2.04,1.77,3.76,3.71,4.47.93.34,1.92.45,2.9.3.09-.01.17-.03.26-.05.94-.19,1.83-.61,2.57-1.22l28.49-23.58-7.42-8.96Z"/><path class="cls-111" d="m250.2,438.28l4.31,25.19.29,1.7,1.33-1.1,19.98-16.53,6.15,7.42-27.72,22.95c-.61.51-1.35.86-2.13,1.01-.07.01-.15.03-.22.04-.24.04-.48.06-.73.06-.57,0-1.13-.1-1.67-.3-1.61-.6-2.79-2.01-3.07-3.71l-6.01-35.1,9.5-1.63m.82-1.15l-11.47,1.96,6.18,36.09c.35,2.04,1.77,3.76,3.71,4.47.65.24,1.33.36,2.02.36.29,0,.59-.02.88-.07.09-.01.17-.03.26-.05.94-.19,1.83-.61,2.57-1.22l28.49-23.58-7.42-8.96-20.75,17.17-4.48-26.17h0Z"/><path class="cls-1" d="m253.75,482.59c-2.82.34-5.05,2.86-5.06,5.76l-.05,37.43h11.64s.04-32.32.04-32.32l32.38-4.28-1.53-11.54-37.43,4.95Z"/><path class="cls-100" d="m290.32,478.77l1.26,9.56-31.39,4.15-.87.11v.88s-.04,31.33-.04,31.33h-9.64s.05-36.44.05-36.44c0-2.39,1.84-4.49,4.19-4.77l36.44-4.82m.86-1.12l-37.43,4.95c-2.82.34-5.05,2.86-5.06,5.76l-.05,37.43h11.64s.04-32.32.04-32.32l32.38-4.28-1.53-11.54h0Z"/><path class="cls-1" d="m310.82,515.74l-34.65-11.82-3.76,11.01,25.13,8.57-20.24,17.76,7.68,8.75,27.8-24.4c1.56-1.37,2.27-3.47,1.87-5.51-.4-2.03-1.87-3.71-3.83-4.38Z"/><path class="cls-114" d="m276.79,505.19l33.7,11.49c1.62.55,2.84,1.94,3.17,3.62.33,1.68-.26,3.43-1.55,4.56l-27.05,23.74-6.36-7.24,19.49-17.1,1.3-1.14-1.64-.56-24.19-8.25,3.11-9.12m-.62-1.27l-3.76,11.01,25.13,8.57-20.24,17.76,7.68,8.75,27.8-24.4c1.56-1.37,2.27-3.47,1.87-5.51-.4-2.03-1.87-3.71-3.83-4.38l-34.65-11.82h0Z"/><path class="cls-1" d="m344.35,483.55l-20.75,17.17-4.48-26.17-11.47,1.96,6.18,36.09c.35,2.04,1.77,3.76,3.71,4.47.93.34,1.92.45,2.9.3.09-.01.17-.03.26-.05.94-.19,1.83-.61,2.57-1.22l28.49-23.58-7.42-8.96Z"/><path class="cls-108" d="m318.3,475.71l4.31,25.19.29,1.7,1.33-1.1,19.97-16.53,6.15,7.42-27.72,22.95c-.61.51-1.35.86-2.13,1.01-.07.01-.15.03-.22.04-.24.04-.48.06-.73.06-.57,0-1.13-.1-1.67-.3-1.61-.6-2.79-2.01-3.07-3.71l-6.01-35.1,9.5-1.63m.82-1.15l-11.47,1.96,6.18,36.09c.35,2.04,1.77,3.76,3.71,4.47.65.24,1.33.36,2.02.36.29,0,.59-.02.88-.07.09-.01.17-.03.26-.05.94-.19,1.83-.61,2.57-1.22l28.49-23.58-7.42-8.96-20.75,17.17-4.48-26.17h0Z"/><path class="cls-1" d="m321.85,520.02c-2.82.34-5.05,2.86-5.06,5.76l-.05,37.43h11.64s.04-32.32.04-32.32l32.38-4.28-1.53-11.54-37.43,4.95Z"/><path class="cls-104" d="m358.42,516.19l1.26,9.56-31.39,4.15-.87.11v.88s-.04,31.33-.04,31.33h-9.64s.05-36.44.05-36.44c0-2.39,1.84-4.49,4.19-4.77l36.44-4.82m.86-1.12l-37.43,4.95c-2.82.34-5.05,2.86-5.06,5.76l-.05,37.43h11.64s.04-32.32.04-32.32l32.38-4.28-1.53-11.54h0Z"/><path class="cls-1" d="m378.92,553.17l-34.65-11.82-3.76,11.01,25.13,8.57-20.24,17.76,7.68,8.75,27.8-24.4c1.56-1.37,2.27-3.47,1.87-5.51-.4-2.03-1.87-3.71-3.83-4.38Z"/><path class="cls-116" d="m344.9,542.62l33.7,11.49c1.62.55,2.84,1.94,3.17,3.62.33,1.68-.26,3.43-1.55,4.56l-27.05,23.74-6.36-7.24,19.49-17.1,1.3-1.14-1.64-.56-24.19-8.25,3.11-9.12m-.62-1.27l-3.76,11.01,25.13,8.57-20.24,17.76,7.68,8.75,27.8-24.4c1.56-1.37,2.27-3.47,1.87-5.51-.4-2.03-1.87-3.71-3.83-4.38l-34.65-11.82h0Z"/><path class="cls-1" d="m412.45,520.98l-20.75,17.17-4.48-26.17-11.47,1.96,6.18,36.09c.35,2.04,1.77,3.76,3.71,4.47.93.34,1.92.45,2.9.3.09-.01.17-.03.26-.05.94-.19,1.83-.61,2.57-1.22l28.49-23.58-7.42-8.96Z"/><path class="cls-109" d="m386.41,513.14l4.31,25.19.29,1.7,1.33-1.1,19.97-16.53,6.15,7.42-27.72,22.95c-.61.51-1.35.86-2.13,1.01-.07.01-.15.03-.22.04-.24.04-.48.06-.73.06-.57,0-1.13-.1-1.67-.3-1.61-.6-2.79-2.01-3.07-3.71l-6.01-35.1,9.5-1.63m.82-1.15l-11.47,1.96,6.18,36.09c.35,2.04,1.77,3.76,3.71,4.47.65.24,1.33.36,2.02.36.29,0,.59-.02.88-.07.09-.01.17-.03.26-.05.94-.19,1.83-.61,2.57-1.22l28.49-23.58-7.42-8.96-20.75,17.17-4.48-26.17h0Z"/><path class="cls-1" d="m389.96,557.45c-2.82.34-5.05,2.86-5.06,5.76l-.05,37.43h11.64s.04-32.32.04-32.32l32.38-4.28-1.53-11.54-37.43,4.95Z"/><path class="cls-102" d="m426.52,553.62l1.26,9.56-31.39,4.15-.87.11v.88s-.04,31.33-.04,31.33h-9.64s.05-36.44.05-36.44c0-2.39,1.84-4.49,4.19-4.77l36.44-4.82m.86-1.12l-37.43,4.95c-2.82.34-5.05,2.86-5.06,5.76l-.05,37.43h11.64s.04-32.32.04-32.32l32.38-4.28-1.53-11.54h0Z"/><path class="cls-1" d="m447.03,590.6l-34.65-11.82-3.76,11.01,25.13,8.57-20.24,17.76,7.68,8.75,27.8-24.4c1.56-1.37,2.27-3.47,1.87-5.51-.4-2.03-1.87-3.71-3.83-4.38Z"/><path class="cls-120" d="m413,580.05l33.7,11.49c1.62.55,2.84,1.94,3.17,3.62.33,1.68-.26,3.43-1.55,4.56l-27.05,23.74-6.36-7.24,19.49-17.1,1.3-1.14-1.64-.56-24.19-8.25,3.11-9.12m-.62-1.27l-3.76,11.01,25.13,8.57-20.24,17.76,7.68,8.75,27.8-24.4c1.56-1.37,2.27-3.47,1.87-5.51-.4-2.03-1.87-3.71-3.83-4.38l-34.65-11.82h0Z"/><path class="cls-1" d="m480.55,558.41l-20.75,17.17-4.48-26.17-11.47,1.96,6.18,36.09c.35,2.04,1.77,3.76,3.71,4.47.93.34,1.92.45,2.9.3.09-.01.17-.03.26-.05.94-.19,1.83-.61,2.57-1.22l28.49-23.58-7.42-8.96Z"/><path class="cls-112" d="m454.51,550.57l4.31,25.19.29,1.7,1.33-1.1,19.97-16.53,6.15,7.42-27.72,22.95c-.61.51-1.35.86-2.13,1.01-.07.01-.15.03-.22.04-.24.04-.48.06-.73.06-.57,0-1.13-.1-1.67-.3-1.61-.6-2.79-2.01-3.07-3.7l-6.01-35.1,9.5-1.63m.82-1.15l-11.47,1.96,6.18,36.09c.35,2.04,1.77,3.76,3.71,4.47.65.24,1.33.36,2.02.36.29,0,.59-.02.88-.07.09-.01.17-.03.26-.05.94-.19,1.83-.61,2.57-1.22l28.49-23.58-7.42-8.96-20.75,17.17-4.48-26.17h0Z"/><path class="cls-1" d="m458.06,594.88c-2.82.34-5.05,2.86-5.06,5.76l-.05,37.43h11.64s.04-32.32.04-32.32l32.38-4.28-1.53-11.54-37.43,4.95Z"/><path class="cls-103" d="m494.63,591.05l1.26,9.56-31.39,4.15-.87.11v.88s-.04,31.33-.04,31.33h-9.64s.05-36.44.05-36.44c0-2.39,1.84-4.49,4.19-4.77l36.44-4.82m.86-1.12l-37.43,4.95c-2.82.34-5.05,2.86-5.06,5.76l-.05,37.43h11.64s.04-32.32.04-32.32l32.38-4.28-1.53-11.54h0Z"/><path class="cls-1" d="m515.13,628.02l-34.65-11.82-3.76,11.01,25.13,8.57-20.24,17.76,7.68,8.75,27.8-24.4c1.56-1.37,2.27-3.47,1.87-5.51-.4-2.03-1.87-3.71-3.83-4.38Z"/><path class="cls-115" d="m481.11,617.48l33.7,11.49c1.62.55,2.84,1.94,3.17,3.62.33,1.68-.26,3.43-1.55,4.56l-27.05,23.74-6.36-7.24,19.49-17.1,1.3-1.14-1.64-.56-24.19-8.25,3.11-9.12m-.62-1.27l-3.76,11.01,25.13,8.57-20.24,17.76,7.68,8.75,27.8-24.4c1.56-1.37,2.27-3.47,1.87-5.51-.4-2.03-1.87-3.71-3.83-4.38l-34.65-11.82h0Z"/><path class="cls-1" d="m548.66,595.84l-20.75,17.17-4.48-26.17-11.47,1.96,6.18,36.09c.35,2.04,1.77,3.76,3.71,4.47.93.34,1.92.45,2.9.3.09-.01.17-.03.26-.05.94-.19,1.83-.61,2.57-1.22l28.49-23.58-7.42-8.96Z"/><path class="cls-113" d="m522.61,587.99l4.31,25.19.29,1.7,1.33-1.1,19.97-16.53,6.15,7.42-27.72,22.95c-.61.51-1.35.86-2.13,1.01-.07.01-.15.03-.22.04-.24.04-.48.06-.73.06-.57,0-1.13-.1-1.67-.3-1.61-.6-2.79-2.01-3.07-3.7l-6.01-35.1,9.5-1.63m.82-1.15l-11.47,1.96,6.18,36.09c.35,2.04,1.77,3.76,3.71,4.47.65.24,1.33.36,2.02.36.29,0,.59-.02.88-.07.09-.01.17-.03.26-.05.94-.19,1.83-.61,2.57-1.22l28.49-23.58-7.42-8.97-20.75,17.17-4.48-26.17h0Z"/><path class="cls-1" d="m526.16,632.31c-2.82.34-5.05,2.86-5.06,5.76l-.05,37.43h11.64s.04-32.32.04-32.32l32.38-4.28-1.53-11.54-37.43,4.95Z"/><path class="cls-105" d="m562.73,628.48l1.26,9.56-31.39,4.15-.87.11v.88s-.04,31.33-.04,31.33h-9.64s.05-36.44.05-36.44c0-2.39,1.84-4.49,4.19-4.77l36.44-4.82m.86-1.12l-37.43,4.95c-2.82.34-5.05,2.86-5.06,5.76l-.05,37.43h11.64s.04-32.32.04-32.32l32.38-4.28-1.53-11.54h0Z"/><path class="cls-1" d="m49.22,284.81l-34.65-11.82-3.76,11.01,25.13,8.57-20.24,17.76,7.68,8.75,27.8-24.4c1.56-1.37,2.27-3.47,1.87-5.51-.4-2.03-1.87-3.71-3.83-4.38Z"/><path class="cls-121" d="m15.19,274.27l33.7,11.49c1.62.55,2.84,1.94,3.17,3.62.33,1.68-.26,3.43-1.55,4.56l-27.05,23.74-6.36-7.24,19.49-17.1,1.3-1.14-1.64-.56-24.19-8.25,3.11-9.12m-.62-1.27l-3.76,11.01,25.13,8.57-20.24,17.76,7.68,8.75,27.8-24.4c1.56-1.37,2.27-3.47,1.87-5.51-.4-2.03-1.87-3.71-3.83-4.38l-34.65-11.82h0Z"/><path class="cls-1" d="m82.74,252.63l-20.75,17.17-4.48-26.17-11.47,1.96,6.18,36.09c.35,2.04,1.77,3.76,3.71,4.47.93.34,1.92.45,2.9.3.09-.01.17-.03.26-.05.94-.19,1.83-.61,2.57-1.22l28.49-23.58-7.42-8.96Z"/><path class="cls-106" d="m56.7,244.78l4.31,25.19.29,1.7,1.33-1.1,19.97-16.53,6.15,7.42-27.72,22.95c-.61.51-1.35.86-2.13,1.01-.07.01-.15.03-.22.04-.24.04-.48.06-.73.06-.57,0-1.13-.1-1.67-.3-1.61-.6-2.79-2.01-3.07-3.71l-6.01-35.1,9.5-1.63m.82-1.15l-11.47,1.96,6.18,36.09c.35,2.04,1.77,3.76,3.71,4.47.65.24,1.33.36,2.02.36.29,0,.59-.02.88-.07.09-.01.17-.03.26-.05.94-.19,1.83-.61,2.57-1.22l28.49-23.58-7.42-8.96-20.75,17.17-4.48-26.17h0Z"/><path class="cls-1" d="m60.25,289.1c-2.82.34-5.05,2.86-5.06,5.76l-.05,37.43h11.64s.04-32.32.04-32.32l32.38-4.28-1.53-11.54-37.43,4.95Z"/><path class="cls-101" d="m96.82,285.27l1.26,9.56-31.39,4.15-.87.11v.88s-.04,31.33-.04,31.33h-9.64s.05-36.44.05-36.44c0-2.39,1.84-4.49,4.19-4.77l36.44-4.82m.86-1.12l-37.43,4.95c-2.82.34-5.05,2.86-5.06,5.76l-.05,37.43h11.64s.04-32.32.04-32.32l32.38-4.28-1.53-11.54h0Z"/><path class="cls-1" d="m117.32,322.24l-34.65-11.82-3.76,11.01,25.13,8.57-20.24,17.76,7.68,8.75,27.8-24.4c1.56-1.37,2.27-3.47,1.87-5.51-.4-2.03-1.87-3.71-3.83-4.38Z"/><path class="cls-74" d="m83.29,311.7l33.7,11.49c1.62.55,2.84,1.94,3.17,3.62.33,1.68-.26,3.43-1.55,4.56l-27.05,23.74-6.36-7.24,19.49-17.1,1.3-1.14-1.64-.56-24.19-8.25,3.11-9.12m-.62-1.27l-3.76,11.01,25.13,8.57-20.24,17.76,7.68,8.75,27.8-24.4c1.56-1.37,2.27-3.47,1.87-5.51-.4-2.03-1.87-3.71-3.83-4.38l-34.65-11.82h0Z"/><path class="cls-1" d="m150.85,290.06l-20.75,17.17-4.48-26.17-11.47,1.96,6.18,36.09c.35,2.04,1.77,3.76,3.71,4.47.93.34,1.92.45,2.9.3.09-.01.17-.03.26-.05.94-.19,1.83-.61,2.57-1.22l28.49-23.58-7.42-8.96Z"/><path class="cls-35" d="m124.8,282.21l4.31,25.19.29,1.7,1.33-1.1,19.98-16.53,6.15,7.42-27.72,22.95c-.61.51-1.35.86-2.13,1.01-.07.01-.15.03-.22.04-.24.04-.48.06-.73.06-.57,0-1.13-.1-1.67-.3-1.61-.6-2.79-2.01-3.07-3.71l-6.01-35.1,9.5-1.63m.82-1.15l-11.47,1.96,6.18,36.09c.35,2.04,1.77,3.76,3.71,4.47.65.24,1.33.36,2.02.36.29,0,.59-.02.88-.07.09-.01.17-.03.26-.05.94-.19,1.83-.61,2.57-1.22l28.49-23.58-7.42-8.96-20.75,17.17-4.48-26.17h0Z"/><path class="cls-1" d="m128.35,326.52c-2.82.34-5.05,2.86-5.06,5.76l-.05,37.43h11.64s.04-32.32.04-32.32l32.38-4.28-1.53-11.54-37.43,4.95Z"/><path class="cls-61" d="m164.92,322.7l1.26,9.56-31.39,4.15-.87.11v.88s-.04,31.33-.04,31.33h-9.64s.05-36.44.05-36.44c0-2.39,1.84-4.49,4.19-4.77l36.44-4.82m.86-1.12l-37.43,4.95c-2.82.34-5.05,2.86-5.06,5.76l-.05,37.43h11.64s.04-32.32.04-32.32l32.38-4.28-1.53-11.54h0Z"/><path class="cls-1" d="m185.43,359.67l-34.65-11.82-3.76,11.01,25.13,8.57-20.24,17.76,7.68,8.75,27.8-24.4c1.56-1.37,2.27-3.47,1.87-5.51-.4-2.03-1.87-3.71-3.83-4.38Z"/><path class="cls-73" d="m151.4,349.12l33.7,11.49c1.62.55,2.84,1.94,3.17,3.62.33,1.68-.26,3.43-1.55,4.56l-27.05,23.74-6.36-7.24,19.49-17.1,1.3-1.14-1.64-.56-24.19-8.25,3.11-9.12m-.62-1.27l-3.76,11.01,25.13,8.57-20.24,17.76,7.68,8.75,27.8-24.4c1.56-1.37,2.27-3.47,1.87-5.51-.4-2.03-1.87-3.71-3.83-4.38l-34.65-11.82h0Z"/><path class="cls-1" d="m218.95,327.49l-20.75,17.17-4.48-26.17-11.47,1.96,6.18,36.09c.35,2.04,1.77,3.76,3.71,4.47.93.34,1.92.45,2.9.3.09-.01.17-.03.26-.05.94-.19,1.83-.61,2.57-1.22l28.49-23.58-7.42-8.96Z"/><path class="cls-33" d="m192.91,319.64l4.31,25.19.29,1.7,1.33-1.1,19.97-16.53,6.15,7.42-27.72,22.95c-.61.51-1.35.86-2.13,1.01-.07.01-.15.03-.22.04-.24.04-.48.06-.73.06-.57,0-1.13-.1-1.67-.3-1.61-.6-2.79-2.01-3.07-3.71l-6.01-35.1,9.5-1.63m.82-1.15l-11.47,1.96,6.18,36.09c.35,2.04,1.77,3.76,3.71,4.47.65.24,1.33.36,2.02.36.29,0,.59-.02.88-.07.09-.01.17-.03.26-.05.94-.19,1.83-.61,2.57-1.22l28.49-23.58-7.42-8.96-20.75,17.17-4.48-26.17h0Z"/><path class="cls-1" d="m196.46,363.95c-2.82.34-5.05,2.86-5.06,5.76l-.05,37.43h11.64s.04-32.32.04-32.32l32.38-4.28-1.53-11.54-37.43,4.95Z"/><path class="cls-60" d="m233.02,360.13l1.26,9.56-31.39,4.15-.87.11v.88s-.04,31.33-.04,31.33h-9.64s.05-36.44.05-36.44c0-2.39,1.84-4.49,4.19-4.77l36.44-4.82m.86-1.12l-37.43,4.95c-2.82.34-5.05,2.86-5.06,5.76l-.05,37.43h11.64s.04-32.32.04-32.32l32.38-4.28-1.53-11.54h0Z"/><path class="cls-1" d="m253.53,397.1l-34.65-11.82-3.76,11.01,25.13,8.57-20.24,17.76,7.68,8.75,27.8-24.4c1.56-1.37,2.27-3.47,1.87-5.51-.4-2.03-1.87-3.71-3.83-4.38Z"/><path class="cls-72" d="m219.5,386.55l33.7,11.49c1.62.55,2.84,1.94,3.17,3.62.33,1.68-.26,3.43-1.55,4.56l-27.05,23.74-6.36-7.24,19.49-17.1,1.3-1.14-1.64-.56-24.19-8.25,3.11-9.12m-.62-1.27l-3.76,11.01,25.13,8.57-20.24,17.76,7.68,8.75,27.8-24.4c1.56-1.37,2.27-3.47,1.87-5.51-.4-2.03-1.87-3.71-3.83-4.38l-34.65-11.82h0Z"/><path class="cls-1" d="m287.05,364.92l-20.75,17.17-4.48-26.17-11.47,1.96,6.18,36.09c.35,2.04,1.77,3.76,3.71,4.47.93.34,1.92.45,2.9.3.09-.01.17-.03.26-.05.94-.19,1.83-.61,2.57-1.22l28.49-23.58-7.42-8.96Z"/><path class="cls-19" d="m261.01,357.07l4.31,25.19.29,1.7,1.33-1.1,19.97-16.53,6.15,7.42-27.72,22.95c-.61.51-1.35.86-2.13,1.01-.07.01-.15.03-.22.04-.24.04-.48.06-.73.06-.57,0-1.13-.1-1.67-.3-1.61-.6-2.79-2.01-3.07-3.71l-6.01-35.1,9.5-1.63m.82-1.15l-11.47,1.96,6.18,36.09c.35,2.04,1.77,3.76,3.71,4.47.65.24,1.33.36,2.02.36.29,0,.59-.02.88-.07.09-.01.17-.03.26-.05.94-.19,1.83-.61,2.57-1.22l28.49-23.58-7.42-8.96-20.75,17.17-4.48-26.17h0Z"/><path class="cls-1" d="m264.56,401.38c-2.82.34-5.05,2.86-5.06,5.76l-.05,37.43h11.64s.04-32.32.04-32.32l32.38-4.28-1.53-11.54-37.43,4.95Z"/><path class="cls-59" d="m301.13,397.56l1.26,9.56-31.39,4.15-.87.11v.88s-.04,31.33-.04,31.33h-9.64s.05-36.44.05-36.44c0-2.39,1.84-4.49,4.19-4.77l36.44-4.82m.86-1.12l-37.43,4.95c-2.82.34-5.05,2.86-5.06,5.76l-.05,37.43h11.64s.04-32.32.04-32.32l32.38-4.28-1.53-11.54h0Z"/><path class="cls-1" d="m321.63,434.53l-34.65-11.82-3.76,11.01,25.13,8.57-20.24,17.76,7.68,8.75,27.8-24.4c1.56-1.37,2.27-3.47,1.87-5.51-.4-2.03-1.87-3.71-3.83-4.38Z"/><path class="cls-70" d="m287.61,423.98l33.7,11.49c1.62.55,2.84,1.94,3.17,3.62.33,1.68-.26,3.43-1.55,4.56l-27.05,23.74-6.36-7.24,19.49-17.1,1.3-1.14-1.64-.56-24.19-8.25,3.11-9.12m-.62-1.27l-3.76,11.01,25.13,8.57-20.24,17.76,7.68,8.75,27.8-24.4c1.56-1.37,2.27-3.47,1.87-5.51-.4-2.03-1.87-3.71-3.83-4.38l-34.65-11.82h0Z"/><path class="cls-1" d="m355.16,402.34l-20.75,17.17-4.48-26.17-11.47,1.96,6.18,36.09c.35,2.04,1.77,3.76,3.71,4.47.93.34,1.92.45,2.9.3.09-.01.17-.03.26-.05.94-.19,1.83-.61,2.57-1.22l28.49-23.58-7.42-8.96Z"/><path class="cls-34" d="m329.11,394.5l4.31,25.19.29,1.7,1.33-1.1,19.97-16.53,6.15,7.42-27.72,22.95c-.61.51-1.35.86-2.13,1.01-.07.01-.15.03-.22.04-.24.04-.48.06-.73.06-.57,0-1.13-.1-1.67-.3-1.61-.6-2.79-2.01-3.07-3.7l-6.01-35.1,9.5-1.63m.82-1.15l-11.47,1.96,6.18,36.09c.35,2.04,1.77,3.76,3.71,4.47.65.24,1.33.36,2.02.36.29,0,.59-.02.88-.07.09-.01.17-.03.26-.05.94-.19,1.83-.61,2.57-1.22l28.49-23.58-7.42-8.96-20.75,17.17-4.48-26.17h0Z"/><path class="cls-1" d="m332.66,438.81c-2.82.34-5.05,2.86-5.06,5.76l-.05,37.43h11.64s.04-32.32.04-32.32l32.38-4.28-1.53-11.54-37.43,4.95Z"/><path class="cls-58" d="m369.23,434.98l1.26,9.56-31.39,4.15-.87.11v.88s-.04,31.33-.04,31.33h-9.64s.05-36.44.05-36.44c0-2.39,1.84-4.49,4.19-4.77l36.44-4.82m.86-1.12l-37.43,4.95c-2.82.34-5.05,2.86-5.06,5.76l-.05,37.43h11.64s.04-32.32.04-32.32l32.38-4.28-1.53-11.54h0Z"/><path class="cls-1" d="m389.74,471.96l-34.65-11.82-3.76,11.01,25.13,8.57-20.24,17.76,7.68,8.75,27.8-24.4c1.56-1.37,2.27-3.47,1.87-5.51-.4-2.03-1.87-3.71-3.83-4.38Z"/><path class="cls-69" d="m355.71,461.41l33.7,11.49c1.62.55,2.84,1.94,3.17,3.62.33,1.68-.26,3.43-1.55,4.56l-27.05,23.74-6.36-7.24,19.49-17.1,1.3-1.14-1.64-.56-24.19-8.25,3.11-9.12m-.62-1.27l-3.76,11.01,25.13,8.57-20.24,17.76,7.68,8.75,27.8-24.4c1.56-1.37,2.27-3.47,1.87-5.51-.4-2.03-1.87-3.71-3.83-4.38l-34.65-11.82h0Z"/><path class="cls-1" d="m423.26,439.77l-20.75,17.17-4.48-26.17-11.47,1.96,6.18,36.09c.35,2.04,1.77,3.76,3.71,4.47.93.34,1.92.45,2.9.3.09-.01.17-.03.26-.05.94-.19,1.83-.61,2.57-1.22l28.49-23.58-7.42-8.96Z"/><path class="cls-21" d="m397.22,431.93l4.31,25.19.29,1.7,1.33-1.1,19.97-16.53,6.15,7.42-27.72,22.95c-.61.51-1.35.86-2.13,1.01-.07.01-.15.03-.22.04-.24.04-.48.06-.73.06-.57,0-1.14-.1-1.67-.3-1.61-.6-2.79-2.01-3.07-3.7l-6.01-35.1,9.5-1.63m.82-1.15l-11.47,1.96,6.18,36.09c.35,2.04,1.77,3.76,3.71,4.47.65.24,1.33.36,2.02.36.29,0,.59-.02.88-.07.09-.01.17-.03.26-.05.94-.19,1.83-.61,2.57-1.22l28.49-23.58-7.42-8.97-20.75,17.17-4.48-26.17h0Z"/><path class="cls-1" d="m400.77,476.24c-2.82.34-5.05,2.86-5.06,5.76l-.05,37.43h11.64s.04-32.32.04-32.32l32.38-4.28-1.53-11.54-37.43,4.95Z"/><path class="cls-65" d="m437.33,472.41l1.26,9.56-31.39,4.15-.87.11v.88s-.04,31.33-.04,31.33h-9.64s.05-36.44.05-36.44c0-2.39,1.84-4.49,4.19-4.77l36.44-4.82m.86-1.12l-37.43,4.95c-2.82.34-5.05,2.86-5.06,5.76l-.05,37.43h11.64s.04-32.32.04-32.32l32.38-4.28-1.53-11.54h0Z"/><path class="cls-1" d="m457.84,509.39l-34.65-11.82-3.76,11.01,25.13,8.57-20.24,17.76,7.68,8.75,27.8-24.4c1.56-1.37,2.27-3.47,1.87-5.51-.4-2.03-1.87-3.71-3.83-4.38Z"/><path class="cls-68" d="m423.81,498.84l33.7,11.49c1.62.55,2.84,1.94,3.17,3.62.33,1.68-.26,3.43-1.55,4.56l-27.05,23.74-6.36-7.24,19.49-17.1,1.3-1.14-1.64-.56-24.19-8.25,3.11-9.12m-.62-1.27l-3.76,11.01,25.13,8.57-20.24,17.76,7.68,8.75,27.8-24.4c1.56-1.37,2.27-3.47,1.87-5.51-.4-2.03-1.87-3.71-3.83-4.38l-34.65-11.82h0Z"/><path class="cls-1" d="m491.36,477.2l-20.75,17.17-4.48-26.17-11.47,1.96,6.18,36.09c.35,2.04,1.77,3.76,3.71,4.47.93.34,1.92.45,2.9.3.09-.01.17-.03.26-.05.94-.19,1.83-.61,2.57-1.22l28.49-23.58-7.42-8.96Z"/><path class="cls-15" d="m465.32,469.36l4.31,25.19.29,1.7,1.33-1.1,19.97-16.53,6.15,7.42-27.72,22.95c-.61.51-1.35.86-2.13,1.01-.07.01-.15.03-.22.04-.24.04-.48.06-.73.06-.57,0-1.14-.1-1.67-.3-1.61-.6-2.79-2.01-3.07-3.7l-6.01-35.1,9.5-1.63m.82-1.15l-11.47,1.96,6.18,36.09c.35,2.04,1.77,3.76,3.71,4.47.65.24,1.33.36,2.02.36.29,0,.59-.02.88-.07.09-.01.17-.03.26-.05.94-.19,1.83-.61,2.57-1.22l28.49-23.58-7.42-8.97-20.75,17.17-4.48-26.17h0Z"/><path class="cls-1" d="m468.87,513.67c-2.82.34-5.05,2.86-5.06,5.76l-.05,37.43h11.64s.04-32.32.04-32.32l32.38-4.28-1.53-11.54-37.43,4.95Z"/><path class="cls-64" d="m505.44,509.84l1.26,9.56-31.39,4.15-.87.11v.88s-.04,31.33-.04,31.33h-9.64s.05-36.44.05-36.44c0-2.39,1.84-4.49,4.19-4.77l36.44-4.82m.86-1.12l-37.43,4.95c-2.82.34-5.05,2.86-5.06,5.76l-.05,37.43h11.64s.04-32.32.04-32.32l32.38-4.28-1.53-11.54h0Z"/><path class="cls-1" d="m525.94,546.81l-34.65-11.82-3.76,11.01,25.13,8.57-20.24,17.76,7.68,8.75,27.8-24.4c1.56-1.37,2.27-3.47,1.87-5.51-.4-2.03-1.87-3.71-3.83-4.38Z"/><path class="cls-67" d="m491.92,536.27l33.7,11.49c1.62.55,2.84,1.94,3.17,3.62.33,1.68-.26,3.43-1.55,4.56l-27.05,23.74-6.36-7.24,19.49-17.1,1.3-1.14-1.64-.56-24.19-8.25,3.11-9.12m-.62-1.27l-3.76,11.01,25.13,8.57-20.24,17.76,7.68,8.75,27.8-24.4c1.56-1.37,2.27-3.47,1.87-5.51-.4-2.03-1.87-3.71-3.83-4.38l-34.65-11.82h0Z"/><path class="cls-1" d="m559.47,514.63l-20.75,17.17-4.48-26.17-11.47,1.96,6.18,36.09c.35,2.04,1.77,3.76,3.71,4.47.93.34,1.92.45,2.9.3.09-.01.17-.03.26-.05.94-.19,1.83-.61,2.57-1.22l28.49-23.58-7.42-8.96Z"/><path class="cls-20" d="m533.42,506.78l4.31,25.19.29,1.7,1.33-1.1,19.98-16.53,6.15,7.42-27.72,22.95c-.61.51-1.35.86-2.13,1.01-.07.01-.15.03-.22.04-.24.04-.48.06-.73.06-.57,0-1.13-.1-1.67-.3-1.61-.6-2.79-2.01-3.07-3.7l-6.01-35.1,9.5-1.63m.82-1.15l-11.47,1.96,6.18,36.09c.35,2.04,1.77,3.76,3.71,4.47.65.24,1.33.36,2.02.36.29,0,.59-.02.88-.07.09-.01.17-.03.26-.05.94-.19,1.83-.61,2.57-1.22l28.49-23.58-7.42-8.97-20.75,17.17-4.48-26.17h0Z"/><path class="cls-1" d="m536.97,551.1c-2.82.34-5.05,2.86-5.06,5.76l-.05,37.43h11.64s.04-32.32.04-32.32l32.38-4.28-1.53-11.54-37.43,4.95Z"/><path class="cls-63" d="m573.54,547.27l1.26,9.56-31.39,4.15-.87.11v.88s-.04,31.33-.04,31.33h-9.64s.05-36.44.05-36.44c0-2.39,1.84-4.49,4.19-4.77l36.44-4.82m.86-1.12l-37.43,4.95c-2.82.34-5.05,2.86-5.06,5.76l-.05,37.43h11.64s.04-32.32.04-32.32l32.38-4.28-1.53-11.54h0Z"/><path class="cls-1" d="m60.03,203.6l-34.65-11.82-3.76,11.01,25.13,8.57-20.24,17.76,7.68,8.75,27.8-24.4c1.56-1.37,2.27-3.47,1.87-5.51-.4-2.03-1.87-3.71-3.83-4.38Z"/><path class="cls-76" d="m26,193.06l33.7,11.49c1.62.55,2.84,1.94,3.17,3.62.33,1.68-.26,3.43-1.55,4.56l-27.05,23.74-6.36-7.24,19.49-17.1,1.3-1.14-1.64-.56-24.19-8.25,3.11-9.12m-.62-1.27l-3.76,11.01,25.13,8.57-20.24,17.76,7.68,8.75,27.8-24.4c1.56-1.37,2.27-3.47,1.87-5.51-.4-2.03-1.87-3.71-3.83-4.38l-34.65-11.82h0Z"/><path class="cls-1" d="m93.55,171.42l-20.75,17.17-4.48-26.17-11.47,1.96,6.18,36.09c.35,2.04,1.77,3.76,3.71,4.47.93.34,1.92.45,2.9.3.09-.01.17-.03.26-.05.94-.19,1.83-.61,2.57-1.22l28.49-23.58-7.42-8.96Z"/><path class="cls-18" d="m67.51,163.57l4.31,25.19.29,1.7,1.33-1.1,19.98-16.53,6.15,7.42-27.72,22.95c-.61.51-1.35.86-2.13,1.01-.07.01-.15.03-.22.04-.24.04-.48.06-.73.06-.57,0-1.13-.1-1.67-.3-1.61-.6-2.79-2.01-3.07-3.71l-6.01-35.1,9.5-1.63m.82-1.15l-11.47,1.96,6.18,36.09c.35,2.04,1.77,3.76,3.71,4.47.65.24,1.33.36,2.02.36.29,0,.59-.02.88-.07.09-.01.17-.03.26-.05.94-.19,1.83-.61,2.57-1.22l28.49-23.58-7.42-8.96-20.75,17.17-4.48-26.17h0Z"/><path class="cls-1" d="m71.06,207.89c-2.82.34-5.05,2.86-5.06,5.76l-.05,37.43h11.64s.04-32.32.04-32.32l32.38-4.28-1.53-11.54-37.43,4.95Z"/><path class="cls-62" d="m107.63,204.06l1.26,9.56-31.39,4.15-.87.11v.88s-.04,31.33-.04,31.33h-9.64s.05-36.44.05-36.44c0-2.39,1.84-4.49,4.19-4.77l36.44-4.82m.86-1.12l-37.43,4.95c-2.82.34-5.05,2.86-5.06,5.76l-.05,37.43h11.64s.04-32.32.04-32.32l32.38-4.28-1.53-11.54h0Z"/><path class="cls-1" d="m128.13,241.03l-34.65-11.82-3.76,11.01,25.13,8.57-20.24,17.76,7.68,8.75,27.8-24.4c1.56-1.37,2.27-3.47,1.87-5.51-.4-2.03-1.87-3.71-3.83-4.38Z"/><path class="cls-75" d="m94.11,230.49l33.7,11.49c1.62.55,2.84,1.94,3.17,3.62.33,1.68-.26,3.43-1.55,4.56l-27.05,23.74-6.36-7.24,19.49-17.1,1.3-1.14-1.64-.56-24.19-8.25,3.11-9.12m-.62-1.27l-3.76,11.01,25.13,8.57-20.24,17.76,7.68,8.75,27.8-24.4c1.56-1.37,2.27-3.47,1.87-5.51-.4-2.03-1.87-3.71-3.83-4.38l-34.65-11.82h0Z"/><path class="cls-1" d="m161.66,208.85l-20.75,17.17-4.48-26.17-11.47,1.96,6.18,36.09c.35,2.04,1.77,3.76,3.71,4.47.93.34,1.92.45,2.9.3.09-.01.17-.03.26-.05.94-.19,1.83-.61,2.57-1.22l28.49-23.58-7.42-8.96Z"/><path class="cls-16" d="m135.61,201l4.31,25.19.29,1.7,1.33-1.1,19.97-16.53,6.15,7.42-27.72,22.95c-.61.51-1.35.86-2.13,1.01-.07.01-.15.03-.22.04-.24.04-.48.06-.73.06-.57,0-1.13-.1-1.67-.3-1.61-.6-2.79-2.01-3.07-3.71l-6.01-35.1,9.5-1.63m.82-1.15l-11.47,1.96,6.18,36.09c.35,2.04,1.77,3.76,3.71,4.47.65.24,1.33.36,2.02.36.29,0,.59-.02.88-.07.09-.01.17-.03.26-.05.94-.19,1.83-.61,2.57-1.22l28.49-23.58-7.42-8.96-20.75,17.17-4.48-26.17h0Z"/><path class="cls-1" d="m139.16,245.31c-2.82.34-5.05,2.86-5.06,5.76l-.05,37.43h11.64s.04-32.32.04-32.32l32.38-4.28-1.53-11.54-37.43,4.95Z"/><path class="cls-57" d="m175.73,241.49l1.26,9.56-31.39,4.15-.87.11v.88s-.04,31.33-.04,31.33h-9.64s.05-36.44.05-36.44c0-2.39,1.84-4.49,4.19-4.77l36.44-4.82m.86-1.12l-37.43,4.95c-2.82.34-5.05,2.86-5.06,5.76l-.05,37.43h11.64s.04-32.32.04-32.32l32.38-4.28-1.53-11.54h0Z"/><path class="cls-1" d="m196.24,278.46l-34.65-11.82-3.76,11.01,25.13,8.57-20.24,17.76,7.68,8.75,27.8-24.4c1.56-1.37,2.27-3.47,1.87-5.51-.4-2.03-1.87-3.71-3.83-4.38Z"/><path class="cls-71" d="m162.21,267.91l33.7,11.49c1.62.55,2.84,1.94,3.17,3.62.33,1.68-.26,3.43-1.55,4.56l-27.05,23.74-6.36-7.24,19.49-17.1,1.3-1.14-1.64-.56-24.19-8.25,3.11-9.12m-.62-1.27l-3.76,11.01,25.13,8.57-20.24,17.76,7.68,8.75,27.8-24.4c1.56-1.37,2.27-3.47,1.87-5.51-.4-2.03-1.87-3.71-3.83-4.38l-34.65-11.82h0Z"/><path class="cls-1" d="m229.76,246.28l-20.75,17.17-4.48-26.17-11.47,1.96,6.18,36.09c.35,2.04,1.77,3.76,3.71,4.47.93.34,1.92.45,2.9.3.09-.01.17-.03.26-.05.94-.19,1.83-.61,2.57-1.22l28.49-23.58-7.42-8.96Z"/><path class="cls-17" d="m203.72,238.43l4.31,25.19.29,1.7,1.33-1.1,19.97-16.53,6.15,7.42-27.72,22.95c-.61.51-1.35.86-2.13,1.01-.07.01-.15.03-.22.04-.24.04-.48.06-.73.06-.57,0-1.13-.1-1.67-.3-1.61-.6-2.79-2.01-3.07-3.7l-6.01-35.1,9.5-1.63m.82-1.15l-11.47,1.96,6.18,36.09c.35,2.04,1.77,3.76,3.71,4.47.65.24,1.33.36,2.02.36.29,0,.59-.02.88-.07.09-.01.17-.03.26-.05.94-.19,1.83-.61,2.57-1.22l28.49-23.58-7.42-8.96-20.75,17.17-4.48-26.17h0Z"/><path class="cls-1" d="m207.27,282.74c-2.82.34-5.05,2.86-5.06,5.76l-.05,37.43h11.64s.04-32.32.04-32.32l32.38-4.28-1.53-11.54-37.43,4.95Z"/><path class="cls-56" d="m243.83,278.92l1.26,9.56-31.39,4.15-.87.11v.88s-.04,31.33-.04,31.33h-9.64s.05-36.44.05-36.44c0-2.39,1.84-4.49,4.19-4.77l36.44-4.82m.86-1.12l-37.43,4.95c-2.82.34-5.05,2.86-5.06,5.76l-.05,37.43h11.64s.04-32.32.04-32.32l32.38-4.28-1.53-11.54h0Z"/><path class="cls-1" d="m264.34,315.89l-34.65-11.82-3.76,11.01,25.13,8.57-20.24,17.76,7.68,8.75,27.8-24.4c1.56-1.37,2.27-3.47,1.87-5.51-.4-2.03-1.87-3.71-3.83-4.38Z"/><path class="cls-92" d="m230.31,305.34l33.7,11.49c1.62.55,2.84,1.94,3.17,3.62.33,1.68-.26,3.43-1.55,4.56l-27.05,23.74-6.36-7.24,19.49-17.1,1.3-1.14-1.64-.56-24.19-8.25,3.11-9.12m-.62-1.27l-3.76,11.01,25.13,8.57-20.24,17.76,7.68,8.75,27.8-24.4c1.56-1.37,2.27-3.47,1.87-5.51-.4-2.03-1.87-3.71-3.83-4.38l-34.65-11.82h0Z"/><path class="cls-1" d="m297.86,283.71l-20.75,17.17-4.48-26.17-11.47,1.96,6.18,36.09c.35,2.04,1.77,3.76,3.71,4.47.93.34,1.92.45,2.9.3.09-.01.17-.03.26-.05.94-.19,1.83-.61,2.57-1.22l28.49-23.58-7.42-8.96Z"/><path class="cls-23" d="m271.82,275.86l4.31,25.19.29,1.7,1.33-1.1,19.97-16.53,6.15,7.42-27.72,22.95c-.61.51-1.35.86-2.13,1.01-.07.01-.15.03-.22.04-.24.04-.48.06-.73.06-.57,0-1.14-.1-1.67-.3-1.61-.6-2.79-2.01-3.07-3.7l-6.01-35.1,9.5-1.63m.82-1.15l-11.47,1.96,6.18,36.09c.35,2.04,1.77,3.76,3.71,4.47.65.24,1.33.36,2.02.36.29,0,.59-.02.88-.07.09-.01.17-.03.26-.05.94-.19,1.83-.61,2.57-1.22l28.49-23.58-7.42-8.97-20.75,17.17-4.48-26.17h0Z"/><path class="cls-1" d="m275.37,320.17c-2.82.34-5.05,2.86-5.06,5.76l-.05,37.43h11.64s.04-32.32.04-32.32l32.38-4.28-1.53-11.54-37.43,4.95Z"/><path class="cls-40" d="m311.94,316.35l1.26,9.56-31.39,4.15-.87.11v.88s-.04,31.33-.04,31.33h-9.64s.05-36.44.05-36.44c0-2.39,1.84-4.49,4.19-4.77l36.44-4.82m.86-1.12l-37.43,4.95c-2.82.34-5.05,2.86-5.06,5.76l-.05,37.43h11.64s.04-32.32.04-32.32l32.38-4.28-1.53-11.54h0Z"/><path class="cls-1" d="m332.44,353.32l-34.65-11.82-3.76,11.01,25.13,8.57-20.24,17.76,7.68,8.75,27.8-24.4c1.56-1.37,2.27-3.47,1.87-5.51-.4-2.03-1.87-3.71-3.83-4.38Z"/><path class="cls-89" d="m298.42,342.77l33.7,11.49c1.62.55,2.84,1.94,3.17,3.62.33,1.68-.26,3.43-1.55,4.56l-27.05,23.74-6.36-7.24,19.49-17.1,1.3-1.14-1.64-.56-24.19-8.25,3.11-9.12m-.62-1.27l-3.76,11.01,25.13,8.57-20.24,17.76,7.68,8.75,27.8-24.4c1.56-1.37,2.27-3.47,1.87-5.51-.4-2.03-1.87-3.71-3.83-4.38l-34.65-11.82h0Z"/><path class="cls-1" d="m365.97,321.13l-20.75,17.17-4.48-26.17-11.47,1.96,6.18,36.09c.35,2.04,1.77,3.76,3.71,4.47.93.34,1.92.45,2.9.3.09-.01.17-.03.26-.05.94-.19,1.83-.61,2.57-1.22l28.49-23.58-7.42-8.96Z"/><path class="cls-31" d="m339.92,313.29l4.31,25.19.29,1.7,1.33-1.1,19.98-16.53,6.15,7.42-27.72,22.95c-.61.51-1.35.86-2.13,1.01-.07.01-.15.03-.22.04-.24.04-.48.06-.73.06-.57,0-1.13-.1-1.67-.3-1.61-.6-2.79-2.01-3.07-3.7l-6.01-35.1,9.5-1.63m.82-1.15l-11.47,1.96,6.18,36.09c.35,2.04,1.77,3.76,3.71,4.47.65.24,1.33.36,2.02.36.29,0,.59-.02.88-.07.09-.01.17-.03.26-.05.94-.19,1.83-.61,2.57-1.22l28.49-23.58-7.42-8.97-20.75,17.17-4.48-26.17h0Z"/><path class="cls-1" d="m343.47,357.6c-2.82.34-5.05,2.86-5.06,5.76l-.05,37.43h11.64s.04-32.32.04-32.32l32.38-4.28-1.53-11.54-37.43,4.95Z"/><path class="cls-41" d="m380.04,353.78l1.26,9.56-31.39,4.15-.87.11v.88s-.04,31.33-.04,31.33h-9.64s.05-36.44.05-36.44c0-2.39,1.84-4.49,4.19-4.77l36.44-4.82m.86-1.12l-37.43,4.95c-2.82.34-5.05,2.86-5.06,5.76l-.05,37.43h11.64s.04-32.32.04-32.32l32.38-4.28-1.53-11.54h0Z"/><path class="cls-1" d="m400.55,390.75l-34.65-11.82-3.76,11.01,25.13,8.57-20.24,17.76,7.68,8.75,27.8-24.4c1.56-1.37,2.27-3.47,1.87-5.51-.4-2.03-1.87-3.71-3.83-4.38Z"/><path class="cls-95" d="m366.52,380.2l33.7,11.49c1.62.55,2.84,1.94,3.17,3.62.33,1.68-.26,3.43-1.55,4.56l-27.05,23.74-6.36-7.24,19.49-17.1,1.3-1.14-1.64-.56-24.19-8.25,3.11-9.12m-.62-1.27l-3.76,11.01,25.13,8.57-20.24,17.76,7.68,8.75,27.8-24.4c1.56-1.37,2.27-3.47,1.87-5.51-.4-2.03-1.87-3.71-3.83-4.38l-34.65-11.82h0Z"/><path class="cls-1" d="m434.07,358.56l-20.75,17.17-4.48-26.17-11.47,1.96,6.18,36.09c.35,2.04,1.77,3.76,3.71,4.47.93.34,1.92.45,2.9.3.09-.01.17-.03.26-.05.94-.19,1.83-.61,2.57-1.22l28.49-23.58-7.42-8.96Z"/><path class="cls-25" d="m408.03,350.72l4.31,25.19.29,1.7,1.33-1.1,19.97-16.53,6.15,7.42-27.72,22.95c-.61.51-1.35.86-2.13,1.01-.07.01-.15.03-.22.04-.24.04-.48.06-.73.06-.57,0-1.13-.1-1.67-.3-1.61-.6-2.79-2.01-3.07-3.7l-6.01-35.1,9.5-1.63m.82-1.15l-11.47,1.96,6.18,36.09c.35,2.04,1.77,3.76,3.71,4.47.65.24,1.33.36,2.02.36.29,0,.59-.02.88-.07.09-.01.17-.03.26-.05.94-.19,1.83-.61,2.57-1.22l28.49-23.58-7.42-8.97-20.75,17.17-4.48-26.17h0Z"/><path class="cls-1" d="m411.58,395.03c-2.82.34-5.05,2.86-5.06,5.76l-.05,37.43h11.64s.04-32.32.04-32.32l32.38-4.28-1.53-11.54-37.43,4.95Z"/><path class="cls-43" d="m448.15,391.2l1.26,9.56-31.39,4.15-.87.11v.88s-.04,31.33-.04,31.33h-9.64s.05-36.44.05-36.44c0-2.39,1.84-4.49,4.19-4.77l36.44-4.82m.86-1.12l-37.43,4.95c-2.82.34-5.05,2.86-5.06,5.76l-.05,37.43h11.64s.04-32.32.04-32.32l32.38-4.28-1.53-11.54h0Z"/><path class="cls-1" d="m468.65,428.18l-34.65-11.82-3.76,11.01,25.13,8.57-20.24,17.76,7.68,8.75,27.8-24.4c1.56-1.37,2.27-3.47,1.87-5.51-.4-2.03-1.87-3.71-3.83-4.38Z"/><path class="cls-94" d="m434.62,417.63l33.7,11.49c1.62.55,2.84,1.94,3.17,3.62.33,1.68-.26,3.43-1.55,4.56l-27.05,23.74-6.36-7.24,19.49-17.1,1.3-1.14-1.64-.56-24.19-8.25,3.11-9.12m-.62-1.27l-3.76,11.01,25.13,8.57-20.24,17.76,7.68,8.75,27.8-24.4c1.56-1.37,2.27-3.47,1.87-5.51-.4-2.03-1.87-3.71-3.83-4.38l-34.65-11.82h0Z"/><path class="cls-1" d="m502.17,395.99l-20.75,17.17-4.48-26.17-11.47,1.96,6.18,36.09c.35,2.04,1.77,3.76,3.71,4.47.93.34,1.92.45,2.9.3.09-.01.17-.03.26-.05.94-.19,1.83-.61,2.57-1.22l28.49-23.58-7.42-8.96Z"/><path class="cls-24" d="m476.13,388.15l4.31,25.19.29,1.7,1.33-1.1,19.97-16.53,6.15,7.42-27.72,22.95c-.61.51-1.35.86-2.13,1.01-.07.01-.15.03-.22.04-.24.04-.48.06-.73.06-.57,0-1.14-.1-1.67-.3-1.61-.6-2.79-2.01-3.07-3.7l-6.01-35.1,9.5-1.63m.82-1.15l-11.47,1.96,6.18,36.09c.35,2.04,1.77,3.76,3.71,4.47.65.24,1.33.36,2.02.36.29,0,.59-.02.88-.07.09-.01.17-.03.26-.05.94-.19,1.83-.61,2.57-1.22l28.49-23.58-7.42-8.97-20.75,17.17-4.48-26.17h0Z"/><path class="cls-1" d="m479.68,432.46c-2.82.34-5.05,2.86-5.06,5.76l-.05,37.43h11.64s.04-32.32.04-32.32l32.38-4.28-1.53-11.54-37.43,4.95Z"/><path class="cls-44" d="m516.25,428.63l1.26,9.56-31.39,4.15-.87.11v.88s-.04,31.33-.04,31.33h-9.64s.05-36.44.05-36.44c0-2.39,1.84-4.49,4.19-4.77l36.44-4.82m.86-1.12l-37.43,4.95c-2.82.34-5.05,2.86-5.06,5.76l-.05,37.43h11.64s.04-32.32.04-32.32l32.38-4.28-1.53-11.54h0Z"/><path class="cls-1" d="m536.75,465.6l-34.65-11.82-3.76,11.01,25.13,8.57-20.24,17.76,7.68,8.75,27.8-24.4c1.56-1.37,2.27-3.47,1.87-5.51-.4-2.03-1.87-3.71-3.83-4.38Z"/><path class="cls-97" d="m502.73,455.06l33.7,11.49c1.62.55,2.84,1.94,3.17,3.62.33,1.68-.26,3.43-1.55,4.56l-27.05,23.74-6.36-7.24,19.49-17.1,1.3-1.14-1.64-.56-24.19-8.25,3.11-9.12m-.62-1.27l-3.76,11.01,25.13,8.57-20.24,17.76,7.68,8.75,27.8-24.4c1.56-1.37,2.27-3.47,1.87-5.51-.4-2.03-1.87-3.71-3.83-4.38l-34.65-11.82h0Z"/><path class="cls-1" d="m570.28,433.42l-20.75,17.17-4.48-26.17-11.47,1.96,6.18,36.09c.35,2.04,1.77,3.76,3.71,4.47.93.34,1.92.45,2.9.3.09-.01.17-.03.26-.05.94-.19,1.83-.61,2.57-1.22l28.49-23.58-7.42-8.96Z"/><path class="cls-29" d="m544.23,425.57l4.31,25.19.29,1.7,1.33-1.1,19.97-16.53,6.15,7.42-27.72,22.95c-.61.51-1.35.86-2.13,1.01-.07.01-.15.03-.22.04-.24.04-.48.06-.73.06-.57,0-1.13-.1-1.67-.3-1.61-.6-2.79-2.01-3.07-3.7l-6.01-35.1,9.5-1.63m.82-1.15l-11.47,1.96,6.18,36.09c.35,2.04,1.77,3.76,3.71,4.47.65.24,1.33.36,2.02.36.29,0,.59-.02.88-.07.09-.01.17-.03.26-.05.94-.19,1.83-.61,2.57-1.22l28.49-23.58-7.42-8.97-20.75,17.17-4.48-26.17h0Z"/><path class="cls-1" d="m547.79,469.89c-2.82.34-5.05,2.86-5.06,5.76l-.05,37.43h11.64s.04-32.32.04-32.32l32.38-4.28-1.53-11.54-37.43,4.95Z"/><path class="cls-48" d="m584.35,466.06l1.26,9.56-31.39,4.15-.87.11v.88s-.04,31.33-.04,31.33h-9.64s.05-36.44.05-36.44c0-2.39,1.84-4.49,4.19-4.77l36.44-4.82m.86-1.12l-37.43,4.95c-2.82.34-5.05,2.86-5.06,5.76l-.05,37.43h11.64s.04-32.32.04-32.32l32.38-4.28-1.53-11.54h0Z"/><path class="cls-1" d="m70.84,122.39l-34.65-11.82-3.76,11.01,25.13,8.57-20.24,17.76,7.68,8.75,27.8-24.4c1.56-1.37,2.27-3.47,1.87-5.51-.4-2.03-1.87-3.71-3.83-4.38Z"/><path class="cls-93" d="m36.81,111.85l33.7,11.49c1.62.55,2.84,1.94,3.17,3.62.33,1.68-.26,3.43-1.55,4.56l-27.05,23.74-6.36-7.24,19.49-17.1,1.3-1.14-1.64-.56-24.19-8.25,3.11-9.12m-.62-1.27l-3.76,11.01,25.13,8.57-20.24,17.76,7.68,8.75,27.8-24.4c1.56-1.37,2.27-3.47,1.87-5.51-.4-2.03-1.87-3.71-3.83-4.38l-34.65-11.82h0Z"/><path class="cls-1" d="m104.36,90.21l-20.75,17.17-4.48-26.17-11.47,1.96,6.18,36.09c.35,2.04,1.77,3.76,3.71,4.47.93.34,1.92.45,2.9.3.09-.01.17-.03.26-.05.94-.19,1.83-.61,2.57-1.22l28.49-23.58-7.42-8.96Z"/><path class="cls-30" d="m78.32,82.36l4.31,25.19.29,1.7,1.33-1.1,19.97-16.53,6.15,7.42-27.72,22.95c-.61.51-1.35.86-2.13,1.01-.07.01-.15.03-.22.04-.24.04-.48.06-.73.06-.57,0-1.14-.1-1.67-.3-1.61-.6-2.79-2.01-3.07-3.7l-6.01-35.1,9.5-1.63m.82-1.15l-11.47,1.96,6.18,36.09c.35,2.04,1.77,3.76,3.71,4.47.65.24,1.33.36,2.02.36.29,0,.59-.02.88-.07.09-.01.17-.03.26-.05.94-.19,1.83-.61,2.57-1.22l28.49-23.58-7.42-8.96-20.75,17.17-4.48-26.17h0Z"/><path class="cls-1" d="m81.87,126.68c-2.82.34-5.05,2.86-5.06,5.76l-.05,37.43h11.64s.04-32.32.04-32.32l32.38-4.28-1.53-11.54-37.43,4.95Z"/><path class="cls-49" d="m118.44,122.85l1.26,9.56-31.39,4.15-.87.11v.88s-.04,31.33-.04,31.33h-9.64s.05-36.44.05-36.44c0-2.39,1.84-4.49,4.19-4.77l36.44-4.82m.86-1.12l-37.43,4.95c-2.82.34-5.05,2.86-5.06,5.76l-.05,37.43h11.64s.04-32.32.04-32.32l32.38-4.28-1.53-11.54h0Z"/><path class="cls-1" d="m138.94,159.82l-34.65-11.82-3.76,11.01,25.13,8.57-20.24,17.76,7.68,8.75,27.8-24.4c1.56-1.37,2.27-3.47,1.87-5.51-.4-2.03-1.87-3.71-3.83-4.38Z"/><path class="cls-90" d="m104.92,149.28l33.7,11.49c1.62.55,2.84,1.94,3.17,3.62.33,1.68-.26,3.43-1.55,4.56l-27.05,23.74-6.36-7.24,19.49-17.1,1.3-1.14-1.64-.56-24.19-8.25,3.11-9.12m-.62-1.27l-3.76,11.01,25.13,8.57-20.24,17.76,7.68,8.75,27.8-24.4c1.56-1.37,2.27-3.47,1.87-5.51-.4-2.03-1.87-3.71-3.83-4.38l-34.65-11.82h0Z"/><path class="cls-1" d="m172.47,127.64l-20.75,17.17-4.48-26.17-11.47,1.96,6.18,36.09c.35,2.04,1.77,3.76,3.71,4.47.93.34,1.92.45,2.9.3.09-.01.17-.03.26-.05.94-.19,1.83-.61,2.57-1.22l28.49-23.58-7.42-8.96Z"/><path class="cls-32" d="m146.42,119.79l4.31,25.19.29,1.7,1.33-1.1,19.97-16.53,6.15,7.42-27.72,22.95c-.61.51-1.35.86-2.13,1.01-.07.01-.15.03-.22.04-.24.04-.48.06-.73.06-.57,0-1.14-.1-1.67-.3-1.61-.6-2.79-2.01-3.07-3.7l-6.01-35.1,9.5-1.63m.82-1.15l-11.47,1.96,6.18,36.09c.35,2.04,1.77,3.76,3.71,4.47.65.24,1.33.36,2.02.36.29,0,.59-.02.88-.07.09-.01.17-.03.26-.05.94-.19,1.83-.61,2.57-1.22l28.49-23.58-7.42-8.96-20.75,17.17-4.48-26.17h0Z"/><path class="cls-1" d="m149.97,164.1c-2.82.34-5.05,2.86-5.06,5.76l-.05,37.43h11.64s.04-32.32.04-32.32l32.38-4.28-1.53-11.54-37.43,4.95Z"/><path class="cls-42" d="m186.54,160.28l1.26,9.56-31.39,4.15-.87.11v.88s-.04,31.33-.04,31.33h-9.64s.05-36.44.05-36.44c0-2.39,1.84-4.49,4.19-4.77l36.44-4.82m.86-1.12l-37.43,4.95c-2.82.34-5.05,2.86-5.06,5.76l-.05,37.43h11.64s.04-32.32.04-32.32l32.38-4.28-1.53-11.54h0Z"/><path class="cls-1" d="m207.05,197.25l-34.65-11.82-3.76,11.01,25.13,8.57-20.24,17.76,7.68,8.75,27.8-24.4c1.56-1.37,2.27-3.47,1.87-5.51-.4-2.03-1.87-3.71-3.83-4.38Z"/><path class="cls-91" d="m173.02,186.7l33.7,11.49c1.62.55,2.84,1.94,3.17,3.62.33,1.68-.26,3.43-1.55,4.56l-27.05,23.74-6.36-7.24,19.49-17.1,1.3-1.14-1.64-.56-24.19-8.25,3.11-9.12m-.62-1.27l-3.76,11.01,25.13,8.57-20.24,17.76,7.68,8.75,27.8-24.4c1.56-1.37,2.27-3.47,1.87-5.51-.4-2.03-1.87-3.71-3.83-4.38l-34.65-11.82h0Z"/><path class="cls-1" d="m240.57,165.07l-20.75,17.17-4.48-26.17-11.47,1.96,6.18,36.09c.35,2.04,1.77,3.76,3.71,4.47.93.34,1.92.45,2.9.3.09-.01.17-.03.26-.05.94-.19,1.83-.61,2.57-1.22l28.49-23.58-7.42-8.96Z"/><path class="cls-27" d="m214.53,157.22l4.31,25.19.29,1.7,1.33-1.1,19.97-16.53,6.15,7.42-27.72,22.95c-.61.51-1.35.86-2.13,1.01-.07.01-.15.03-.22.04-.24.04-.48.06-.73.06-.57,0-1.13-.1-1.67-.3-1.61-.6-2.79-2.01-3.07-3.7l-6.01-35.1,9.5-1.63m.82-1.15l-11.47,1.96,6.18,36.09c.35,2.04,1.77,3.76,3.71,4.47.65.24,1.33.36,2.02.36.29,0,.59-.02.88-.07.09-.01.17-.03.26-.05.94-.19,1.83-.61,2.57-1.22l28.49-23.58-7.42-8.96-20.75,17.17-4.48-26.17h0Z"/><path class="cls-1" d="m218.08,201.53c-2.82.34-5.05,2.86-5.06,5.76l-.05,37.43h11.64s.04-32.32.04-32.32l32.38-4.28-1.53-11.54-37.43,4.95Z"/><path class="cls-47" d="m254.65,197.71l1.26,9.56-31.39,4.15-.87.11v.88s-.04,31.33-.04,31.33h-9.64s.05-36.44.05-36.44c0-2.39,1.84-4.49,4.19-4.77l36.44-4.82m.86-1.12l-37.43,4.95c-2.82.34-5.05,2.86-5.06,5.76l-.05,37.43h11.64s.04-32.32.04-32.32l32.38-4.28-1.53-11.54h0Z"/><path class="cls-1" d="m275.15,234.68l-34.65-11.82-3.76,11.01,25.13,8.57-20.24,17.76,7.68,8.75,27.8-24.4c1.56-1.37,2.27-3.47,1.87-5.51-.4-2.03-1.87-3.71-3.83-4.38Z"/><path class="cls-88" d="m241.12,224.13l33.7,11.49c1.62.55,2.84,1.94,3.17,3.62.33,1.68-.26,3.43-1.55,4.56l-27.05,23.74-6.36-7.24,19.49-17.1,1.3-1.14-1.64-.56-24.19-8.25,3.11-9.12m-.62-1.27l-3.76,11.01,25.13,8.57-20.24,17.76,7.68,8.75,27.8-24.4c1.56-1.37,2.27-3.47,1.87-5.51-.4-2.03-1.87-3.71-3.83-4.38l-34.65-11.82h0Z"/><path class="cls-1" d="m308.67,202.5l-20.75,17.17-4.48-26.17-11.47,1.96,6.18,36.09c.35,2.04,1.77,3.76,3.71,4.47.93.34,1.92.45,2.9.3.09-.01.17-.03.26-.05.94-.19,1.83-.61,2.57-1.22l28.49-23.58-7.42-8.96Z"/><path class="cls-26" d="m282.63,194.65l4.31,25.19.29,1.7,1.33-1.1,19.97-16.53,6.15,7.42-27.72,22.95c-.61.51-1.35.86-2.13,1.01-.07.01-.15.03-.22.04-.24.04-.48.06-.73.06-.57,0-1.14-.1-1.67-.3-1.61-.6-2.79-2.01-3.07-3.7l-6.01-35.1,9.5-1.63m.82-1.15l-11.47,1.96,6.18,36.09c.35,2.04,1.77,3.76,3.71,4.47.65.24,1.33.36,2.02.36.29,0,.59-.02.88-.07.09-.01.17-.03.26-.05.94-.19,1.83-.61,2.57-1.22l28.49-23.58-7.42-8.97-20.75,17.17-4.48-26.17h0Z"/><path class="cls-1" d="m286.18,238.96c-2.82.34-5.05,2.86-5.06,5.76l-.05,37.43h11.64s.04-32.32.04-32.32l32.38-4.28-1.53-11.54-37.43,4.95Z"/><path class="cls-46" d="m322.75,235.14l1.26,9.56-31.39,4.15-.87.11v.88s-.04,31.33-.04,31.33h-9.64s.05-36.44.05-36.44c0-2.39,1.84-4.49,4.19-4.77l36.44-4.82m.86-1.12l-37.43,4.95c-2.82.34-5.05,2.86-5.06,5.76l-.05,37.43h11.64s.04-32.32.04-32.32l32.38-4.28-1.53-11.54h0Z"/><path class="cls-1" d="m343.25,272.11l-34.65-11.82-3.76,11.01,25.13,8.57-20.24,17.76,7.68,8.75,27.8-24.4c1.56-1.37,2.27-3.47,1.87-5.51-.4-2.03-1.87-3.71-3.83-4.38Z"/><path class="cls-96" d="m309.23,261.56l33.7,11.49c1.62.55,2.84,1.94,3.17,3.62.33,1.68-.26,3.43-1.55,4.56l-27.05,23.74-6.36-7.24,19.49-17.1,1.3-1.14-1.64-.56-24.19-8.25,3.11-9.12m-.62-1.27l-3.76,11.01,25.13,8.57-20.24,17.76,7.68,8.75,27.8-24.4c1.56-1.37,2.27-3.47,1.87-5.51-.4-2.03-1.87-3.71-3.83-4.38l-34.65-11.82h0Z"/><path class="cls-1" d="m376.78,239.93l-20.75,17.17-4.48-26.17-11.47,1.96,6.18,36.09c.35,2.04,1.77,3.76,3.71,4.47.93.34,1.92.45,2.9.3.09-.01.17-.03.26-.05.94-.19,1.83-.61,2.57-1.22l28.49-23.58-7.42-8.96Z"/><path class="cls-28" d="m350.74,232.08l4.31,25.19.29,1.7,1.33-1.1,19.97-16.53,6.15,7.42-27.72,22.95c-.61.51-1.35.86-2.13,1.01-.07.01-.15.03-.22.04-.24.04-.48.06-.73.06-.57,0-1.14-.1-1.67-.3-1.61-.6-2.79-2.01-3.07-3.7l-6.01-35.1,9.5-1.63m.82-1.15l-11.47,1.96,6.18,36.09c.35,2.04,1.77,3.76,3.71,4.47.65.24,1.33.36,2.02.36.29,0,.59-.02.88-.07.09-.01.17-.03.26-.05.94-.19,1.83-.61,2.57-1.22l28.49-23.58-7.42-8.97-20.75,17.17-4.48-26.17h0Z"/><path class="cls-1" d="m354.29,276.39c-2.82.34-5.05,2.86-5.06,5.76l-.05,37.43h11.64s.04-32.32.04-32.32l32.38-4.28-1.53-11.54-37.43,4.95Z"/><path class="cls-45" d="m390.85,272.57l1.26,9.56-31.39,4.15-.87.11v.88s-.04,31.33-.04,31.33h-9.64s.05-36.44.05-36.44c0-2.39,1.84-4.49,4.19-4.77l36.44-4.82m.86-1.12l-37.43,4.95c-2.82.34-5.05,2.86-5.06,5.76l-.05,37.43h11.64s.04-32.32.04-32.32l32.38-4.28-1.53-11.54h0Z"/><path class="cls-1" d="m411.36,309.54l-34.65-11.82-3.76,11.01,25.13,8.57-20.24,17.76,7.68,8.75,27.8-24.4c1.56-1.37,2.27-3.47,1.87-5.51-.4-2.03-1.87-3.71-3.83-4.38Z"/><path class="cls-87" d="m377.33,298.99l33.7,11.49c1.62.55,2.84,1.94,3.17,3.62.33,1.68-.26,3.43-1.55,4.56l-27.05,23.74-6.36-7.24,19.49-17.1,1.3-1.14-1.64-.56-24.19-8.25,3.11-9.12m-.62-1.27l-3.76,11.01,25.13,8.57-20.24,17.76,7.68,8.75,27.8-24.4c1.56-1.37,2.27-3.47,1.87-5.51-.4-2.03-1.87-3.71-3.83-4.38l-34.65-11.82h0Z"/><path class="cls-1" d="m444.88,277.35l-20.75,17.17-4.48-26.17-11.47,1.96,6.18,36.09c.35,2.04,1.77,3.76,3.71,4.47.93.34,1.92.45,2.9.3.09-.01.17-.03.26-.05.94-.19,1.83-.61,2.57-1.22l28.49-23.58-7.42-8.96Z"/><path class="cls-6" d="m418.84,269.51l4.31,25.19.29,1.7,1.33-1.1,19.98-16.53,6.15,7.42-27.72,22.95c-.61.51-1.35.86-2.13,1.01-.07.01-.15.03-.22.04-.24.04-.48.06-.73.06-.57,0-1.13-.1-1.67-.3-1.61-.6-2.79-2.01-3.07-3.7l-6.01-35.1,9.5-1.63m.82-1.15l-11.47,1.96,6.18,36.09c.35,2.04,1.77,3.76,3.71,4.47.65.24,1.33.36,2.02.36.29,0,.59-.02.88-.07.09-.01.17-.03.26-.05.94-.19,1.83-.61,2.57-1.22l28.49-23.58-7.42-8.97-20.75,17.17-4.48-26.17h0Z"/><path class="cls-1" d="m422.39,313.82c-2.82.34-5.05,2.86-5.06,5.76l-.05,37.43h11.64s.04-32.32.04-32.32l32.38-4.28-1.53-11.54-37.43,4.95Z"/><path class="cls-52" d="m458.96,309.99l1.26,9.56-31.39,4.15-.87.11v.88s-.04,31.33-.04,31.33h-9.64s.05-36.44.05-36.44c0-2.39,1.84-4.49,4.19-4.77l36.44-4.82m.86-1.12l-37.43,4.95c-2.82.34-5.05,2.86-5.06,5.76l-.05,37.43h11.64s.04-32.32.04-32.32l32.38-4.28-1.53-11.54h0Z"/><path class="cls-1" d="m479.46,346.97l-34.65-11.82-3.76,11.01,25.13,8.57-20.24,17.76,7.68,8.75,27.8-24.4c1.56-1.37,2.27-3.47,1.87-5.51-.4-2.03-1.87-3.71-3.83-4.38Z"/><path class="cls-81" d="m445.43,336.42l33.7,11.49c1.62.55,2.84,1.94,3.17,3.62.33,1.68-.26,3.43-1.55,4.56l-27.05,23.74-6.36-7.24,19.49-17.1,1.3-1.14-1.64-.56-24.19-8.25,3.11-9.12m-.62-1.27l-3.76,11.01,25.13,8.57-20.24,17.76,7.68,8.75,27.8-24.4c1.56-1.37,2.27-3.47,1.87-5.51-.4-2.03-1.87-3.71-3.83-4.38l-34.65-11.82h0Z"/><path class="cls-1" d="m512.99,314.78l-20.75,17.17-4.48-26.17-11.47,1.96,6.18,36.09c.35,2.04,1.77,3.76,3.71,4.47.93.34,1.92.45,2.9.3.09-.01.17-.03.26-.05.94-.19,1.83-.61,2.57-1.22l28.49-23.58-7.42-8.96Z"/><path class="cls-9" d="m486.94,306.94l4.31,25.19.29,1.7,1.33-1.1,19.97-16.53,6.15,7.42-27.72,22.95c-.61.51-1.35.86-2.13,1.01-.07.01-.15.03-.22.04-.24.04-.48.06-.73.06-.57,0-1.13-.1-1.67-.3-1.61-.6-2.79-2.01-3.07-3.7l-6.01-35.1,9.5-1.63m.82-1.15l-11.47,1.96,6.18,36.09c.35,2.04,1.77,3.76,3.71,4.47.65.24,1.33.36,2.02.36.29,0,.59-.02.88-.07.09-.01.17-.03.26-.05.94-.19,1.83-.61,2.57-1.22l28.49-23.58-7.42-8.97-20.75,17.17-4.48-26.17h0Z"/><path class="cls-1" d="m490.49,351.25c-2.82.34-5.05,2.86-5.06,5.76l-.05,37.43h11.64s.04-32.32.04-32.32l32.38-4.28-1.53-11.54-37.43,4.95Z"/><path class="cls-50" d="m527.06,347.42l1.26,9.56-31.39,4.15-.87.11v.88s-.04,31.33-.04,31.33h-9.64s.05-36.44.05-36.44c0-2.39,1.84-4.49,4.19-4.77l36.44-4.82m.86-1.12l-37.43,4.95c-2.82.34-5.05,2.86-5.06,5.76l-.05,37.43h11.64s.04-32.32.04-32.32l32.38-4.28-1.53-11.54h0Z"/><path class="cls-1" d="m547.56,384.39l-34.65-11.82-3.76,11.01,25.13,8.57-20.24,17.76,7.68,8.75,27.8-24.4c1.56-1.37,2.27-3.47,1.87-5.51-.4-2.03-1.87-3.71-3.83-4.38Z"/><path class="cls-80" d="m513.54,373.85l33.7,11.49c1.62.55,2.84,1.94,3.17,3.62.33,1.68-.26,3.43-1.55,4.56l-27.05,23.74-6.36-7.24,19.49-17.1,1.3-1.14-1.64-.56-24.19-8.25,3.11-9.12m-.62-1.27l-3.76,11.01,25.13,8.57-20.24,17.76,7.68,8.75,27.8-24.4c1.56-1.37,2.27-3.47,1.87-5.51-.4-2.03-1.87-3.71-3.83-4.38l-34.65-11.82h0Z"/><path class="cls-1" d="m581.09,352.21l-20.75,17.17-4.48-26.17-11.47,1.96,6.18,36.09c.35,2.04,1.77,3.76,3.71,4.47.93.34,1.92.45,2.9.3.09-.01.17-.03.26-.05.94-.19,1.83-.61,2.57-1.22l28.49-23.58-7.42-8.96Z"/><path class="cls-10" d="m555.05,344.36l4.31,25.19.29,1.7,1.33-1.1,19.97-16.53,6.15,7.42-27.72,22.95c-.61.51-1.35.86-2.13,1.01-.07.01-.15.03-.22.04-.24.04-.48.06-.73.06-.57,0-1.14-.1-1.67-.3-1.61-.6-2.79-2.01-3.07-3.7l-6.01-35.1,9.5-1.63m.82-1.15l-11.47,1.96,6.18,36.09c.35,2.04,1.77,3.76,3.71,4.47.65.24,1.33.36,2.02.36.29,0,.59-.02.88-.07.09-.01.17-.03.26-.05.94-.19,1.83-.61,2.57-1.22l28.49-23.58-7.42-8.97-20.75,17.17-4.48-26.17h0Z"/><path class="cls-1" d="m558.6,388.68c-2.82.34-5.05,2.86-5.06,5.76l-.05,37.43h11.64s.04-32.32.04-32.32l32.38-4.28-1.53-11.54-37.43,4.95Z"/><path class="cls-54" d="m595.16,384.85l1.26,9.56-31.39,4.15-.87.11v.88s-.04,31.33-.04,31.33h-9.64s.05-36.44.05-36.44c0-2.39,1.84-4.49,4.19-4.77l36.44-4.82m.86-1.12l-37.43,4.95c-2.82.34-5.05,2.86-5.06,5.76l-.05,37.43h11.64s.04-32.32.04-32.32l32.38-4.28-1.53-11.54h0Z"/><path class="cls-1" d="m81.65,41.18l-34.65-11.82-3.76,11.01,25.13,8.57-20.24,17.76,7.68,8.75,27.8-24.4c1.56-1.37,2.27-3.47,1.87-5.51-.4-2.03-1.87-3.71-3.83-4.38Z"/><path class="cls-84" d="m47.62,30.64l33.7,11.49c1.62.55,2.84,1.94,3.17,3.62.33,1.68-.26,3.43-1.55,4.56l-27.05,23.74-6.36-7.24,19.49-17.1,1.3-1.14-1.64-.56-24.19-8.25,3.11-9.12m-.62-1.27l-3.76,11.01,25.13,8.57-20.24,17.76,7.68,8.75,27.8-24.4c1.56-1.37,2.27-3.47,1.87-5.51-.4-2.03-1.87-3.71-3.83-4.38l-34.65-11.82h0Z"/><path class="cls-1" d="m115.17,9l-20.75,17.17L89.95,0l-11.47,1.96,6.18,36.09c.35,2.04,1.77,3.76,3.71,4.47.93.34,1.92.45,2.9.3.09-.01.17-.03.26-.05.94-.19,1.83-.61,2.57-1.22l28.49-23.58-7.42-8.96Z"/><path class="cls-22" d="m89.13,1.15l4.31,25.19.29,1.7,1.33-1.1,19.97-16.53,6.15,7.42-27.72,22.95c-.61.51-1.35.86-2.13,1.01-.07.01-.15.03-.22.04-.24.04-.48.06-.73.06-.57,0-1.14-.1-1.67-.3-1.61-.6-2.79-2.01-3.07-3.7l-6.01-35.1,9.5-1.63m.82-1.15l-11.47,1.96,6.18,36.09c.35,2.04,1.77,3.76,3.71,4.47.65.24,1.33.36,2.02.36.29,0,.59-.02.88-.07.09-.01.17-.03.26-.05.94-.19,1.83-.61,2.57-1.22l28.49-23.58-7.42-8.96-20.75,17.17L89.95,0h0Z"/><path class="cls-1" d="m92.68,45.47c-2.82.34-5.05,2.86-5.06,5.76l-.05,37.43h11.64s.04-32.32.04-32.32l32.38-4.28-1.53-11.54-37.43,4.95Z"/><path class="cls-53" d="m129.25,41.64l1.26,9.56-31.39,4.15-.87.11v.88s-.04,31.33-.04,31.33h-9.64s.05-36.44.05-36.44c0-2.39,1.84-4.49,4.19-4.77l36.44-4.82m.86-1.12l-37.43,4.95c-2.82.34-5.05,2.86-5.06,5.76l-.05,37.43h11.64s.04-32.32.04-32.32l32.38-4.28-1.53-11.54h0Z"/><path class="cls-1" d="m149.75,78.61l-34.65-11.82-3.76,11.01,25.13,8.57-20.24,17.76,7.68,8.75,27.8-24.4c1.56-1.37,2.27-3.47,1.87-5.51-.4-2.03-1.87-3.71-3.83-4.38Z"/><path class="cls-82" d="m115.73,68.07l33.7,11.49c1.62.55,2.84,1.94,3.17,3.62.33,1.68-.26,3.43-1.55,4.56l-27.05,23.74-6.36-7.24,19.49-17.1,1.3-1.14-1.64-.56-24.19-8.25,3.11-9.12m-.62-1.27l-3.76,11.01,25.13,8.57-20.24,17.76,7.68,8.75,27.8-24.4c1.56-1.37,2.27-3.47,1.87-5.51-.4-2.03-1.87-3.71-3.83-4.38l-34.65-11.82h0Z"/><path class="cls-1" d="m183.28,46.43l-20.75,17.17-4.48-26.17-11.47,1.96,6.18,36.09c.35,2.04,1.77,3.76,3.71,4.47.93.34,1.92.45,2.9.3.09-.01.17-.03.26-.05.94-.19,1.83-.61,2.57-1.22l28.49-23.58-7.42-8.96Z"/><path class="cls-7" d="m157.24,38.58l4.31,25.19.29,1.7,1.33-1.1,19.97-16.53,6.15,7.42-27.72,22.95c-.61.51-1.35.86-2.13,1.01-.07.01-.15.03-.22.04-.24.04-.48.06-.73.06-.57,0-1.13-.1-1.67-.3-1.61-.6-2.79-2.01-3.07-3.7l-6.01-35.1,9.5-1.63m.82-1.15l-11.47,1.96,6.18,36.09c.35,2.04,1.77,3.76,3.71,4.47.65.24,1.33.36,2.02.36.29,0,.59-.02.88-.07.09-.01.17-.03.26-.05.94-.19,1.83-.61,2.57-1.22l28.49-23.58-7.42-8.96-20.75,17.17-4.48-26.17h0Z"/><path class="cls-1" d="m160.79,82.89c-2.82.34-5.05,2.86-5.06,5.76l-.05,37.43h11.64s.04-32.32.04-32.32l32.38-4.28-1.53-11.54-37.43,4.95Z"/><path class="cls-51" d="m197.35,79.07l1.26,9.56-31.39,4.15-.87.11v.88s-.04,31.33-.04,31.33h-9.64s.05-36.44.05-36.44c0-2.39,1.84-4.49,4.19-4.77l36.44-4.82m.86-1.12l-37.43,4.95c-2.82.34-5.05,2.86-5.06,5.76l-.05,37.43h11.64s.04-32.32.04-32.32l32.38-4.28-1.53-11.54h0Z"/><path class="cls-1" d="m217.86,116.04l-34.65-11.82-3.76,11.01,25.13,8.57-20.24,17.76,7.68,8.75,27.8-24.4c1.56-1.37,2.27-3.47,1.87-5.51-.4-2.03-1.87-3.71-3.83-4.38Z"/><path class="cls-86" d="m183.83,105.5l33.7,11.49c1.62.55,2.84,1.94,3.17,3.62.33,1.68-.26,3.43-1.55,4.56l-27.05,23.74-6.36-7.24,19.49-17.1,1.3-1.14-1.64-.56-24.19-8.25,3.11-9.12m-.62-1.27l-3.76,11.01,25.13,8.57-20.24,17.76,7.68,8.75,27.8-24.4c1.56-1.37,2.27-3.47,1.87-5.51-.4-2.03-1.87-3.71-3.83-4.38l-34.65-11.82h0Z"/><path class="cls-1" d="m251.38,83.86l-20.75,17.17-4.48-26.17-11.47,1.96,6.18,36.09c.35,2.04,1.77,3.76,3.71,4.47.93.34,1.92.45,2.9.3.09-.01.17-.03.26-.05.94-.19,1.83-.61,2.57-1.22l28.49-23.58-7.42-8.96Z"/><path class="cls-13" d="m225.34,76.01l4.31,25.19.29,1.7,1.33-1.1,19.97-16.53,6.15,7.42-27.72,22.95c-.61.51-1.35.86-2.13,1.01-.07.01-.15.03-.22.04-.24.04-.48.06-.73.06-.57,0-1.13-.1-1.67-.3-1.61-.6-2.79-2.01-3.07-3.7l-6.01-35.1,9.5-1.63m.82-1.15l-11.47,1.96,6.18,36.09c.35,2.04,1.77,3.76,3.71,4.47.65.24,1.33.36,2.02.36.29,0,.59-.02.88-.07.09-.01.17-.03.26-.05.94-.19,1.83-.61,2.57-1.22l28.49-23.58-7.42-8.96-20.75,17.17-4.48-26.17h0Z"/><path class="cls-1" d="m228.89,120.32c-2.82.34-5.05,2.86-5.06,5.76l-.05,37.43h11.64s.04-32.32.04-32.32l32.38-4.28-1.53-11.54-37.43,4.95Z"/><path class="cls-55" d="m265.46,116.5l1.26,9.56-31.39,4.15-.87.11v.88s-.04,31.33-.04,31.33h-9.64s.05-36.44.05-36.44c0-2.39,1.84-4.49,4.19-4.77l36.44-4.82m.86-1.12l-37.43,4.95c-2.82.34-5.05,2.86-5.06,5.76l-.05,37.43h11.64s.04-32.32.04-32.32l32.38-4.28-1.53-11.54h0Z"/><path class="cls-1" d="m285.96,153.47l-34.65-11.82-3.76,11.01,25.13,8.57-20.24,17.76,7.68,8.75,27.8-24.4c1.56-1.37,2.27-3.47,1.87-5.51-.4-2.03-1.87-3.71-3.83-4.38Z"/><path class="cls-85" d="m251.93,142.92l33.7,11.49c1.62.55,2.84,1.94,3.17,3.62.33,1.68-.26,3.43-1.55,4.56l-27.05,23.74-6.36-7.24,19.49-17.1,1.3-1.14-1.64-.56-24.19-8.25,3.11-9.12m-.62-1.27l-3.76,11.01,25.13,8.57-20.24,17.76,7.68,8.75,27.8-24.4c1.56-1.37,2.27-3.47,1.87-5.51-.4-2.03-1.87-3.71-3.83-4.38l-34.65-11.82h0Z"/><path class="cls-1" d="m319.49,121.29l-20.75,17.17-4.48-26.17-11.47,1.96,6.18,36.09c.35,2.04,1.77,3.76,3.71,4.47.93.34,1.92.45,2.9.3.09-.01.17-.03.26-.05.94-.19,1.83-.61,2.57-1.22l28.49-23.58-7.42-8.96Z"/><path class="cls-12" d="m293.44,113.44l4.31,25.19.29,1.7,1.33-1.1,19.97-16.53,6.15,7.42-27.72,22.95c-.61.51-1.35.86-2.13,1.01-.07.01-.15.03-.22.04-.24.04-.48.06-.73.06-.57,0-1.13-.1-1.67-.3-1.61-.6-2.79-2.01-3.07-3.7l-6.01-35.1,9.5-1.63m.82-1.15l-11.47,1.96,6.18,36.09c.35,2.04,1.77,3.76,3.71,4.47.65.24,1.33.36,2.02.36.29,0,.59-.02.88-.07.09-.01.17-.03.26-.05.94-.19,1.83-.61,2.57-1.22l28.49-23.58-7.42-8.96-20.75,17.17-4.48-26.17h0Z"/><path class="cls-1" d="m296.99,157.75c-2.82.34-5.05,2.86-5.06,5.76l-.05,37.43h11.64s.04-32.32.04-32.32l32.38-4.28-1.53-11.54-37.43,4.95Z"/><path class="cls-38" d="m333.56,153.93l1.26,9.56-31.39,4.15-.87.11v.88s-.04,31.33-.04,31.33h-9.64s.05-36.44.05-36.44c0-2.39,1.84-4.49,4.19-4.77l36.44-4.82m.86-1.12l-37.43,4.95c-2.82.34-5.05,2.86-5.06,5.76l-.05,37.43h11.64s.04-32.32.04-32.32l32.38-4.28-1.53-11.54h0Z"/><path class="cls-1" d="m354.06,190.9l-34.65-11.82-3.76,11.01,25.13,8.57-20.24,17.76,7.68,8.75,27.8-24.4c1.56-1.37,2.27-3.47,1.87-5.51-.4-2.03-1.87-3.71-3.83-4.38Z"/><path class="cls-79" d="m320.04,180.35l33.7,11.49c1.62.55,2.84,1.94,3.17,3.62.33,1.68-.26,3.43-1.55,4.56l-27.05,23.74-6.36-7.24,19.49-17.1,1.3-1.14-1.64-.56-24.19-8.25,3.11-9.12m-.62-1.27l-3.76,11.01,25.13,8.57-20.24,17.76,7.68,8.75,27.8-24.4c1.56-1.37,2.27-3.47,1.87-5.51-.4-2.03-1.87-3.71-3.83-4.38l-34.65-11.82h0Z"/><path class="cls-1" d="m387.59,158.72l-20.75,17.17-4.48-26.17-11.47,1.96,6.18,36.09c.35,2.04,1.77,3.76,3.71,4.47.93.34,1.92.45,2.9.3.09-.01.17-.03.26-.05.94-.19,1.83-.61,2.57-1.22l28.49-23.58-7.42-8.96Z"/><path class="cls-11" d="m361.55,150.87l4.31,25.19.29,1.7,1.33-1.1,19.97-16.53,6.15,7.42-27.72,22.95c-.61.51-1.35.86-2.13,1.01-.07.01-.15.03-.22.04-.24.04-.48.06-.73.06-.57,0-1.14-.1-1.67-.3-1.61-.6-2.79-2.01-3.07-3.7l-6.01-35.1,9.5-1.63m.82-1.15l-11.47,1.96,6.18,36.09c.35,2.04,1.77,3.76,3.71,4.47.65.24,1.33.36,2.02.36.29,0,.59-.02.88-.07.09-.01.17-.03.26-.05.94-.19,1.83-.61,2.57-1.22l28.49-23.58-7.42-8.96-20.75,17.17-4.48-26.17h0Z"/><path class="cls-1" d="m365.1,195.18c-2.82.34-5.05,2.86-5.06,5.76l-.05,37.43h11.64s.04-32.32.04-32.32l32.38-4.28-1.53-11.54-37.43,4.95Z"/><path class="cls-37" d="m401.66,191.36l1.26,9.56-31.39,4.15-.87.11v.88s-.04,31.33-.04,31.33h-9.64s.05-36.44.05-36.44c0-2.39,1.84-4.49,4.19-4.77l36.44-4.82m.86-1.12l-37.43,4.95c-2.82.34-5.05,2.86-5.06,5.76l-.05,37.43h11.64s.04-32.32.04-32.32l32.38-4.28-1.53-11.54h0Z"/><path class="cls-1" d="m422.17,228.33l-34.65-11.82-3.76,11.01,25.13,8.57-20.24,17.76,7.68,8.75,27.8-24.4c1.56-1.37,2.27-3.47,1.87-5.51-.4-2.03-1.87-3.71-3.83-4.38Z"/><path class="cls-78" d="m388.14,217.78l33.7,11.49c1.62.55,2.84,1.94,3.17,3.62.33,1.68-.26,3.43-1.55,4.56l-27.05,23.74-6.36-7.24,19.49-17.1,1.3-1.14-1.64-.56-24.19-8.25,3.11-9.12m-.62-1.27l-3.76,11.01,25.13,8.57-20.24,17.76,7.68,8.75,27.8-24.4c1.56-1.37,2.27-3.47,1.87-5.51-.4-2.03-1.87-3.71-3.83-4.38l-34.65-11.82h0Z"/><path class="cls-1" d="m455.69,196.14l-20.75,17.17-4.48-26.17-11.47,1.96,6.18,36.09c.35,2.04,1.77,3.76,3.71,4.47.93.34,1.92.45,2.9.3.09-.01.17-.03.26-.05.94-.19,1.83-.61,2.57-1.22l28.49-23.58-7.42-8.96Z"/><path class="cls-14" d="m429.65,188.3l4.31,25.19.29,1.7,1.33-1.1,19.97-16.53,6.15,7.42-27.72,22.95c-.61.51-1.35.86-2.13,1.01-.07.01-.15.03-.22.04-.24.04-.48.06-.73.06-.57,0-1.13-.1-1.67-.3-1.61-.6-2.79-2.01-3.07-3.7l-6.01-35.1,9.5-1.63m.82-1.15l-11.47,1.96,6.18,36.09c.35,2.04,1.77,3.76,3.71,4.47.65.24,1.33.36,2.02.36.29,0,.59-.02.88-.07.09-.01.17-.03.26-.05.94-.19,1.83-.61,2.57-1.22l28.49-23.58-7.42-8.97-20.75,17.17-4.48-26.17h0Z"/><path class="cls-1" d="m433.2,232.61c-2.82.34-5.05,2.86-5.06,5.76l-.05,37.43h11.64s.04-32.32.04-32.32l32.38-4.28-1.53-11.54-37.43,4.95Z"/><path class="cls-36" d="m469.77,228.78l1.26,9.56-31.39,4.15-.87.11v.88s-.04,31.33-.04,31.33h-9.64s.05-36.44.05-36.44c0-2.39,1.84-4.49,4.19-4.77l36.44-4.82m.86-1.12l-37.43,4.95c-2.82.34-5.05,2.86-5.06,5.76l-.05,37.43h11.64s.04-32.32.04-32.32l32.38-4.28-1.53-11.54h0Z"/><path class="cls-1" d="m490.27,265.76l-34.65-11.82-3.76,11.01,25.13,8.57-20.24,17.76,7.68,8.75,27.8-24.4c1.56-1.37,2.27-3.47,1.87-5.51-.4-2.03-1.87-3.71-3.83-4.38Z"/><path class="cls-83" d="m456.24,255.21l33.7,11.49c1.62.55,2.84,1.94,3.17,3.62.33,1.68-.26,3.43-1.55,4.56l-27.05,23.74-6.36-7.24,19.49-17.1,1.3-1.14-1.64-.56-24.19-8.25,3.11-9.12m-.62-1.27l-3.76,11.01,25.13,8.57-20.24,17.76,7.68,8.75,27.8-24.4c1.56-1.37,2.27-3.47,1.87-5.51-.4-2.03-1.87-3.71-3.83-4.38l-34.65-11.82h0Z"/><path class="cls-1" d="m523.8,233.57l-20.75,17.17-4.48-26.17-11.47,1.96,6.18,36.09c.35,2.04,1.77,3.76,3.71,4.47.93.34,1.92.45,2.9.3.09-.01.17-.03.26-.05.94-.19,1.83-.61,2.57-1.22l28.49-23.58-7.42-8.96Z"/><path class="cls-8" d="m497.75,225.73l4.31,25.19.29,1.7,1.33-1.1,19.97-16.53,6.15,7.42-27.72,22.95c-.61.51-1.35.86-2.13,1.01-.07.01-.15.03-.22.04-.24.04-.48.06-.73.06-.57,0-1.13-.1-1.67-.3-1.61-.6-2.79-2.01-3.07-3.7l-6.01-35.1,9.5-1.63m.82-1.15l-11.47,1.96,6.18,36.09c.35,2.04,1.77,3.76,3.71,4.47.65.24,1.33.36,2.02.36.29,0,.59-.02.88-.07.09-.01.17-.03.26-.05.94-.19,1.83-.61,2.57-1.22l28.49-23.58-7.42-8.97-20.75,17.17-4.48-26.17h0Z"/><path class="cls-1" d="m501.3,270.04c-2.82.34-5.05,2.86-5.06,5.76l-.05,37.43h11.64s.04-32.32.04-32.32l32.38-4.28-1.53-11.54-37.43,4.95Z"/><path class="cls-39" d="m537.87,266.21l1.26,9.56-31.39,4.15-.87.11v.88s-.04,31.33-.04,31.33h-9.64s.05-36.44.05-36.44c0-2.39,1.84-4.49,4.19-4.77l36.44-4.82m.86-1.12l-37.43,4.95c-2.82.34-5.05,2.86-5.06,5.76l-.05,37.43h11.64s.04-32.32.04-32.32l32.38-4.28-1.53-11.54h0Z"/><path class="cls-1" d="m558.38,303.18l-34.65-11.82-3.76,11.01,25.13,8.57-20.24,17.76,7.68,8.75,27.8-24.4c1.56-1.37,2.27-3.47,1.87-5.51-.4-2.03-1.87-3.71-3.83-4.38Z"/><path class="cls-77" d="m524.35,292.64l33.7,11.49c1.62.55,2.84,1.94,3.17,3.62.33,1.68-.26,3.43-1.55,4.56l-27.05,23.74-6.36-7.24,19.49-17.1,1.3-1.14-1.64-.56-24.19-8.25,3.11-9.12m-.62-1.27l-3.76,11.01,25.13,8.57-20.24,17.76,7.68,8.75,27.8-24.4c1.56-1.37,2.27-3.47,1.87-5.51-.4-2.03-1.87-3.71-3.83-4.38l-34.65-11.82h0Z"/><path class="cls-1" d="m591.9,271l-20.75,17.17-4.48-26.17-11.47,1.96,6.18,36.09c.35,2.04,1.77,3.76,3.71,4.47.93.34,1.92.45,2.9.3.09-.01.17-.03.26-.05.94-.19,1.83-.61,2.57-1.22l28.49-23.58-7.42-8.96Z"/><path class="cls-5" d="m565.86,263.15l4.31,25.19.29,1.7,1.33-1.1,19.97-16.53,6.15,7.42-27.72,22.95c-.61.51-1.35.86-2.13,1.01-.07.01-.15.03-.22.04-.24.04-.48.06-.73.06-.57,0-1.14-.1-1.67-.3-1.61-.6-2.79-2.01-3.07-3.7l-6.01-35.1,9.5-1.63m.82-1.15l-11.47,1.96,6.18,36.09c.35,2.04,1.77,3.76,3.71,4.47.65.24,1.33.36,2.02.36.29,0,.59-.02.88-.07.09-.01.17-.03.26-.05.94-.19,1.83-.61,2.57-1.22l28.49-23.58-7.42-8.97-20.75,17.17-4.48-26.17h0Z"/><path class="cls-1" d="m569.41,307.47c-2.82.34-5.05,2.86-5.06,5.76l-.05,37.43h11.64s.04-32.32.04-32.32l32.38-4.28-1.53-11.54-37.43,4.95Z"/><path class="cls-66" d="m605.97,303.64l1.26,9.56-31.39,4.15-.87.11v.88s-.04,31.33-.04,31.33h-9.64s.05-36.44.05-36.44c0-2.39,1.84-4.49,4.19-4.77l36.44-4.82m.86-1.12l-37.43,4.95c-2.82.34-5.05,2.86-5.06,5.76l-.05,37.43h11.64s.04-32.32.04-32.32l32.38-4.28-1.53-11.54h0Z"/></g></svg>