<?xml version="1.0" encoding="UTF-8"?><svg id="Calque_2" xmlns="http://www.w3.org/2000/svg" xmlns:xlink="http://www.w3.org/1999/xlink" viewBox="0 0 145.18 145.64"><defs><style>.cls-1{fill:url(#Dégradé_sans_nom_2);}.cls-2{fill:url(#Dégradé_sans_nom_6);}.cls-3{fill:url(#Dégradé_sans_nom_9);}</style><linearGradient id="Dégradé_sans_nom_2" x1="0" y1="86.09" x2="69.56" y2="86.09" gradientUnits="userSpaceOnUse"><stop offset="0" stop-color="#dcdc40"/><stop offset=".16" stop-color="#ccce3c"/><stop offset=".47" stop-color="#b5ba37"/><stop offset=".75" stop-color="#a7ae34"/><stop offset="1" stop-color="#a3aa34"/></linearGradient><linearGradient id="Dégradé_sans_nom_9" x1="57.87" y1="35.22" x2="130.34" y2="35.22" gradientUnits="userSpaceOnUse"><stop offset="0" stop-color="#971952"/><stop offset=".16" stop-color="#a42752"/><stop offset=".46" stop-color="#ba3e53"/><stop offset=".75" stop-color="#c74c53"/><stop offset="1" stop-color="#cc5154"/></linearGradient><linearGradient id="Dégradé_sans_nom_6" x1="72.82" y1="106.1" x2="145.18" y2="106.1" gradientUnits="userSpaceOnUse"><stop offset="0" stop-color="#e6bf3a"/><stop offset=".12" stop-color="#e9c431"/><stop offset=".69" stop-color="#f6dc0d"/><stop offset="1" stop-color="#fce500"/></linearGradient></defs><g id="Calque_1-2"><path class="cls-1" d="m63.08,67.65L6.17,48.24,0,66.33l41.28,14.08-33.25,29.18,12.61,14.37,45.66-40.07c2.55-2.24,3.73-5.71,3.07-9.04-.66-3.34-3.07-6.09-6.29-7.19Z"/><path class="cls-3" d="m118.15,14.78l-34.07,28.2L76.71,0l-18.84,3.23,10.15,59.27c.57,3.35,2.91,6.17,6.1,7.35,1.52.57,3.16.73,4.76.49.14-.02.29-.05.43-.08,1.55-.31,3.01-1,4.22-2.01l46.8-38.74-12.19-14.73Z"/><path class="cls-2" d="m81.2,74.68c-4.62.55-8.3,4.69-8.3,9.46l-.08,61.48,19.11.02.07-53.11,53.18-7.03-2.51-18.95-61.48,8.13Z"/></g></svg>