<?xml version="1.0" encoding="UTF-8"?><svg id="Calque_2" xmlns="http://www.w3.org/2000/svg" xmlns:xlink="http://www.w3.org/1999/xlink" viewBox="0 0 110.77 73.28"><defs><style>.cls-1,.cls-2,.cls-3,.cls-4,.cls-5,.cls-6,.cls-7,.cls-8,.cls-9,.cls-10,.cls-11{fill:none;}.cls-12{fill:url(#linear-gradient);}.cls-2{clip-path:url(#clippath-6);}.cls-3{clip-path:url(#clippath-5);}.cls-4{clip-path:url(#clippath-3);}.cls-5{clip-path:url(#clippath-4);}.cls-6{clip-path:url(#clippath-2);}.cls-7{clip-path:url(#clippath-1);}.cls-8{isolation:isolate;}.cls-13{filter:url(#luminosity-noclip);}.cls-14{fill:#f8db09;}.cls-15{fill:#fff;}.cls-16{fill:#009cdf;}.cls-17{fill:#c3007a;}.cls-18{fill:#6f6e6d;}.cls-19{fill:#5899d4;}.cls-9{mask:url(#mask-1);}.cls-20{fill:url(#linear-gradient-4);mix-blend-mode:multiply;}.cls-10{mask:url(#mask);}.cls-21{fill:url(#linear-gradient-3);}.cls-22{fill:url(#linear-gradient-2);}.cls-23{fill:url(#linear-gradient-5);}.cls-11{clip-path:url(#clippath);}</style><clipPath id="clippath"><path class="cls-1" d="m82.81,10.43l-5.95-1.01s-2.83,23.05-.27,55.69h9.16c-.64-15.06.03-29.24,2.9-57.48l-5.54-.63-.31,3.43Z"/></clipPath><linearGradient id="linear-gradient" x1="-689.32" y1="994.68" x2="-689.21" y2="994.68" gradientTransform="translate(-489483.6 361179.33) rotate(85) scale(525.95 -521.96) skewX(4.96)" gradientUnits="userSpaceOnUse"><stop offset="0" stop-color="#f1dae9"/><stop offset=".13" stop-color="#f0d6e7"/><stop offset=".23" stop-color="#eecce2"/><stop offset=".33" stop-color="#eabbd9"/><stop offset=".42" stop-color="#e5a3cd"/><stop offset=".5" stop-color="#de84bd"/><stop offset=".59" stop-color="#d65eaa"/><stop offset=".67" stop-color="#cd3293"/><stop offset=".75" stop-color="#c3007a"/><stop offset=".77" stop-color="#c5097e"/><stop offset=".8" stop-color="#cb228c"/><stop offset=".85" stop-color="#d44ca1"/><stop offset=".9" stop-color="#e285bf"/><stop offset=".96" stop-color="#f3cee5"/><stop offset="1" stop-color="#fff"/></linearGradient><clipPath id="clippath-1"><path class="cls-1" d="m64.64,19.61l-5.95-1.01s-2.41,16.76-.85,46.33h9.49c-.37-15.77.85-25.52,3.15-48.12l-5.54-.63-.31,3.44Z"/></clipPath><linearGradient id="linear-gradient-2" x1="-689.62" y1="995.05" x2="-689.51" y2="995.05" gradientTransform="translate(-410811.63 303156.3) rotate(85) scale(441.25 -437.9) skewX(4.96)" gradientUnits="userSpaceOnUse"><stop offset="0" stop-color="#daebfb"/><stop offset=".17" stop-color="#d7eafa"/><stop offset=".28" stop-color="#cee6f9"/><stop offset=".38" stop-color="#bfe1f7"/><stop offset=".47" stop-color="#a9d9f4"/><stop offset=".55" stop-color="#8dcff1"/><stop offset=".63" stop-color="#6bc3ec"/><stop offset=".7" stop-color="#43b4e7"/><stop offset=".77" stop-color="#15a3e1"/><stop offset=".8" stop-color="#009cdf"/><stop offset=".82" stop-color="#0aa0e0"/><stop offset=".85" stop-color="#28abe4"/><stop offset=".89" stop-color="#57bde9"/><stop offset=".94" stop-color="#99d7f2"/><stop offset=".99" stop-color="#ebf7fc"/><stop offset="1" stop-color="#fff"/></linearGradient><clipPath id="clippath-2"><path class="cls-1" d="m45.59,30.83l-5.95-1.01s-1.97,10.24-1.25,35.15l9.82-.02c-.03-14.15,1.46-19.7,3.22-36.92l-5.54-.63-.31,3.43Z"/></clipPath><linearGradient id="linear-gradient-3" x1="-690.18" y1="995.67" x2="-690.07" y2="995.67" gradientTransform="translate(-316814.6 233850.53) rotate(85) scale(340.08 -337.49) skewX(4.96)" gradientUnits="userSpaceOnUse"><stop offset="0" stop-color="#fbf1cd"/><stop offset=".13" stop-color="#faf0c9"/><stop offset=".24" stop-color="#faefbf"/><stop offset=".34" stop-color="#faedae"/><stop offset=".43" stop-color="#faea96"/><stop offset=".52" stop-color="#f9e777"/><stop offset=".61" stop-color="#f9e350"/><stop offset=".7" stop-color="#f8de24"/><stop offset=".74" stop-color="#f8db09"/><stop offset=".76" stop-color="#f8dc11"/><stop offset=".8" stop-color="#f8df29"/><stop offset=".85" stop-color="#fae54f"/><stop offset=".9" stop-color="#fbed84"/><stop offset=".96" stop-color="#fdf6c7"/><stop offset="1" stop-color="#fff"/></linearGradient><filter id="luminosity-noclip" x="-.97" y="50.68" width="112.72" height="11.37" color-interpolation-filters="sRGB" filterUnits="userSpaceOnUse"><feFlood flood-color="#fff" result="bg"/><feBlend in="SourceGraphic" in2="bg"/></filter><clipPath id="clippath-3"><rect class="cls-1" y="50.68" width="110.77" height="9.28"/></clipPath><clipPath id="clippath-4"><path class="cls-1" d="m110.75,50.68c-56.04,6.89-80.51,5.05-108.78,1.64l-1.97,4.49,6.56-.15-1.79,2.97s51.74,2.43,106.01-5.84l-.03-3.1Z"/></clipPath><filter id="luminosity-noclip-2" x="-.97" y="-8834.55" width="112.72" height="32766" color-interpolation-filters="sRGB" filterUnits="userSpaceOnUse"><feFlood flood-color="#fff" result="bg"/><feBlend in="SourceGraphic" in2="bg"/></filter><mask id="mask-1" x="-.97" y="-8834.55" width="112.72" height="32766" maskUnits="userSpaceOnUse"/><linearGradient id="linear-gradient-4" x1="-688.02" y1="995.29" x2="-687.91" y2="995.29" gradientTransform="translate(599478.58 1007278.32) scale(996.39 -1011.99) skewX(4.96)" gradientUnits="userSpaceOnUse"><stop offset="0" stop-color="#222221"/><stop offset="0" stop-color="#222221"/><stop offset=".02" stop-color="#2f2f2e"/><stop offset=".05" stop-color="#5a5a59"/><stop offset=".1" stop-color="#818181"/><stop offset=".14" stop-color="#a3a3a3"/><stop offset=".19" stop-color="silver"/><stop offset=".25" stop-color="#d7d7d7"/><stop offset=".31" stop-color="#e9e9e9"/><stop offset=".39" stop-color="#f5f5f5"/><stop offset=".49" stop-color="#fcfcfc"/><stop offset=".73" stop-color="#fff"/><stop offset=".78" stop-color="#fcfcfc"/><stop offset=".82" stop-color="#f3f3f3"/><stop offset=".85" stop-color="#e3e3e3"/><stop offset=".88" stop-color="#cdcdcd"/><stop offset=".91" stop-color="#b1b1b1"/><stop offset=".94" stop-color="#8f8f8e"/><stop offset=".96" stop-color="#666665"/><stop offset=".98" stop-color="#373736"/><stop offset=".99" stop-color="#222221"/><stop offset="1" stop-color="#222221"/></linearGradient><mask id="mask" x="-.97" y="50.68" width="112.72" height="11.37" maskUnits="userSpaceOnUse"><g class="cls-13"><g class="cls-4"><g class="cls-8"><g class="cls-5"><g class="cls-9"><polygon class="cls-20" points="0 50.68 111.75 50.68 110.77 62.05 -.97 62.05 0 50.68"/></g></g></g></g></g></mask><clipPath id="clippath-5"><rect class="cls-1" y="50.68" width="110.77" height="9.28"/></clipPath><clipPath id="clippath-6"><path class="cls-1" d="m110.75,50.68c-56.04,6.89-80.51,5.05-108.78,1.64l-1.97,4.49,6.56-.15-1.79,2.97s51.74,2.43,106.01-5.84l-.03-3.1Z"/></clipPath><linearGradient id="linear-gradient-5" x1="-688.02" y1="995.29" x2="-687.91" y2="995.29" gradientTransform="translate(599478.58 1007278.32) scale(996.39 -1011.99) skewX(4.96)" gradientUnits="userSpaceOnUse"><stop offset="0" stop-color="#469b46"/><stop offset="0" stop-color="#469b46"/><stop offset=".11" stop-color="#469b46"/><stop offset=".73" stop-color="#469b46"/><stop offset=".96" stop-color="#469b46"/><stop offset=".99" stop-color="#469b46"/><stop offset="1" stop-color="#469b46"/></linearGradient></defs><g id="Calque_1-2"><g class="cls-11"><polygon class="cls-12" points="88.66 7 93.74 65.11 74.04 65.11 68.95 7 88.66 7"/></g><path class="cls-17" d="m78.88,0s-1.45,12.64-.71,24.13l2.58.13s.34-10.15,2.17-23.77l-4.04-.49Z"/><g class="cls-7"><polygon class="cls-22" points="70.48 16.18 74.75 64.93 56.28 64.93 52.02 16.18 70.48 16.18"/></g><path class="cls-16" d="m60.7,9.18s-1.45,12.64-.71,24.13l2.58.13s.34-10.15,2.17-23.77l-4.04-.49Z"/><g class="cls-6"><polygon class="cls-21" points="51.43 27.39 54.72 64.97 37.67 64.97 34.38 27.39 51.43 27.39"/></g><path class="cls-14" d="m41.65,20.39s-1.45,12.64-.71,24.13l2.58.13s.34-10.15,2.17-23.77l-4.04-.49Z"/><g class="cls-10"><g class="cls-3"><g class="cls-2"><polygon class="cls-23" points="0 50.68 111.75 50.68 110.77 62.05 -.97 62.05 0 50.68"/></g></g></g><path class="cls-15" d="m78.93,34.61h0c-.15,0-.26-.12-.26-.27.13-14.88.41-17.32,1.29-22.81.32-1.98.64-3.14.87-3.83-.04-.03-.08-.07-.1-.12-.05-.12-.18-.53,0-.8.09-.13.24-.21.42-.21h.07c.14,0,.29,0,.39.14.1.15.05.3-.05.54-.19.47-.64,1.58-1.08,4.38-.88,5.46-1.16,7.89-1.29,22.73,0,.15-.12.26-.26.26"/><path class="cls-15" d="m83.77,12.92s-.09-.01-.13-.03c-2.46-1.37-5.25-1.37-6.89-.95-.14.04-.29-.05-.32-.19-.04-.14.05-.28.19-.32,1.73-.44,4.68-.45,7.27,1,.13.07.17.23.1.36-.05.09-.14.14-.23.14"/><path class="cls-15" d="m83.43,65.37c-.15,0-.27-.12-.28-.27-.57-14.64.1-27.05,2.98-55.32.02-.15.15-.26.3-.25.15.02.26.15.25.3-2.88,28.24-3.54,40.63-2.98,55.24,0,.15-.11.28-.26.29,0,0,0,0-.01,0"/><polygon class="cls-18" points="5.65 63.33 5.65 64.38 7.56 64.38 7.56 64.95 5.65 64.95 5.65 66.1 7.69 66.1 7.69 66.76 4.87 66.76 4.87 62.68 7.67 62.68 7.67 63.33 5.65 63.33"/><path class="cls-18" d="m12.05,62.68v4.08h-1.31l-1.17-2.24c-.06-.11-.15-.31-.27-.59l-.13-.29-.13-.29h-.03v.27s.02.27.02.27v.54s0,2.34,0,2.34h-.77v-4.08h1.31l1.06,2.07c.09.18.2.41.33.67l.16.33.16.34h.03v-.26s-.02-.26-.02-.26v-.53s0-2.35,0-2.35h.77Z"/><path class="cls-18" d="m15.8,63.87h-.76s0-.07,0-.08c-.02-.23-.07-.37-.15-.43-.08-.06-.28-.09-.59-.09-.37,0-.61.03-.72.1-.11.07-.17.21-.17.43,0,.26.05.41.14.46.09.05.39.09.91.12.61.03,1,.12,1.18.26.18.14.27.43.27.87,0,.54-.1.89-.31,1.05-.21.16-.67.24-1.38.24-.64,0-1.07-.08-1.28-.23-.21-.16-.32-.47-.32-.95v-.15s.75,0,.75,0v.09c0,.28.05.46.15.52.1.06.37.1.82.1.35,0,.57-.04.66-.11.1-.07.14-.24.14-.51,0-.2-.04-.33-.11-.39-.07-.06-.23-.1-.47-.12l-.43-.03c-.65-.04-1.06-.13-1.24-.27-.18-.14-.27-.45-.27-.91s.11-.79.32-.95c.22-.16.65-.24,1.3-.24.61,0,1.03.07,1.24.22.21.15.32.43.32.85v.16Z"/><polygon class="cls-18" points="17.13 63.33 17.13 64.38 19.04 64.38 19.04 64.95 17.13 64.95 17.13 66.1 19.16 66.1 19.16 66.76 16.35 66.76 16.35 62.68 19.15 62.68 19.15 63.33 17.13 63.33"/><rect class="cls-18" x="19.74" y="62.68" width=".77" height="4.08"/><path class="cls-18" d="m22.84,64.59h1.8v.81c.01.59-.1.97-.32,1.14-.22.17-.72.26-1.49.26-.71,0-1.17-.11-1.4-.34-.23-.23-.34-.69-.34-1.39,0-.89.05-1.46.14-1.69.11-.29.29-.48.52-.58.23-.1.62-.15,1.18-.15.73,0,1.19.08,1.41.23.21.15.32.5.32,1.03h-.78c-.01-.27-.07-.43-.17-.5-.1-.06-.36-.1-.77-.1-.45,0-.73.06-.85.17-.12.11-.18.37-.18.79v.41s0,.52,0,.52c0,.4.06.66.18.77.12.11.4.17.83.17s.69-.05.81-.14c.11-.09.17-.31.17-.66v-.17s-1.02,0-1.02,0v-.57Z"/><path class="cls-18" d="m28.98,62.68v4.08h-1.31l-1.17-2.24c-.06-.11-.15-.31-.27-.59l-.13-.29-.13-.29h-.03v.27s.02.27.02.27v.54s0,2.34,0,2.34h-.77v-4.08h1.31l1.06,2.07c.09.18.2.41.33.67l.16.33.16.34h.03v-.26s-.02-.26-.02-.26v-.53s0-2.35,0-2.35h.77Z"/><polygon class="cls-18" points="30.4 63.33 30.4 64.38 32.31 64.38 32.31 64.95 30.4 64.95 30.4 66.1 32.43 66.1 32.43 66.76 29.62 66.76 29.62 62.68 32.41 62.68 32.41 63.33 30.4 63.33"/><path class="cls-18" d="m37.78,62.68v4.08h-.77v-2.22c0-.18,0-.38.01-.6l.02-.31v-.3s0,0,0,0l-.09.28-.09.28c-.08.26-.15.44-.19.57l-.9,2.3h-.71l-.91-2.29c-.05-.12-.12-.31-.2-.56l-.09-.28-.09-.28h-.02v.3s.03.3.03.3c.01.23.02.43.02.59v2.22h-.77v-4.08h1.26l.73,1.89c.05.13.12.32.2.57l.09.28.09.28h.03l.09-.28.09-.28c.07-.24.14-.42.19-.56l.72-1.9h1.29Z"/><polygon class="cls-18" points="39.19 63.33 39.19 64.38 41.11 64.38 41.11 64.95 39.19 64.95 39.19 66.1 41.23 66.1 41.23 66.76 38.42 66.76 38.42 62.68 41.21 62.68 41.21 63.33 39.19 63.33"/><path class="cls-18" d="m45.59,62.68v4.08h-1.31l-1.17-2.24c-.06-.11-.15-.31-.27-.59l-.13-.29-.13-.29h-.03v.27s.02.27.02.27v.54s0,2.34,0,2.34h-.77v-4.08h1.31l1.06,2.07c.09.18.2.41.33.67l.16.33.16.34h.03v-.26s-.02-.26-.02-.26v-.53s0-2.35,0-2.35h.77Z"/><polygon class="cls-18" points="47.94 63.37 47.94 66.76 47.16 66.76 47.16 63.37 45.99 63.37 45.99 62.68 49.16 62.68 49.16 63.37 47.94 63.37"/><path class="cls-18" d="m53.6,65.3h.78v.14c0,.57-.1.94-.31,1.1-.21.17-.67.25-1.38.25-.81,0-1.3-.13-1.49-.39-.19-.26-.28-.97-.28-2.11,0-.67.13-1.12.38-1.33.25-.21.78-.32,1.58-.32.58,0,.97.09,1.17.26.2.17.29.52.29,1.04v.09s-.77,0-.77,0v-.1c0-.27-.05-.44-.15-.51-.1-.08-.33-.11-.69-.11-.48,0-.77.06-.87.18-.1.12-.14.47-.14,1.05,0,.78.04,1.24.13,1.39.09.14.37.22.84.22.38,0,.63-.04.75-.12.11-.08.17-.26.17-.53v-.18Z"/><path class="cls-18" d="m57.33,65.97h-1.76l-.25.78h-.82l1.36-4.08h1.16l1.38,4.08h-.8l-.26-.78Zm-.18-.57l-.71-2.13-.69,2.13h1.4Z"/><polygon class="cls-18" points="60.38 63.37 60.38 66.76 59.6 66.76 59.6 63.37 58.43 63.37 58.43 62.68 61.6 62.68 61.6 63.37 60.38 63.37"/><polygon class="cls-18" points="65.45 62.68 65.45 66.76 64.68 66.76 64.68 64.99 62.76 64.99 62.76 66.76 61.99 66.76 61.99 62.68 62.76 62.68 62.76 64.34 64.68 64.34 64.68 62.68 65.45 62.68"/><path class="cls-18" d="m67.86,62.64c.74,0,1.22.12,1.43.37.21.25.32.8.32,1.65,0,.94-.11,1.52-.32,1.77-.21.24-.73.37-1.56.37-.74,0-1.22-.12-1.44-.36-.22-.24-.33-.77-.33-1.59,0-.97.11-1.58.32-1.83.21-.25.74-.37,1.57-.37m-.06.66c-.52,0-.82.07-.91.2-.09.13-.13.6-.13,1.39,0,.59.05.94.15,1.06.1.12.41.18.91.18s.77-.07.86-.2c.1-.13.14-.54.14-1.22s-.05-1.09-.14-1.21c-.09-.12-.39-.19-.89-.19"/><polygon class="cls-18" points="70.91 62.68 70.91 66.06 72.83 66.06 72.83 66.76 70.14 66.76 70.14 62.68 70.91 62.68"/><rect class="cls-18" x="73.22" y="62.68" width=".77" height="4.08"/><path class="cls-18" d="m78.51,66.21l-.32.47-.39-.27c-.25.26-.74.39-1.45.39-.78,0-1.28-.12-1.5-.35-.22-.23-.33-.77-.33-1.59,0-.96.11-1.57.32-1.83.21-.26.71-.38,1.51-.38s1.28.12,1.5.36c.22.24.32.79.32,1.66,0,.62-.03,1.03-.08,1.26l.43.29Zm-2.32-.91l.32-.47.84.57c.02-.15.02-.25.02-.3v-.92c0-.38-.06-.62-.19-.73-.12-.11-.4-.16-.84-.16-.52,0-.82.07-.91.2-.09.13-.13.6-.13,1.39,0,.6.05.95.16,1.07.11.11.44.17,1,.17.29,0,.51-.06.67-.18l-.95-.64Z"/><path class="cls-18" d="m81.44,62.68h.77v2.71c0,.57-.11.94-.33,1.13-.22.18-.66.28-1.34.28-.71,0-1.18-.09-1.4-.26-.22-.17-.33-.54-.33-1.1v-2.76h.77v2.76c0,.3.05.49.16.57.11.08.36.12.76.12s.67-.04.77-.12c.1-.08.16-.28.16-.6v-2.73Z"/><polygon class="cls-18" points="83.62 63.33 83.62 64.38 85.53 64.38 85.53 64.95 83.62 64.95 83.62 66.1 85.66 66.1 85.66 66.76 82.85 66.76 82.85 62.68 85.64 62.68 85.64 63.33 83.62 63.33"/><path class="cls-19" d="m80.03,73.12s-.03.07-.08.09c-.04.02-.12.03-.22.03-.05,0-.09,0-.13,0-.03,0-.06-.01-.08-.02-.02,0-.03-.02-.04-.03,0-.01,0-.03,0-.05l.12-.62c-.03.08-.09.17-.17.26-.08.09-.18.18-.3.25-.11.08-.24.14-.38.19-.14.05-.28.08-.43.08s-.27-.02-.38-.06c-.11-.04-.2-.09-.27-.15-.07-.06-.13-.14-.18-.22-.05-.08-.08-.17-.11-.26-.03-.09-.04-.18-.05-.27,0-.09-.01-.17-.01-.25,0-.14.01-.3.04-.48.03-.18.07-.35.13-.53.06-.18.13-.35.23-.52s.2-.32.33-.45c.13-.13.28-.24.45-.32.17-.08.36-.12.58-.12.11,0,.2.01.3.03.09.02.18.06.25.1.08.04.15.09.21.15.06.06.12.12.17.18l.38-1.88s0-.03.02-.05c.01-.02.03-.03.06-.04.02,0,.06-.02.1-.02.04,0,.09,0,.15,0s.11,0,.15,0c.04,0,.07.01.09.02.02,0,.04.02.04.04,0,.02,0,.03,0,.05l-.98,4.91Zm-.12-2.44c-.12-.17-.24-.3-.37-.39-.13-.09-.28-.13-.45-.13-.13,0-.25.03-.35.09-.1.06-.2.14-.28.24-.08.1-.16.22-.22.35-.06.13-.11.26-.15.4-.04.14-.07.28-.09.41-.02.13-.03.26-.03.37,0,.24.04.42.12.55.08.13.21.19.39.19.13,0,.27-.04.41-.11.14-.07.26-.18.38-.31.12-.13.22-.28.31-.46.09-.18.16-.38.2-.59l.13-.61Z"/><path class="cls-19" d="m84.32,70.48c0,.17-.04.32-.12.46-.08.14-.2.25-.37.35-.17.1-.38.17-.64.22-.26.05-.57.08-.94.08h-.39c-.02.08-.03.16-.03.24,0,.08,0,.15,0,.21,0,.25.06.43.18.56.12.13.32.2.59.2.16,0,.3-.01.42-.03.13-.02.23-.05.33-.08.09-.03.17-.05.23-.08.06-.02.1-.03.12-.03s.04,0,.05.02c.01.02.02.04.02.07,0,.02,0,.05,0,.09,0,.03-.01.07-.02.1,0,.04-.02.07-.04.1-.02.03-.03.06-.05.08-.03.03-.08.06-.16.09-.07.03-.16.05-.27.08-.1.02-.22.04-.34.06-.12.01-.25.02-.37.02-.22,0-.41-.02-.57-.07-.16-.05-.3-.12-.41-.23-.11-.1-.19-.23-.24-.38-.05-.15-.08-.33-.08-.54,0-.16.02-.33.05-.51.03-.18.08-.36.15-.54.07-.18.15-.35.26-.52.11-.16.23-.31.38-.43.15-.13.31-.23.51-.3.19-.08.41-.11.65-.11.21,0,.38.03.52.08.14.05.26.12.35.2.09.08.16.17.2.27.04.1.06.2.06.3m-.62.06c0-.13-.05-.23-.15-.3-.1-.08-.24-.12-.42-.12-.16,0-.3.03-.42.08-.12.06-.23.13-.33.22-.09.09-.18.2-.24.33-.07.12-.12.25-.16.39h.38c.26,0,.47-.02.65-.05.17-.03.31-.08.42-.13.1-.06.18-.12.22-.19.04-.07.06-.15.06-.23"/><path class="cls-19" d="m88.46,73.1s-.04.05-.06.07c-.02.02-.05.03-.08.04-.03,0-.07.02-.12.02-.05,0-.11,0-.18,0-.08,0-.14,0-.2,0-.05,0-.09-.01-.12-.02-.03,0-.05-.02-.06-.04-.01-.02-.02-.04-.02-.07l-.67-4.46s-.01-.08,0-.11c0-.03.01-.05.03-.07.02-.01.05-.02.1-.03.04,0,.1,0,.18,0s.13,0,.17,0c.04,0,.08.01.1.02.02,0,.04.02.05.04,0,.02.02.04.02.06l.56,4.01h0l2.12-4.01s.03-.04.04-.06c.02-.02.04-.03.06-.04.03,0,.06-.02.11-.02.05,0,.1,0,.18,0s.14,0,.18,0,.07.02.09.03c.02.02.02.04.01.08,0,.03-.03.08-.06.13l-2.44,4.43Z"/><path class="cls-19" d="m93.53,70.48c0,.17-.04.32-.12.46-.08.14-.2.25-.37.35-.17.1-.38.17-.64.22-.26.05-.57.08-.94.08h-.39c-.02.08-.03.16-.03.24,0,.08,0,.15,0,.21,0,.25.06.43.18.56.12.13.32.2.59.2.16,0,.3-.01.42-.03.13-.02.23-.05.33-.08.09-.03.17-.05.23-.08.06-.02.1-.03.12-.03s.04,0,.05.02c.01.02.02.04.02.07,0,.02,0,.05,0,.09,0,.03-.01.07-.02.1,0,.04-.02.07-.04.1-.02.03-.03.06-.05.08-.03.03-.08.06-.16.09-.07.03-.16.05-.27.08-.1.02-.22.04-.34.06-.12.01-.25.02-.37.02-.22,0-.41-.02-.57-.07-.16-.05-.3-.12-.41-.23-.11-.1-.19-.23-.24-.38-.05-.15-.08-.33-.08-.54,0-.16.02-.33.05-.51.03-.18.08-.36.15-.54.07-.18.15-.35.26-.52.11-.16.23-.31.38-.43.15-.13.31-.23.51-.3.19-.08.41-.11.65-.11.21,0,.38.03.52.08.14.05.26.12.35.2.09.08.16.17.2.27.04.1.06.2.06.3m-.62.06c0-.13-.05-.23-.15-.3-.1-.08-.24-.12-.42-.12-.16,0-.3.03-.42.08-.12.06-.23.13-.33.22-.09.09-.18.2-.24.33-.07.12-.12.25-.16.39h.38c.26,0,.47-.02.65-.05.17-.03.31-.08.42-.13.1-.06.18-.12.22-.19.04-.07.06-.15.06-.23"/><path class="cls-19" d="m97.2,70.54c0,.09,0,.17-.01.25,0,.08-.02.17-.04.26l-.42,2.07s-.01.04-.02.05c-.01.01-.03.03-.06.03-.03,0-.06.02-.1.02-.04,0-.09,0-.15,0s-.11,0-.15,0c-.04,0-.07-.01-.09-.02-.02,0-.03-.02-.04-.03,0-.01,0-.03,0-.05l.41-2.05c.02-.08.03-.15.03-.22,0-.07,0-.13,0-.19,0-.15-.03-.27-.1-.36-.06-.09-.17-.14-.32-.14-.13,0-.26.04-.4.11-.14.07-.26.18-.38.31-.12.13-.22.29-.31.47-.09.18-.16.38-.2.59l-.29,1.48s-.01.04-.03.05c-.01.01-.03.03-.06.03-.02,0-.06.02-.1.02-.04,0-.09,0-.15,0s-.11,0-.15,0c-.04,0-.07-.01-.09-.02-.02,0-.03-.02-.04-.03,0-.01,0-.03,0-.05l.67-3.32s0-.03.02-.05c.01-.01.03-.03.05-.04.02,0,.05-.02.09-.02.04,0,.08,0,.13,0s.09,0,.13,0c.03,0,.06.01.08.02.02,0,.03.02.03.04,0,.01,0,.03,0,.05l-.13.63c.04-.08.1-.17.18-.27.08-.09.18-.18.3-.26.12-.08.24-.14.38-.2.14-.05.28-.08.43-.08.16,0,.3.03.41.08.11.05.2.12.27.2.07.08.12.18.15.29.03.11.04.22.04.34"/><path class="cls-19" d="m100.6,73.12s-.03.07-.08.09c-.04.02-.12.03-.22.03-.05,0-.09,0-.13,0-.03,0-.06-.01-.08-.02-.02,0-.03-.02-.04-.03,0-.01,0-.03,0-.05l.12-.62c-.03.08-.09.17-.17.26-.08.09-.18.18-.3.25-.11.08-.24.14-.38.19-.14.05-.28.08-.43.08s-.27-.02-.38-.06c-.11-.04-.2-.09-.27-.15-.07-.06-.13-.14-.18-.22-.05-.08-.08-.17-.11-.26-.03-.09-.04-.18-.05-.27,0-.09-.01-.17-.01-.25,0-.14.01-.3.04-.48.03-.18.07-.35.13-.53.06-.18.13-.35.23-.52.09-.17.2-.32.33-.45.13-.13.28-.24.45-.32.17-.08.36-.12.58-.12.11,0,.2.01.3.03.09.02.18.06.25.1.08.04.15.09.21.15.06.06.12.12.17.18l.38-1.88s0-.03.02-.05c.01-.02.03-.03.06-.04.02,0,.06-.02.1-.02.04,0,.09,0,.15,0s.11,0,.15,0c.04,0,.07.01.09.02.02,0,.04.02.04.04,0,.02,0,.03,0,.05l-.98,4.91Zm-.12-2.44c-.12-.17-.24-.3-.37-.39-.13-.09-.28-.13-.45-.13-.13,0-.25.03-.35.09-.1.06-.2.14-.28.24-.08.1-.16.22-.22.35-.06.13-.11.26-.15.4-.04.14-.07.28-.09.41-.02.13-.03.26-.03.37,0,.24.04.42.12.55.08.13.21.19.39.19.13,0,.27-.04.41-.11.14-.07.26-.18.38-.31.12-.13.22-.28.31-.46.09-.18.16-.38.2-.59l.13-.61Z"/><path class="cls-19" d="m104.89,70.48c0,.17-.04.32-.12.46-.08.14-.2.25-.37.35-.17.1-.38.17-.64.22-.26.05-.57.08-.94.08h-.39c-.02.08-.03.16-.03.24,0,.08,0,.15,0,.21,0,.25.06.43.18.56.12.13.32.2.59.2.16,0,.3-.01.42-.03.13-.02.23-.05.33-.08.09-.03.17-.05.23-.08.06-.02.1-.03.12-.03s.04,0,.05.02c.01.02.02.04.02.07,0,.02,0,.05,0,.09,0,.03-.01.07-.02.1,0,.04-.02.07-.04.1-.02.03-.03.06-.05.08-.03.03-.08.06-.16.09-.07.03-.16.05-.27.08-.1.02-.22.04-.34.06-.12.01-.25.02-.37.02-.22,0-.41-.02-.57-.07-.16-.05-.3-.12-.41-.23-.11-.1-.19-.23-.24-.38-.05-.15-.08-.33-.08-.54,0-.16.02-.33.05-.51.03-.18.08-.36.15-.54.07-.18.15-.35.26-.52.11-.16.23-.31.38-.43.15-.13.31-.23.51-.3.19-.08.41-.11.65-.11.21,0,.38.03.52.08.14.05.26.12.35.2.09.08.16.17.2.27.04.1.06.2.06.3m-.62.06c0-.13-.05-.23-.15-.3-.1-.08-.24-.12-.42-.12-.16,0-.3.03-.42.08-.12.06-.23.13-.33.22-.09.09-.18.2-.24.33-.07.12-.12.25-.16.39h.38c.26,0,.47-.02.65-.05.17-.03.31-.08.42-.13.1-.06.18-.12.22-.19.04-.07.06-.15.06-.23m-.22-1.46s-.03.04-.05.06c-.02.01-.04.03-.06.03-.02,0-.05.01-.08.02-.03,0-.07,0-.12,0-.05,0-.1,0-.13-.01-.03,0-.05-.02-.07-.03-.01-.01-.02-.03-.01-.05,0-.02.02-.04.03-.07l.57-.85s.04-.05.06-.07c.02-.02.05-.03.07-.04.03,0,.06-.02.1-.02.04,0,.09,0,.15,0,.07,0,.12,0,.16.01.04,0,.07.02.08.04.02.02.02.03.02.06,0,.02-.02.04-.03.06l-.7.86Z"/><path class="cls-19" d="m108.49,70.48c0,.17-.04.32-.12.46-.08.14-.2.25-.37.35-.17.1-.38.17-.64.22-.26.05-.57.08-.94.08h-.39c-.02.08-.03.16-.03.24,0,.08,0,.15,0,.21,0,.25.06.43.18.56.12.13.32.2.59.2.16,0,.3-.01.42-.03.13-.02.23-.05.33-.08.09-.03.17-.05.23-.08.06-.02.1-.03.12-.03s.04,0,.05.02c.01.02.02.04.02.07,0,.02,0,.05,0,.09,0,.03-.01.07-.02.1,0,.04-.02.07-.04.1-.02.03-.03.06-.05.08-.03.03-.08.06-.16.09-.07.03-.16.05-.27.08-.1.02-.22.04-.34.06-.12.01-.25.02-.37.02-.22,0-.41-.02-.57-.07-.16-.05-.3-.12-.41-.23-.11-.1-.19-.23-.24-.38-.05-.15-.08-.33-.08-.54,0-.16.02-.33.05-.51.03-.18.08-.36.15-.54.07-.18.15-.35.26-.52.11-.16.23-.31.38-.43.15-.13.31-.23.51-.3.19-.08.41-.11.65-.11.21,0,.38.03.52.08.14.05.26.12.35.2.09.08.16.17.2.27.04.1.06.2.06.3m-.62.06c0-.13-.05-.23-.15-.3-.1-.08-.24-.12-.42-.12-.16,0-.3.03-.42.08-.12.06-.23.13-.33.22-.09.09-.18.2-.24.33-.07.12-.12.25-.16.39h.38c.26,0,.47-.02.65-.05.17-.03.31-.08.42-.13.1-.06.18-.12.22-.19.04-.07.06-.15.06-.23"/></g></svg>