<?xml version="1.0" encoding="UTF-8"?><svg id="Calque_2" xmlns="http://www.w3.org/2000/svg" viewBox="0 0 239.18 209.63"><defs><style>.cls-1{fill:#fc0;}.cls-2{fill:#2765b2;}</style></defs><g id="Calque_1-2"><path class="cls-2" d="m25.11,208.87H1v-36.6h24.11v4.33H5.87v10.03h19.25v4.33H5.87v13.59h19.25v4.33"/><path class="cls-2" d="m47.7,186.46h-.25c-.69-.16-1.36-.28-2-.36-.65-.07-1.41-.11-2.3-.11-1.43,0-2.8.32-4.13.95-1.33.63-2.61,1.45-3.83,2.45v19.49h-4.62v-27.46h4.62v4.06c1.84-1.47,3.45-2.52,4.85-3.13,1.4-.61,2.83-.92,4.29-.92.8,0,1.38.02,1.75.06.36.04.9.12,1.62.23v4.74"/><path class="cls-2" d="m67.95,202.11v-7.64c-1.41.08-3.07.21-4.98.37-1.91.16-3.42.4-4.54.71-1.33.38-2.4.96-3.22,1.76-.82.8-1.23,1.89-1.23,3.28,0,1.57.48,2.76,1.43,3.55.95.79,2.4,1.19,4.35,1.19,1.62,0,3.11-.32,4.45-.95,1.34-.63,2.59-1.39,3.74-2.27h0Zm4.6,6.76h-4.6v-2.92c-.41.28-.96.67-1.66,1.17-.7.5-1.37.9-2.03,1.19-.77.38-1.66.69-2.65.95-1,.25-2.17.38-3.51.38-2.48,0-4.57-.82-6.29-2.46-1.72-1.64-2.58-3.73-2.58-6.27,0-2.08.45-3.76,1.34-5.05.89-1.29,2.17-2.3,3.82-3.04,1.67-.74,3.68-1.24,6.02-1.5,2.34-.26,4.86-.46,7.55-.59v-.71c0-1.05-.18-1.92-.55-2.61-.37-.69-.9-1.23-1.59-1.62-.65-.38-1.44-.63-2.36-.76-.92-.13-1.88-.2-2.88-.2-1.21,0-2.56.16-4.06.48-1.49.32-3.03.78-4.62,1.39h-.25v-4.69c.9-.25,2.2-.52,3.91-.81,1.7-.29,3.38-.44,5.04-.44,1.93,0,3.62.16,5.05.48,1.43.32,2.68.87,3.72,1.63,1.03.75,1.82,1.73,2.36,2.92.54,1.2.81,2.68.81,4.45v18.63"/><path class="cls-2" d="m99.31,200.95c0,2.51-1.04,4.56-3.11,6.17-2.07,1.61-4.9,2.41-8.49,2.41-2.03,0-3.9-.24-5.59-.73-1.7-.48-3.12-1.01-4.26-1.58v-5.19h.25c1.46,1.1,3.08,1.97,4.87,2.62,1.79.65,3.5.97,5.14.97,2.03,0,3.62-.33,4.77-.98,1.15-.66,1.72-1.69,1.72-3.1,0-1.08-.31-1.9-.93-2.46-.62-.56-1.82-1.03-3.59-1.43-.66-.15-1.51-.32-2.57-.52-1.06-.2-2.02-.41-2.89-.64-2.41-.64-4.12-1.58-5.12-2.81-1.01-1.24-1.51-2.76-1.51-4.56,0-1.13.23-2.2.7-3.19.47-1,1.18-1.89,2.13-2.68.92-.77,2.08-1.38,3.5-1.83,1.42-.45,3-.68,4.76-.68,1.64,0,3.3.2,4.98.6,1.68.4,3.08.89,4.19,1.46v4.94h-.25c-1.18-.87-2.61-1.6-4.3-2.2-1.69-.6-3.34-.9-4.96-.9s-3.11.32-4.28.97c-1.16.65-1.75,1.61-1.75,2.89,0,1.13.35,1.98,1.06,2.56.69.57,1.8,1.04,3.34,1.4.85.2,1.81.39,2.86.59,1.06.2,1.94.38,2.64.54,2.15.49,3.8,1.34,4.97,2.53,1.16,1.21,1.74,2.82,1.74,4.82"/><path class="cls-2" d="m144.29,208.87h-4.62v-15.63c0-1.18-.05-2.32-.16-3.42-.11-1.1-.33-1.97-.68-2.63-.38-.7-.92-1.24-1.62-1.6-.7-.36-1.72-.54-3.05-.54s-2.59.32-3.88.97c-1.29.65-2.59,1.47-3.88,2.47.05.38.09.82.12,1.31.03.5.05,1,.05,1.49v17.57h-4.62v-15.63c0-1.21-.05-2.36-.16-3.45-.11-1.09-.33-1.96-.68-2.62-.38-.7-.92-1.23-1.62-1.59-.7-.35-1.72-.53-3.05-.53s-2.53.31-3.8.93c-1.27.62-2.54,1.42-3.8,2.38v20.5h-4.62v-27.46h4.62v3.05c1.44-1.2,2.88-2.13,4.31-2.8,1.43-.67,2.96-1.01,4.58-1.01,1.87,0,3.45.39,4.76,1.18,1.3.79,2.27,1.88,2.91,3.27,1.87-1.57,3.57-2.71,5.11-3.4,1.54-.7,3.19-1.04,4.94-1.04,3.01,0,5.24.91,6.67,2.74,1.43,1.83,2.15,4.38,2.15,7.66v17.82"/><path class="cls-2" d="m173.4,208.87h-4.62v-3.05c-1.56,1.23-3.05,2.17-4.47,2.83-1.43.66-3,.98-4.72.98-2.88,0-5.13-.88-6.73-2.64-1.61-1.76-2.41-4.35-2.41-7.75v-17.82h4.62v15.63c0,1.39.07,2.59.2,3.58.13.99.41,1.84.84,2.54.44.72,1.02,1.25,1.72,1.57.7.33,1.73.49,3.07.49,1.2,0,2.5-.31,3.92-.93,1.42-.62,2.74-1.42,3.97-2.38v-20.5h4.62v27.46"/><path class="cls-2" d="m200.38,200.95c0,2.51-1.04,4.56-3.11,6.17-2.07,1.61-4.9,2.41-8.49,2.41-2.03,0-3.9-.24-5.59-.73-1.7-.48-3.12-1.01-4.27-1.58v-5.19h.25c1.46,1.1,3.08,1.97,4.87,2.62,1.79.65,3.5.97,5.14.97,2.03,0,3.62-.33,4.77-.98,1.15-.66,1.72-1.69,1.72-3.1,0-1.08-.31-1.9-.93-2.46-.62-.56-1.82-1.03-3.59-1.43-.66-.15-1.51-.32-2.57-.52-1.06-.2-2.02-.41-2.89-.64-2.41-.64-4.12-1.58-5.12-2.81s-1.51-2.76-1.51-4.56c0-1.13.23-2.2.7-3.19.47-1,1.18-1.89,2.13-2.68.92-.77,2.09-1.38,3.5-1.83,1.42-.45,3-.68,4.76-.68,1.64,0,3.3.2,4.98.6,1.68.4,3.08.89,4.19,1.46v4.94h-.25c-1.18-.87-2.61-1.6-4.3-2.2-1.69-.6-3.34-.9-4.97-.9s-3.11.32-4.28.97c-1.16.65-1.75,1.61-1.75,2.89,0,1.13.35,1.98,1.06,2.56.69.57,1.8,1.04,3.34,1.4.85.2,1.81.39,2.86.59,1.06.2,1.94.38,2.64.54,2.15.49,3.8,1.34,4.97,2.53,1.16,1.21,1.75,2.82,1.75,4.82"/><path class="cls-2" d="m239.09,194.81h-13.4v13.4h-4.08v-13.4h-13.4v-3.93h13.4v-13.4h4.08v13.4h13.4v3.93"/><rect class="cls-2" width="239.18" height="159.45"/><g id="a"><g id="b"><path id="g" class="cls-1" d="m119.59,17.72l-2.74,8.42,4.21,1.37-1.48-9.79Z"/><path id="g-2" class="cls-1" d="m119.59,17.72l2.74,8.42-4.21,1.37,1.48-9.79Z"/></g><g id="c"><g id="b-2"><path id="g-3" class="cls-1" d="m128.02,23.84h-8.86v4.43l8.86-4.43Z"/><path id="g-4" class="cls-1" d="m128.02,23.84l-7.17,5.21-2.6-3.58,9.77-1.62Z"/></g><g id="b-3"><path id="g-5" class="cls-1" d="m124.8,33.74l-2.74-8.42-4.21,1.37,6.95,7.06Z"/><path id="g-6" class="cls-1" d="m124.8,33.74l-7.17-5.21,2.6-3.58,4.56,8.79Z"/></g></g><g id="c-2"><g id="b-4"><path id="g-7" class="cls-1" d="m111.17,23.84h8.86v4.43l-8.86-4.43Z"/><path id="g-8" class="cls-1" d="m111.17,23.84l7.17,5.21,2.6-3.58-9.77-1.62Z"/></g><g id="b-5"><path id="g-9" class="cls-1" d="m114.38,33.74l2.74-8.42,4.21,1.37-6.95,7.06Z"/><path id="g-10" class="cls-1" d="m114.38,33.74l7.17-5.21-2.6-3.58-4.56,8.79Z"/></g></g></g><g id="a-2"><g id="b-6"><path id="g-11" class="cls-1" d="m119.59,124.02l-2.74,8.42,4.21,1.37-1.48-9.79Z"/><path id="g-12" class="cls-1" d="m119.59,124.02l2.74,8.42-4.21,1.37,1.48-9.79Z"/></g><g id="c-3"><g id="b-7"><path id="g-13" class="cls-1" d="m128.02,130.14h-8.86v4.43l8.86-4.43Z"/><path id="g-14" class="cls-1" d="m128.02,130.14l-7.17,5.21-2.6-3.58,9.77-1.62Z"/></g><g id="b-8"><path id="g-15" class="cls-1" d="m124.8,140.05l-2.74-8.42-4.21,1.37,6.95,7.06Z"/><path id="g-16" class="cls-1" d="m124.8,140.05l-7.17-5.21,2.6-3.58,4.56,8.79Z"/></g></g><g id="c-4"><g id="b-9"><path id="g-17" class="cls-1" d="m111.17,130.14h8.86v4.43l-8.86-4.43Z"/><path id="g-18" class="cls-1" d="m111.17,130.14l7.17,5.21,2.6-3.58-9.77-1.62Z"/></g><g id="b-10"><path id="g-19" class="cls-1" d="m114.38,140.05l2.74-8.42,4.21,1.37-6.95,7.06Z"/><path id="g-20" class="cls-1" d="m114.38,140.05l7.17-5.21-2.6-3.58-4.56,8.79Z"/></g></g></g><g id="f"><g id="a-3"><g id="b-11"><path id="g-21" class="cls-1" d="m66.44,70.87l-2.74,8.42,4.21,1.37-1.48-9.79Z"/><path id="g-22" class="cls-1" d="m66.44,70.87l2.74,8.42-4.21,1.37,1.48-9.79Z"/></g><g id="c-5"><g id="b-12"><path id="g-23" class="cls-1" d="m74.86,76.99h-8.86v4.43l8.86-4.43Z"/><path id="g-24" class="cls-1" d="m74.86,76.99l-7.17,5.21-2.6-3.58,9.77-1.62Z"/></g><g id="b-13"><path id="g-25" class="cls-1" d="m71.65,86.89l-2.74-8.42-4.21,1.37,6.95,7.06Z"/><path id="g-26" class="cls-1" d="m71.65,86.89l-7.17-5.21,2.6-3.58,4.56,8.79Z"/></g></g><g id="c-6"><g id="b-14"><path id="g-27" class="cls-1" d="m58.01,76.99h8.86v4.43l-8.86-4.43Z"/><path id="g-28" class="cls-1" d="m58.01,76.99l7.17,5.21,2.6-3.58-9.77-1.62Z"/></g><g id="b-15"><path id="g-29" class="cls-1" d="m61.23,86.89l2.74-8.42,4.21,1.37-6.95,7.06Z"/><path id="g-30" class="cls-1" d="m61.23,86.89l7.17-5.21-2.6-3.58-4.56,8.79Z"/></g></g></g><g id="a-4"><g id="b-16"><path id="g-31" class="cls-1" d="m87.81,40.86l7.17-5.21-2.6-3.58-4.56,8.79Z"/><path id="g-32" class="cls-1" d="m87.81,40.86l2.74-8.42,4.21,1.37-6.95,7.06Z"/></g><g id="c-7"><g id="b-17"><path id="g-33" class="cls-1" d="m84.59,30.96l7.17,5.21,2.6-3.58-9.77-1.62Z"/><path id="g-34" class="cls-1" d="m84.59,30.96h8.86s0,4.43,0,4.43l-8.86-4.43Z"/></g><g id="b-18"><path id="g-35" class="cls-1" d="m93.01,24.84l-2.74,8.42,4.21,1.37-1.48-9.79Z"/><path id="g-36" class="cls-1" d="m93.01,24.84l2.74,8.42-4.21,1.37,1.48-9.79Z"/></g></g><g id="c-8"><g id="b-19"><path id="g-37" class="cls-1" d="m98.22,40.86l-7.17-5.21,2.6-3.58,4.56,8.79Z"/><path id="g-38" class="cls-1" d="m98.22,40.86l-2.74-8.42-4.21,1.37,6.95,7.06Z"/></g><g id="b-20"><path id="g-39" class="cls-1" d="m101.44,30.96l-7.17,5.21-2.6-3.58,9.77-1.62Z"/><path id="g-40" class="cls-1" d="m101.44,30.96h-8.86v4.43s8.86-4.43,8.86-4.43Z"/></g></g></g><g id="a-5"><g id="b-21"><path id="g-41" class="cls-1" d="m78.77,60.32l-2.74-8.42-4.21,1.37,6.95,7.06Z"/><path id="g-42" class="cls-1" d="m78.77,60.32l-7.17-5.21,2.6-3.58,4.56,8.79Z"/></g><g id="c-9"><g id="b-22"><path id="g-43" class="cls-1" d="m68.35,60.32l7.17-5.21-2.6-3.58-4.56,8.79Z"/><path id="g-44" class="cls-1" d="m68.35,60.32l2.74-8.42,4.21,1.37-6.95,7.06Z"/></g><g id="b-23"><path id="g-45" class="cls-1" d="m65.13,50.41l7.17,5.21,2.6-3.58-9.77-1.62Z"/><path id="g-46" class="cls-1" d="m65.13,50.41h8.86v4.43s-8.86-4.43-8.86-4.43Z"/></g></g><g id="c-10"><g id="b-24"><path id="g-47" class="cls-1" d="m81.98,50.41l-7.17,5.21-2.6-3.58,9.77-1.62Z"/><path id="g-48" class="cls-1" d="m81.98,50.41h-8.86s0,4.43,0,4.43l8.86-4.43Z"/></g><g id="b-25"><path id="g-49" class="cls-1" d="m73.56,44.29l2.74,8.42-4.21,1.37,1.48-9.79Z"/><path id="g-50" class="cls-1" d="m73.56,44.29l-2.74,8.42,4.21,1.37-1.48-9.79Z"/></g></g></g><g id="a-6"><g id="b-26"><path id="g-51" class="cls-1" d="m81.99,103.57h-8.86v4.43l8.86-4.43Z"/><path id="g-52" class="cls-1" d="m81.99,103.57l-7.17,5.21-2.6-3.58,9.77-1.62Z"/></g><g id="c-11"><g id="b-27"><path id="g-53" class="cls-1" d="m78.77,113.47l-2.74-8.42-4.21,1.37,6.95,7.06Z"/><path id="g-54" class="cls-1" d="m78.77,113.47l-7.17-5.21,2.6-3.58,4.56,8.79Z"/></g><g id="b-28"><path id="g-55" class="cls-1" d="m68.35,113.47l7.17-5.21-2.6-3.58-4.56,8.79Z"/><path id="g-56" class="cls-1" d="m68.35,113.47l2.74-8.42,4.21,1.37-6.95,7.06Z"/></g></g><g id="c-12"><g id="b-29"><path id="g-57" class="cls-1" d="m73.56,97.44l2.74,8.42-4.21,1.37,1.48-9.79Z"/><path id="g-58" class="cls-1" d="m73.56,97.44l-2.74,8.42,4.21,1.37-1.48-9.79Z"/></g><g id="b-30"><path id="g-59" class="cls-1" d="m65.14,103.57h8.86s0,4.43,0,4.43l-8.86-4.43Z"/><path id="g-60" class="cls-1" d="m65.14,103.57l7.17,5.21,2.6-3.58-9.77-1.62Z"/></g></g></g><g id="a-7"><g id="b-31"><path id="g-61" class="cls-1" d="m101.44,123.02h-8.86v4.43l8.86-4.43Z"/><path id="g-62" class="cls-1" d="m101.44,123.02l-7.17,5.21-2.6-3.58,9.77-1.62Z"/></g><g id="c-13"><g id="b-32"><path id="g-63" class="cls-1" d="m98.22,132.92l-2.74-8.42-4.21,1.37,6.95,7.06Z"/><path id="g-64" class="cls-1" d="m98.22,132.92l-7.17-5.21,2.6-3.58,4.56,8.79Z"/></g><g id="b-33"><path id="g-65" class="cls-1" d="m87.81,132.92l7.17-5.21-2.6-3.58-4.56,8.79Z"/><path id="g-66" class="cls-1" d="m87.81,132.92l2.74-8.42,4.21,1.37-6.95,7.06Z"/></g></g><g id="c-14"><g id="b-34"><path id="g-67" class="cls-1" d="m93.02,116.9l2.74,8.42-4.21,1.37,1.48-9.79Z"/><path id="g-68" class="cls-1" d="m93.02,116.9l-2.74,8.42,4.21,1.37-1.48-9.79Z"/></g><g id="b-35"><path id="g-69" class="cls-1" d="m84.59,123.02h8.86s0,4.43,0,4.43l-8.86-4.43Z"/><path id="g-70" class="cls-1" d="m84.59,123.02l7.17,5.21,2.6-3.58-9.77-1.62Z"/></g></g></g></g><g id="f-2"><g id="a-8"><g id="b-36"><path id="g-71" class="cls-1" d="m172.74,70.87l2.74,8.42-4.21,1.37,1.48-9.79Z"/><path id="g-72" class="cls-1" d="m172.74,70.87l-2.74,8.42,4.21,1.37-1.48-9.79Z"/></g><g id="c-15"><g id="b-37"><path id="g-73" class="cls-1" d="m164.32,76.99h8.86v4.43l-8.86-4.43Z"/><path id="g-74" class="cls-1" d="m164.32,76.99l7.17,5.21,2.6-3.58-9.77-1.62Z"/></g><g id="b-38"><path id="g-75" class="cls-1" d="m167.53,86.89l2.74-8.42,4.21,1.37-6.95,7.06Z"/><path id="g-76" class="cls-1" d="m167.53,86.89l7.17-5.21-2.6-3.58-4.56,8.79Z"/></g></g><g id="c-16"><g id="b-39"><path id="g-77" class="cls-1" d="m181.17,76.99h-8.86v4.43l8.86-4.43Z"/><path id="g-78" class="cls-1" d="m181.17,76.99l-7.17,5.21-2.6-3.58,9.77-1.62Z"/></g><g id="b-40"><path id="g-79" class="cls-1" d="m177.95,86.89l-2.74-8.42-4.21,1.37,6.95,7.06Z"/><path id="g-80" class="cls-1" d="m177.95,86.89l-7.17-5.21,2.6-3.58,4.56,8.79Z"/></g></g></g><g id="a-9"><g id="b-41"><path id="g-81" class="cls-1" d="m151.37,40.86l-7.17-5.21,2.6-3.58,4.56,8.79Z"/><path id="g-82" class="cls-1" d="m151.37,40.86l-2.74-8.42-4.21,1.37,6.95,7.06Z"/></g><g id="c-17"><g id="b-42"><path id="g-83" class="cls-1" d="m154.59,30.96l-7.17,5.21-2.6-3.58,9.77-1.62Z"/><path id="g-84" class="cls-1" d="m154.59,30.96h-8.86s0,4.43,0,4.43l8.86-4.43Z"/></g><g id="b-43"><path id="g-85" class="cls-1" d="m146.17,24.84l2.74,8.42-4.21,1.37,1.48-9.79Z"/><path id="g-86" class="cls-1" d="m146.17,24.84l-2.74,8.42,4.21,1.37-1.48-9.79Z"/></g></g><g id="c-18"><g id="b-44"><path id="g-87" class="cls-1" d="m140.96,40.86l7.17-5.21-2.6-3.58-4.56,8.79Z"/><path id="g-88" class="cls-1" d="m140.96,40.86l2.74-8.42,4.21,1.37-6.95,7.06Z"/></g><g id="b-45"><path id="g-89" class="cls-1" d="m137.74,30.96l7.17,5.21,2.6-3.58-9.77-1.62Z"/><path id="g-90" class="cls-1" d="m137.74,30.96h8.86v4.43s-8.86-4.43-8.86-4.43Z"/></g></g></g><g id="a-10"><g id="b-46"><path id="g-91" class="cls-1" d="m160.41,60.32l2.74-8.42,4.21,1.37-6.95,7.06Z"/><path id="g-92" class="cls-1" d="m160.41,60.32l7.17-5.21-2.6-3.58-4.56,8.79Z"/></g><g id="c-19"><g id="b-47"><path id="g-93" class="cls-1" d="m170.83,60.32l-7.17-5.21,2.6-3.58,4.56,8.79Z"/><path id="g-94" class="cls-1" d="m170.83,60.32l-2.74-8.42-4.21,1.37,6.95,7.06Z"/></g><g id="b-48"><path id="g-95" class="cls-1" d="m174.05,50.41l-7.17,5.21-2.6-3.58,9.77-1.62Z"/><path id="g-96" class="cls-1" d="m174.05,50.41h-8.86v4.43s8.86-4.43,8.86-4.43Z"/></g></g><g id="c-20"><g id="b-49"><path id="g-97" class="cls-1" d="m157.2,50.41l7.17,5.21,2.6-3.58-9.77-1.62Z"/><path id="g-98" class="cls-1" d="m157.2,50.41h8.86s0,4.43,0,4.43l-8.86-4.43Z"/></g><g id="b-50"><path id="g-99" class="cls-1" d="m165.62,44.29l-2.74,8.42,4.21,1.37-1.48-9.79Z"/><path id="g-100" class="cls-1" d="m165.62,44.29l2.74,8.42-4.21,1.37,1.48-9.79Z"/></g></g></g><g id="a-11"><g id="b-51"><path id="g-101" class="cls-1" d="m157.2,103.57h8.86v4.43l-8.86-4.43Z"/><path id="g-102" class="cls-1" d="m157.2,103.57l7.17,5.21,2.6-3.58-9.77-1.62Z"/></g><g id="c-21"><g id="b-52"><path id="g-103" class="cls-1" d="m160.41,113.47l2.74-8.42,4.21,1.37-6.95,7.06Z"/><path id="g-104" class="cls-1" d="m160.41,113.47l7.17-5.21-2.6-3.58-4.56,8.79Z"/></g><g id="b-53"><path id="g-105" class="cls-1" d="m170.83,113.47l-7.17-5.21,2.6-3.58,4.56,8.79Z"/><path id="g-106" class="cls-1" d="m170.83,113.47l-2.74-8.42-4.21,1.37,6.95,7.06Z"/></g></g><g id="c-22"><g id="b-54"><path id="g-107" class="cls-1" d="m165.62,97.44l-2.74,8.42,4.21,1.37-1.48-9.79Z"/><path id="g-108" class="cls-1" d="m165.62,97.44l2.74,8.42-4.21,1.37,1.48-9.79Z"/></g><g id="b-55"><path id="g-109" class="cls-1" d="m174.05,103.57h-8.86s0,4.43,0,4.43l8.86-4.43Z"/><path id="g-110" class="cls-1" d="m174.05,103.57l-7.17,5.21-2.6-3.58,9.77-1.62Z"/></g></g></g><g id="a-12"><g id="b-56"><path id="g-111" class="cls-1" d="m137.74,123.02h8.86v4.43l-8.86-4.43Z"/><path id="g-112" class="cls-1" d="m137.74,123.02l7.17,5.21,2.6-3.58-9.77-1.62Z"/></g><g id="c-23"><g id="b-57"><path id="g-113" class="cls-1" d="m140.96,132.92l2.74-8.42,4.21,1.37-6.95,7.06Z"/><path id="g-114" class="cls-1" d="m140.96,132.92l7.17-5.21-2.6-3.58-4.56,8.79Z"/></g><g id="b-58"><path id="g-115" class="cls-1" d="m151.37,132.92l-7.17-5.21,2.6-3.58,4.56,8.79Z"/><path id="g-116" class="cls-1" d="m151.37,132.92l-2.74-8.42-4.21,1.37,6.95,7.06Z"/></g></g><g id="c-24"><g id="b-59"><path id="g-117" class="cls-1" d="m146.17,116.9l-2.74,8.42,4.21,1.37-1.48-9.79Z"/><path id="g-118" class="cls-1" d="m146.17,116.9l2.74,8.42-4.21,1.37,1.48-9.79Z"/></g><g id="b-60"><path id="g-119" class="cls-1" d="m154.59,123.02h-8.86s0,4.43,0,4.43l8.86-4.43Z"/><path id="g-120" class="cls-1" d="m154.59,123.02l-7.17,5.21-2.6-3.58,9.77-1.62Z"/></g></g></g></g></g></svg>