<?xml version="1.0" encoding="UTF-8"?><svg xmlns="http://www.w3.org/2000/svg" xmlns:xlink="http://www.w3.org/1999/xlink" viewBox="0 0 149.72 94.65"><defs><style>.cls-1{fill:none;isolation:isolate;}.cls-2{fill:#154b6d;}.cls-3{fill:url(#Dégradé_sans_nom_9);}.cls-3,.cls-4,.cls-5{mix-blend-mode:multiply;}.cls-4{fill:url(#Dégradé_sans_nom_6);}.cls-5{fill:url(#Dégradé_sans_nom_2);}</style><linearGradient id="Dégradé_sans_nom_2" x1="87.52" y1="36.86" x2="117.32" y2="36.86" gradientUnits="userSpaceOnUse"><stop offset="0" stop-color="#dcdc40"/><stop offset=".16" stop-color="#ccce3c"/><stop offset=".47" stop-color="#b5ba37"/><stop offset=".75" stop-color="#a7ae34"/><stop offset="1" stop-color="#a3aa34"/></linearGradient><linearGradient id="Dégradé_sans_nom_9" x1="112.33" y1="15.09" x2="143.36" y2="15.09" gradientUnits="userSpaceOnUse"><stop offset="0" stop-color="#971952"/><stop offset=".16" stop-color="#a42752"/><stop offset=".46" stop-color="#ba3e53"/><stop offset=".75" stop-color="#c74c53"/><stop offset="1" stop-color="#cc5154"/></linearGradient><linearGradient id="Dégradé_sans_nom_6" x1="118.73" y1="45.44" x2="149.72" y2="45.44" gradientUnits="userSpaceOnUse"><stop offset="0" stop-color="#e6bf3a"/><stop offset=".12" stop-color="#e9c431"/><stop offset=".69" stop-color="#f6dc0d"/><stop offset="1" stop-color="#fce500"/></linearGradient></defs><g class="cls-1"><g id="Calque_2"><g id="Calque_1-2"><path class="cls-5" d="m114.54,28.96l-24.38-8.31-2.64,7.75,17.68,6.03-14.24,12.5,5.4,6.15,19.56-17.16c1.09-.96,1.6-2.44,1.32-3.87-.28-1.43-1.32-2.61-2.7-3.08Z"/><path class="cls-3" d="m138.14,6.33l-14.59,12.08-3.15-18.41-8.07,1.38,4.35,25.39c.25,1.44,1.25,2.64,2.61,3.15.65.24,1.35.31,2.04.21.06,0,.12-.02.18-.03.66-.13,1.29-.43,1.81-.86l20.04-16.59-5.22-6.31Z"/><path class="cls-4" d="m122.32,31.98c-1.98.24-3.55,2.01-3.56,4.05l-.03,26.33h8.19s.03-22.74.03-22.74l22.78-3.01-1.07-8.12-26.33,3.48Z"/><path class="cls-2" d="m30.15,77.39c-.5-1.27-1.13-2.32-1.86-3.13-.73-.8-1.69-1.57-2.87-2.27-1.15-.68-2.19-1.21-3.12-1.57-.9-.35-2-.74-3.28-1.17-.2-.08-.51-.18-.91-.29-2.37-.78-4.14-1.52-5.28-2.2-.98-.59-1.45-1.37-1.45-2.41,0-1.11.4-1.99,1.21-2.69.83-.71,2.04-1.07,3.58-1.07,2.84,0,4.97,1.13,6.53,3.46l.38.58,7.4-5.59-.52-.53c-1.86-1.89-3.86-3.37-5.97-4.4-2.13-1.04-4.78-1.56-7.87-1.56-3.95,0-7.28,1.16-9.89,3.45-2.64,2.31-3.97,5.21-3.97,8.62,0,1.52.25,2.93.75,4.18.5,1.24,1.09,2.26,1.77,3.04.68.78,1.64,1.51,2.84,2.18,1.17.65,2.2,1.14,3.05,1.46.85.31,1.96.67,3.33,1.08.13.03.32.1.62.21,1.82.57,3.12,1.01,3.88,1.29.69.26,1.43.74,2.2,1.41.69.6,1.03,1.28,1.03,2.06,0,1.28-.45,2.33-1.38,3.23-.94.9-2.21,1.34-3.9,1.34-3.44,0-6.07-1.64-8.03-5.01l-.38-.65-8.03,6.33.45.52c4.28,4.87,9.67,7.35,16.04,7.35,4.33,0,7.85-1.31,10.46-3.89,2.62-2.58,3.95-5.66,3.95-9.16,0-1.52-.25-2.94-.75-4.21Z"/><polygon class="cls-2" points="56.73 61.64 56.73 53.11 32.97 53.11 32.97 94.1 41.83 94.1 41.83 77.79 56.73 77.79 56.73 69.26 41.83 69.26 41.83 61.64 56.73 61.64"/><path class="cls-2" d="m86.46,58.87c-3.84-3.83-9.17-5.76-15.84-5.76h-11.51v41h11.83c6.16,0,11.31-1.96,15.3-5.84,3.99-3.88,6.02-8.81,6.02-14.66s-1.95-10.91-5.79-14.74Zm-3.18,14.74c0,3.55-1.18,6.38-3.59,8.66h0c-2.4,2.26-5.63,3.41-9.61,3.41h-1.99v-24.13h1.66c4.48,0,7.89,1.1,10.15,3.27,2.24,2.16,3.38,5.12,3.38,8.8Z"/><path class="cls-2" d="m112.39,53.11h-8.53l-14.55,41h9.27l2.39-6.91h14.3l2.39,6.91h9.27l-14.55-41Zm-.07,25.56h-8.4l4.2-12.15,4.2,12.15Z"/></g></g></g></svg>