<?xml version="1.0" encoding="UTF-8"?><svg xmlns="http://www.w3.org/2000/svg" viewBox="0 0 149.72 117.43"><defs><style>.cls-1{fill:none;isolation:isolate;}.cls-2,.cls-3{fill:#fff;}.cls-3{mix-blend-mode:multiply;}</style></defs><g class="cls-1"><g id="Calque_2"><g id="Calque_1-2"><path class="cls-2" d="m3.27,111.28c-.29.36-.54.73-.86,1.06-.21.23-.49.42-.75.57-.18.08-.36.13-.52.13-.42,0-.78-.23-.96-.65-.13-.28-.21-.65-.18-.96.21-1.69.99-3.09,2.31-4.15.29-.21.6-.36.93-.36.23,0,.52.08.78.29.18-.93.34-1.84.57-2.72.36-1.37.78-2.75,1.17-4.13.1-.36.26-.73.44-1.06.21-.34.52-.7.96-.7.39,0,.73.31.75.78,0,.26-.05.52-.1.78-.49,2.33-1.01,4.64-1.45,6.98-.36,1.97-.54,4-.39,5.99.08,1.09.29,2.13.44,3.19.05.26.13.49.39.6.21.08.13.23,0,.34-.16.13-.31.18-.49.18-.08,0-.18,0-.26-.03-.34-.05-.62-.26-.88-.52-1.4-1.32-1.53-4.15-1.53-5.94-.03,0-.05-.03-.08-.03-.1.1-.18.23-.29.36Zm.18-3.45c-.05,0-.1,0-.16.03-.18.05-.34.18-.49.31-.98.88-1.61,2.02-1.87,3.32-.03.18-.03.36.03.52.05.18.16.31.31.31.18,0,.7-.39.8-.52.99-1.04,1.74-2.02,1.79-3.5.03-.26-.18-.47-.42-.47Z"/><path class="cls-2" d="m9.92,111.41c.6-.7,1.19-1.43,1.79-2.15.34-.39.7-.8,1.04-1.19.21-.21.49-.49.83-.49.31,0,.54.21.62.54.05.26.05.54.03.81-.13,1.58-.18,3.16,0,4.75.03.23,0,.49,0,.73-.03.18-.13.29-.26.29-.03,0-.05,0-.1-.03-.18-.1-.39-.23-.49-.39-.16-.34-.31-.68-.39-1.04-.23-.98-.26-2.02-.21-3.04.03-.13,0-.23,0-.47-.18.23-.31.39-.44.57-.54.73-1.09,1.48-1.66,2.18-.36.49-1.06,1.17-1.71,1.17-.57,0-1.06-.44-1.17-1.14-.05-.39-.03-.8.05-1.19.31-1.61,1.76-5.11,3.48-5.79.18-.05.39-.1.57-.1.13,0,.23,0,.36.05.52.15.83.67.7,1.19-.05.23-.16.36-.31.36-.08,0-.18-.03-.29-.1-.1-.05-.18-.08-.26-.08s-.18.03-.26.1c-.13.16-.29.29-.39.44-.88,1.27-1.58,2.62-1.97,4.12-.03.08-.05.18-.08.29.03.03.05.03.08.05.16-.13.31-.29.44-.44Z"/><path class="cls-2" d="m18.17,112c-.08.36-.16.73-.29,1.09-.13.44-.42.83-.93.88-1.22,0-1.64-1.25-1.74-2.28-.21-1.69,0-3.35.42-4.98.08-.29.23-.57.44-.83.15-.23.39-.34.67-.34.1,0,.21.03.31.05.39.13.6.44.62.83,0,.47-.05.96-.1,1.43-.05.78-.13,1.58-.1,2.39.05-.08.1-.16.18-.23.44-.67.86-1.37,1.35-2.02.29-.42.86-.96,1.4-.96.42,0,.75.26.96.73.08.21.16.47.18.7.05,1.43.05,2.83-.18,4.23-.05.23-.16.36-.31.36-.08,0-.16-.03-.23-.05-.57-.13-.93-.93-.96-1.45-.05-.6-.05-1.17-.05-1.74,0-.31.05-.6.08-.88-.05,0-.1-.03-.13-.03-.8.91-1.32,1.95-1.58,3.11Z"/><path class="cls-2" d="m23.86,111.51c-.13-.15-.28-.26-.42-.42-.8-.75-.98-1.69-.62-2.7.42-1.17,1.25-2,2.34-2.57.13-.08.31-.13.49-.13.08,0,.15,0,.21.03.39.05.55.49.31.83-.08.1-.21.18-.31.29-.36.44-.75.86-1.09,1.3-.18.23-.31.54-.42.83-.13.31-.05.65.1.91.08.13.18.23.26.34.91,1.09.96,1.79.21,2.96-.39.62-.8,1.09-1.48,1.4-.08.03-.15.03-.26.03h-.29c.05-.16.1-.31.18-.44.26-.49.57-.99.83-1.48.1-.21.13-.44.21-.7-.08-.15-.16-.34-.26-.47Z"/><path class="cls-2" d="m32.83,100.12c.13-.31.26-.62.44-.91.13-.21.31-.39.52-.52.13-.1.29-.15.44-.15.13,0,.29.05.39.13.26.18.29.44.21.75-.78,2.93-1.45,5.89-1.66,8.93-.13,2.08.13,4.12.73,6.1.13.39.26.78.65,1.01.08.03.13.13.13.18-.03.08-.13.13-.21.15-.13.05-.29.08-.42.08-1.01,0-1.79-1.45-2.05-2.26-.57-1.56-.86-3.19-.83-4.88.08-2.96.62-5.84,1.66-8.61Z"/><path class="cls-2" d="m37.64,106.04c.18-.05.34-.1.49-.1.7,0,1.19.57,1.09,1.35-.16,1.09-1.09,2.36-1.92,3.01-.23.18-.31.34-.28.62.08.57.23,1.14.6,1.61.18.21.34.39.62.39.05,0,.1,0,.18-.03.05,0,.08-.03.1-.03.18,0,.18.13.1.31-.18.42-.6.7-1.06.7-.08,0-.16,0-.23-.03-1.48-.34-2.08-2.28-2.08-3.61.08-1.56.75-3.61,2.39-4.2Zm.52,1.32c-.62.34-1.09,1.32-1.06,2.23.62-.47,1.17-1.61,1.06-2.23Z"/><path class="cls-2" d="m45.4,111.51c-.13-.15-.29-.26-.42-.42-.8-.75-.98-1.69-.62-2.7.42-1.17,1.25-2,2.34-2.57.13-.08.31-.13.49-.13.08,0,.16,0,.21.03.39.05.54.49.31.83-.08.1-.21.18-.31.29-.36.44-.75.86-1.09,1.3-.18.23-.31.54-.42.83-.13.31-.05.65.1.91.08.13.18.23.26.34.91,1.09.96,1.79.21,2.96-.39.62-.8,1.09-1.48,1.4-.08.03-.15.03-.26.03h-.29c.05-.16.1-.31.18-.44.26-.49.57-.99.83-1.48.1-.21.13-.44.21-.7-.08-.15-.16-.34-.26-.47Z"/><path class="cls-2" d="m50.95,106.04c.18-.05.34-.1.49-.1.7,0,1.19.57,1.09,1.35-.16,1.09-1.09,2.36-1.92,3.01-.23.18-.31.34-.28.62.08.57.23,1.14.6,1.61.18.21.34.39.62.39.05,0,.1,0,.18-.03.05,0,.08-.03.1-.03.18,0,.18.13.1.31-.18.42-.6.7-1.06.7-.08,0-.16,0-.23-.03-1.48-.34-2.08-2.28-2.08-3.61.08-1.56.75-3.61,2.39-4.2Zm.52,1.32c-.62.34-1.09,1.32-1.06,2.23.62-.47,1.17-1.61,1.06-2.23Z"/><path class="cls-2" d="m56.37,112c-.08.36-.16.73-.29,1.09-.13.44-.42.83-.93.88-1.22,0-1.64-1.25-1.74-2.28-.21-1.69,0-3.35.42-4.98.08-.29.23-.57.44-.83.15-.23.39-.34.67-.34.1,0,.21.03.31.05.39.13.6.44.62.83,0,.47-.05.96-.1,1.43-.05.78-.13,1.58-.1,2.39.05-.08.1-.16.18-.23.44-.67.86-1.37,1.35-2.02.29-.42.86-.96,1.4-.96.42,0,.75.26.96.73.08.21.16.47.18.7.05,1.43.05,2.83-.18,4.23-.05.23-.16.36-.31.36-.08,0-.16-.03-.23-.05-.57-.13-.93-.93-.96-1.45-.05-.6-.05-1.17-.05-1.74,0-.31.05-.6.08-.88-.05,0-.1-.03-.13-.03-.8.91-1.32,1.95-1.58,3.11Z"/><path class="cls-2" d="m62.06,111.51c-.13-.15-.28-.26-.42-.42-.8-.75-.98-1.69-.62-2.7.42-1.17,1.25-2,2.34-2.57.13-.08.31-.13.49-.13.08,0,.15,0,.21.03.39.05.55.49.31.83-.08.1-.21.18-.31.29-.36.44-.75.86-1.09,1.3-.18.23-.31.54-.42.83-.13.31-.05.65.1.91.08.13.18.23.26.34.91,1.09.96,1.79.21,2.96-.39.62-.8,1.09-1.48,1.4-.08.03-.15.03-.26.03h-.29c.05-.16.1-.31.18-.44.26-.49.57-.99.83-1.48.1-.21.13-.44.21-.7-.08-.15-.16-.34-.26-.47Z"/><path class="cls-2" d="m72.65,111.28c-.29.36-.54.73-.86,1.06-.21.23-.49.42-.75.57-.18.08-.36.13-.52.13-.42,0-.78-.23-.96-.65-.13-.28-.21-.65-.18-.96.21-1.69.99-3.09,2.31-4.15.28-.21.6-.36.93-.36.23,0,.52.08.78.29.18-.93.34-1.84.57-2.72.36-1.37.78-2.75,1.17-4.13.1-.36.26-.73.44-1.06.21-.34.52-.7.96-.7.39,0,.73.31.75.78,0,.26-.05.52-.1.78-.49,2.33-1.01,4.64-1.45,6.98-.36,1.97-.54,4-.39,5.99.08,1.09.29,2.13.44,3.19.05.26.13.49.39.6.21.08.13.23,0,.34-.16.13-.31.18-.49.18-.08,0-.18,0-.26-.03-.34-.05-.62-.26-.88-.52-1.4-1.32-1.53-4.15-1.53-5.94-.03,0-.05-.03-.08-.03-.1.1-.18.23-.29.36Zm.18-3.45c-.05,0-.1,0-.16.03-.18.05-.34.18-.49.31-.99.88-1.61,2.02-1.87,3.32-.03.18-.03.36.03.52.05.18.16.31.31.31.18,0,.7-.39.8-.52.99-1.04,1.74-2.02,1.79-3.5.03-.26-.18-.47-.42-.47Z"/><path class="cls-2" d="m79.52,106.04c.18-.05.34-.1.49-.1.7,0,1.19.57,1.09,1.35-.16,1.09-1.09,2.36-1.92,3.01-.23.18-.31.34-.28.62.08.57.23,1.14.6,1.61.18.21.34.39.62.39.05,0,.1,0,.18-.03.05,0,.08-.03.1-.03.18,0,.18.13.1.31-.18.42-.6.7-1.06.7-.08,0-.16,0-.23-.03-1.48-.34-2.08-2.28-2.08-3.61.08-1.56.75-3.61,2.39-4.2Zm.52,1.32c-.62.34-1.09,1.32-1.06,2.23.62-.47,1.17-1.61,1.06-2.23Z"/><path class="cls-2" d="m87.73,100.12c.13-.31.26-.62.44-.91.13-.21.31-.39.52-.52.13-.1.29-.15.44-.15.13,0,.29.05.39.13.26.18.29.44.21.75-.78,2.93-1.45,5.89-1.66,8.93-.13,2.08.13,4.12.73,6.1.13.39.26.78.65,1.01.08.03.13.13.13.18-.03.08-.13.13-.21.15-.13.05-.29.08-.42.08-1.01,0-1.79-1.45-2.05-2.26-.57-1.56-.86-3.19-.83-4.88.08-2.96.62-5.84,1.66-8.61Z"/><path class="cls-2" d="m90.58,105.98c-.03.05-.08.13-.13.16-.08.03-.15.08-.23.08-.03-.03-.08-.13-.08-.18,0-.52,0-1.01.05-1.53.05-.49.13-.98.18-1.48.03-.29,0-.57,0-.88-.03-.34.08-.55.34-.65.08-.05.18-.08.26-.08.18,0,.36.08.49.23.23.21.36.6.36,1.04-.08,1.22-.47,2.31-1.25,3.29Z"/><path class="cls-2" d="m94.76,111.41c.6-.7,1.19-1.43,1.79-2.15.34-.39.7-.8,1.04-1.19.21-.21.49-.49.83-.49.31,0,.54.21.62.54.05.26.05.54.03.81-.13,1.58-.18,3.16,0,4.75.03.23,0,.49,0,.73-.03.18-.13.29-.26.29-.03,0-.05,0-.1-.03-.18-.1-.39-.23-.49-.39-.16-.34-.31-.68-.39-1.04-.23-.98-.26-2.02-.21-3.04.03-.13,0-.23,0-.47-.18.23-.31.39-.44.57-.54.73-1.09,1.48-1.66,2.18-.36.49-1.06,1.17-1.71,1.17-.57,0-1.06-.44-1.17-1.14-.05-.39-.03-.8.05-1.19.31-1.61,1.76-5.11,3.48-5.79.18-.05.39-.1.57-.1.13,0,.23,0,.36.05.52.15.83.67.7,1.19-.05.23-.16.36-.31.36-.08,0-.18-.03-.29-.1-.1-.05-.18-.08-.26-.08s-.18.03-.26.1c-.13.16-.29.29-.39.44-.88,1.27-1.58,2.62-1.97,4.12-.03.08-.05.18-.08.29.03.03.05.03.08.05.16-.13.31-.29.44-.44Z"/><path class="cls-2" d="m102.78,112.08c.49-1.53.96-3.11,1.4-4.67.08-.23.21-.42.31-.62.03,0,.08.03.1.03-.05.29-.08.54-.13.83-.21,1.48-.44,2.96-.83,4.41-.13.39-.26.81-.44,1.19-.21.47-.65,1.01-1.22,1.01-.23,0-.44-.08-.65-.21-.83-.6-1.19-1.87-1.27-2.83-.1-1.45-.13-2.91.08-4.38.05-.6.29-1.25.99-1.25.36.03.62.29.7.67.05.26.05.54.05.8,0,1.22-.05,2.44-.03,3.66.03.57.1,1.14.18,1.71.03.16.1.31.16.52.34-.29.49-.57.6-.88Z"/><path class="cls-2" d="m108.07,106.04c.18-.05.34-.1.49-.1.7,0,1.19.57,1.09,1.35-.16,1.09-1.09,2.36-1.92,3.01-.23.18-.31.34-.29.62.08.57.23,1.14.6,1.61.18.21.34.39.62.39.05,0,.1,0,.18-.03.05,0,.08-.03.1-.03.18,0,.18.13.1.31-.18.42-.6.7-1.06.7-.08,0-.16,0-.23-.03-1.48-.34-2.08-2.28-2.08-3.61.08-1.56.75-3.61,2.39-4.2Zm.52,1.32c-.62.34-1.09,1.32-1.06,2.23.62-.47,1.17-1.61,1.06-2.23Z"/><path class="cls-2" d="m113.5,112c-.08.36-.16.73-.29,1.09-.13.44-.42.83-.93.88-1.22,0-1.64-1.25-1.74-2.28-.21-1.69,0-3.35.42-4.98.08-.29.23-.57.44-.83.16-.23.39-.34.68-.34.1,0,.21.03.31.05.39.13.6.44.62.83,0,.47-.05.96-.1,1.43-.05.78-.13,1.58-.1,2.39.05-.08.1-.16.18-.23.44-.67.86-1.37,1.35-2.02.29-.42.86-.96,1.4-.96.42,0,.75.26.96.73.08.21.16.47.18.7.05,1.43.05,2.83-.18,4.23-.05.23-.16.36-.31.36-.08,0-.15-.03-.23-.05-.57-.13-.93-.93-.96-1.45-.05-.6-.05-1.17-.05-1.74,0-.31.05-.6.08-.88-.05,0-.1-.03-.13-.03-.8.91-1.32,1.95-1.58,3.11Z"/><path class="cls-2" d="m120.79,113.38c.29.03.26.21.18.39-.15.34-.47.54-.8.54-.08,0-.16,0-.23-.03-1.17-.29-1.66-2.02-1.87-3.06-.21-1.19-.1-2.39.13-3.58.1-.49.42-1.19,1.01-1.19.08,0,.13,0,.21.03.34.08.54.31.62.75v.49c0,1.4,0,2.91.16,4.31.03.29.18,1.35.6,1.35Zm-.49-11.13c.03.13.05.29,0,.42-.23.7-.52,1.43-.78,2.13-.03.08-.13.18-.21.21-.05,0-.15-.1-.21-.18-.39-.86-.36-1.71-.03-2.57.13-.26.34-.44.67-.44.29,0,.49.15.54.44Z"/><path class="cls-2" d="m126.16,107.88c-.16,0-.29.13-.52.36-.67.73-1.11,1.58-1.43,2.52-.23.8-.42,1.61-.65,2.39-.05.21-.08.42-.18.62-.16.36-.49.57-.83.57-.65,0-.93-.6-1.09-1.14-.21-.86-.18-1.71-.05-2.57.16-1.22.39-2.44.62-3.63.08-.34.21-.65.34-.96.26-.47.44-.49.88-.49.34.08.57.34.57.8.03.6-.03,1.19-.08,1.79,0,.23-.03.47.03.75.08-.1.16-.21.26-.31.28-.34.57-.68.88-.96.16-.16.34-.29.52-.36.18-.1.36-.16.54-.16.16,0,.31.03.47.13.36.23.36.6.29,1.01-.26-.23-.42-.36-.57-.36Z"/><path class="cls-3" d="m114.54,28.96l-24.38-8.31-2.64,7.75,17.68,6.03-14.24,12.5,5.4,6.15,19.56-17.16c1.09-.96,1.6-2.44,1.32-3.87-.28-1.43-1.32-2.61-2.7-3.08Z"/><path class="cls-3" d="m138.14,6.33l-14.59,12.08-3.15-18.41-8.07,1.38,4.35,25.39c.25,1.44,1.25,2.64,2.61,3.15.65.24,1.35.31,2.04.21.06,0,.12-.02.18-.03.66-.13,1.29-.43,1.81-.86l20.04-16.59-5.22-6.31Z"/><path class="cls-3" d="m122.32,31.98c-1.98.24-3.55,2.01-3.56,4.05l-.03,26.33h8.19s.03-22.74.03-22.74l22.78-3.01-1.07-8.12-26.33,3.48Z"/><path class="cls-2" d="m30.15,77.39c-.5-1.27-1.13-2.32-1.86-3.13-.73-.8-1.69-1.57-2.87-2.27-1.15-.68-2.19-1.21-3.12-1.57-.9-.35-2-.74-3.28-1.17-.2-.08-.51-.18-.91-.29-2.37-.78-4.14-1.52-5.28-2.2-.98-.59-1.45-1.37-1.45-2.41,0-1.11.4-1.99,1.21-2.69.83-.71,2.04-1.07,3.58-1.07,2.84,0,4.97,1.13,6.53,3.46l.38.58,7.4-5.59-.52-.53c-1.86-1.89-3.86-3.37-5.97-4.4-2.13-1.04-4.78-1.56-7.87-1.56-3.95,0-7.28,1.16-9.89,3.45-2.64,2.31-3.97,5.21-3.97,8.62,0,1.52.25,2.93.75,4.18.5,1.24,1.09,2.26,1.77,3.04.68.78,1.64,1.51,2.84,2.18,1.17.65,2.2,1.14,3.05,1.46.85.31,1.96.67,3.33,1.08.13.03.32.1.62.21,1.82.57,3.12,1.01,3.88,1.29.69.26,1.43.74,2.2,1.41.69.6,1.03,1.28,1.03,2.06,0,1.28-.45,2.33-1.38,3.23-.94.9-2.21,1.34-3.9,1.34-3.44,0-6.07-1.64-8.03-5.01l-.38-.65L0,86.79l.45.52c4.28,4.87,9.67,7.35,16.04,7.35,4.33,0,7.85-1.31,10.46-3.89,2.62-2.58,3.95-5.66,3.95-9.16,0-1.52-.25-2.94-.75-4.21Z"/><polygon class="cls-2" points="56.73 61.64 56.73 53.11 32.97 53.11 32.97 94.1 41.83 94.1 41.83 77.79 56.73 77.79 56.73 69.26 41.83 69.26 41.83 61.64 56.73 61.64"/><path class="cls-2" d="m86.46,58.87c-3.84-3.83-9.17-5.76-15.84-5.76h-11.51v41h11.83c6.16,0,11.31-1.96,15.3-5.84,3.99-3.88,6.02-8.81,6.02-14.66s-1.95-10.91-5.79-14.74Zm-3.18,14.74c0,3.55-1.18,6.38-3.59,8.66h0c-2.4,2.26-5.63,3.41-9.61,3.41h-1.99v-24.13h1.66c4.48,0,7.89,1.1,10.15,3.27,2.24,2.16,3.38,5.12,3.38,8.8Z"/><path class="cls-2" d="m112.39,53.11h-8.53l-14.55,41h9.27l2.39-6.91h14.3l2.39,6.91h9.27l-14.55-41Zm-.07,25.56h-8.4l4.2-12.15,4.2,12.15Z"/></g></g></g></svg>