<?xml version="1.0" encoding="UTF-8"?><svg id="Calque_2" xmlns="http://www.w3.org/2000/svg" viewBox="0 0 84.96 40.65"><defs><style>.cls-1{fill:#383485;}</style></defs><g id="Calque_1-2"><path class="cls-1" d="m12.52,0h7.6S27.35,0,27.35,20.14s-7.24,20.35-7.24,20.35h-7.55s7.35-.62,7.35-20.25S12.52,0,12.52,0"/><path class="cls-1" d="m0,0h7.6S14.84,0,14.84,20.14s-7.24,20.35-7.24,20.35H.04s7.35-.62,7.35-20.25S0,0,0,0"/><path class="cls-1" d="m79.86,35.53h5.04v-1.19h-5.04v-3.64h5.04v-1.19h-6.25v10.99h6.25v-1.19h-5.04v-3.77Zm-5.09-3.02c0,1.05-.71,1.84-1.95,1.84h-2.53v-3.66h2.53c1.24,0,1.95.77,1.95,1.82m-2.73,3l2.92,4.98h1.4l-2.94-5.01c1.88-.25,2.58-1.63,2.58-2.97,0-1.46-.83-3.02-3.17-3.02h-3.74v10.99h1.21v-4.98h1.74Zm-7.3,4.98h1.21v-10.99h-1.21v10.99Zm-2.76-7.43c0-2.31-1.44-3.72-3.55-3.72s-3.55,1.41-3.55,3.72v3.86c0,2.31,1.44,3.72,3.55,3.72s3.55-1.41,3.55-3.72v-3.86Zm-1.21,3.86c0,1.66-1.04,2.53-2.34,2.53s-2.34-.86-2.34-2.53v-3.86c0-1.66,1.04-2.53,2.34-2.53s2.34.86,2.34,2.53v3.86Zm-13.35,3.56h6.25v-1.19h-5.04v-9.8h-1.21v10.99Z"/><path class="cls-1" d="m64.72,26.86c2.2,0,3.33-1.18,3.33-2.94s-1.01-2.7-2.56-3.14l-1.29-.36c-1.13-.31-1.63-.94-1.63-1.95s.71-1.73,2.03-1.73c1.18,0,1.84.69,2.07,1.74h1.24c-.24-1.87-1.41-2.94-3.31-2.94-1.76,0-3.25,1.04-3.25,2.92,0,1.33.68,2.67,2.31,3.12l1.4.39c1.24.35,1.77.94,1.77,1.93,0,1.16-.86,1.74-2.1,1.74s-2.14-.8-2.32-2.21h-1.24c.16,2.1,1.57,3.41,3.56,3.41m-8.6-4.52l3.63-6.63h-1.32l-2.91,5.32-2.92-5.32h-1.32l3.63,6.61v4.38h1.21v-4.37Zm-7.47.16h-3.27l1.63-5.1,1.63,5.1Zm1.37,4.21h1.22l-3.53-10.99h-1.38l-3.53,10.99h1.22l1.01-3.09h3.99l1.01,3.09Zm-9.39-7.63c0,1.19-.61,2.17-2.31,2.17h-2.34v-4.33h2.34c1.7,0,2.31.97,2.31,2.17m1.24,0c0-1.95-1.01-3.36-3.55-3.36h-3.55v10.99h1.21v-4.27h2.34c2.54,0,3.55-1.41,3.55-3.36"/><path class="cls-1" d="m84.96,2.32h-2.02v6.8l-3.92-6.8h-2.02v10.56h2.02v-6.8l3.92,6.8h2.02V2.32Zm-11.94,6.8c0,1.22-.86,1.9-1.96,1.9s-1.96-.68-1.96-1.9v-3.05c0-1.22.86-1.9,1.96-1.9s1.96.68,1.96,1.9v3.05Zm2.02,0v-3.05c0-2.34-1.45-3.91-3.98-3.91s-3.98,1.57-3.98,3.91v3.05c0,2.34,1.45,3.91,3.98,3.91s3.98-1.57,3.98-3.91m-9.97-6.8h-2.02v10.56h2.02V2.32Zm-8.17,6.53h1.96v.27c0,1.22-.86,1.9-1.96,1.9s-1.96-.68-1.96-1.9v-3.05c0-1.22.86-1.9,1.96-1.9.97,0,1.75.53,1.93,1.48h2.04c-.17-2.1-1.58-3.48-3.97-3.48-2.53,0-3.98,1.57-3.98,3.91v3.05c0,2.34,1.45,3.91,3.98,3.91s3.98-1.57,3.98-3.91v-2.28h-3.98v2.01ZM47.72,0l-1.13,1.64h1.83l1.93-1.64h-2.62Zm-1.07,4.33h4.4v-2.01h-6.43v10.56h6.43v-2.01h-4.4v-2.32h4.4v-2.01h-4.4v-2.22Zm-6.12,1.13c0,.72-.5,1.12-1.27,1.12h-2.47v-2.25h2.47c.77,0,1.27.39,1.27,1.13m-2.5,3.08l2.55,4.34h2.32l-2.62-4.45c1.48-.35,2.28-1.43,2.28-3,0-1.9-1.19-3.11-3.33-3.11h-4.45v10.56h2.02v-4.34h1.24Z"/><path class="cls-1" d="m41.36,39.58l.34.91h.95l-1.7-4.54h-.87l-1.7,4.54h.95l.34-.91h1.69Zm-.31-.82h-1.06l.53-1.47.53,1.47Zm-5.36-2.8h-.91v4.54h2.9v-.86h-1.99v-3.68Z"/><path class="cls-1" d="m40.41,30.37h1.99v-.86h-2.9v4.54h2.9v-.86h-1.99v-1h1.99v-.86h-1.99v-.95Zm-2.96,2c0,.53-.39.82-.89.82h-.89v-2.82h.89c.5,0,.89.29.89.82v1.18Zm-.89,1.68c1.14,0,1.8-.67,1.8-1.68v-1.18c0-1.01-.65-1.68-1.8-1.68h-1.8v4.54h1.8Z"/></g></svg>